<mxfile host="app.diagrams.net" agent="Mozilla/5.0 (Macintosh; Intel Mac OS X 10_15_7) AppleWebKit/537.36 (KHTML, like Gecko) Chrome/138.0.0.0 Safari/537.36" version="28.0.5">
  <diagram name="Halaman-1" id="oAsjp2yXKaCVxCWqPK0b">
    <mxGraphModel dx="946" dy="732" grid="1" gridSize="10" guides="1" tooltips="1" connect="1" arrows="1" fold="1" page="1" pageScale="1" pageWidth="827" pageHeight="1169" math="0" shadow="0">
      <root>
        <mxCell id="0" />
        <mxCell id="1" parent="0" />
        <mxCell id="rL32pli-Os964ZMdKdvh-27" style="edgeStyle=orthogonalEdgeStyle;rounded=0;orthogonalLoop=1;jettySize=auto;html=1;" edge="1" parent="1" source="rL32pli-Os964ZMdKdvh-3" target="rL32pli-Os964ZMdKdvh-1">
          <mxGeometry relative="1" as="geometry" />
        </mxCell>
        <mxCell id="rL32pli-Os964ZMdKdvh-3" value="DB" style="shape=cylinder3;whiteSpace=wrap;html=1;boundedLbl=1;backgroundOutline=1;size=15;" vertex="1" parent="1">
          <mxGeometry x="510" y="310" width="60" height="80" as="geometry" />
        </mxCell>
        <mxCell id="rL32pli-Os964ZMdKdvh-6" value="" style="group" vertex="1" connectable="0" parent="1">
          <mxGeometry x="240" y="50" width="200" height="200" as="geometry" />
        </mxCell>
        <mxCell id="rL32pli-Os964ZMdKdvh-1" value="" style="shape=image;verticalLabelPosition=bottom;labelBackgroundColor=default;verticalAlign=top;aspect=fixed;imageAspect=0;image=data:image/png,iVBORw0KGgoAAAANSUhEUgAAAfQAAAH0CAYAAADL1t+KAAAAAXNSR0IArs4c6QAAIABJREFUeF7svQl8k1X2//9kX9qkSdqmGztFZXEFRBaBigOiogzaooCsCiqKDqC4gMTBQUVG/LKpiILIZjvuAoIgdUAUKYMgIoMgpSxd0qRN0+zbn0/M4d/x5wwpdA3neb366vYs977vzfO599xzzxEJfDABJsAEmAATYALNnoCo2deAK8AEmAATYAJMgAkILOjcCZgAE2ACTIAJxAABFvQYaESuAhNgAkyACTABFnTuA0yACTABJsAEYoAAC3oMNCJXgQkwASbABJgACzr3ASbABJgAE2ACMUCABT0GGpGrwASYABNgAkyABZ37ABNgAkyACTCBGCDAgh4DjchVYAJMgAkwASbAgs59gAkwASbABJhADBBgQY+BRuQqMAEmwASYABNgQec+wASYABNgAkwgBgiwoMdAI3IVmAATYAJMgAmwoHMfYAJMgAkwASYQAwRY0GOgEbkKTIAJMAEmwARY0LkPMAEmwASYABOIAQIs6DHQiFwFJsAEmAATYAIs6NwHmAATYAJMgAnEAAEW9BhoRK4CE2ACTIAJMAEWdO4DTIAJMAEmwARigAALegw0IleBCTABJsAEmAALOvcBJsAEmAATYAIxQIAFPQYakavABJgAE2ACTIAFnfsAE2ACTIAJMIEYIMCCHgONyFVgAkyACTABJsCCzn2ACTABJsAEmEAMEGBBj4FG5CowASbABJgAE2BB5z7ABJgAE2ACTCAGCLCgx0AjchWYABNgAkyACbCgcx9gAkyACTABJhADBFjQY6ARuQpMgAkwASbABFjQuQ8wASbABJgAE4gBAizoMdCIXAUmwASYABNgAizo3AeYABNgAkyACcQAARb0GGhErgITYAJMgAkwARZ07gNMgAkwASbABGKAAAt6DDQiV4EJMAEmwASYAAs69wEmwASYABNgAjFAgAU9BhqRq8AEmAATYAJMgAWd+wATYAJMgAkwgRggwIIeA43IVWACTIAJMAEmwILOfYAJMAEmwASYQAwQYEGPgUbkKjABJsAEmAATYEHnPsAEmAATYAJMIAYIsKDHQCNyFZgAE2ACTIAJsKBzH2ACTIAJMAEmEAMEWNBjoBG5CkyACTABJsAEWNC5DzABJsAEmAATiAECLOgx0IhcBSbABJgAE2ACLOjcB5gAE2ACTIAJxAABFvQYaESuAhNgAkyACTABFnTuA0yACTABJsAEYoAAC3oMNCJXgQkwASbABJgACzr3ASbABJgAE2ACMUCABT0GGpGrwASYABNgAkyABZ37ABNgAkyACTCBGCDAgh4DjchVYAJMgAkwASbAgs59gAkwASbABJhADBBgQY+BRuQqMAEmwASYABNgQec+wASYABNgAkwgBgiwoMdAI3IVmAATYAJMgAmwoHMfYAJMgAkwASYQAwRY0GOgEbkKTIAJMAEmwARY0LkPMAEmwASYABOIAQIs6DHQiFwFJsAEmAATYAIs6NwHmAATYAJMgAnEAAEW9BhoRK4CE2ACTIAJMAEWdO4DTIAJMAEmwARigAALegw0IleBCTABJsAEmAALOvcBJsAEmAATYAIxQIAFPQYakavABJgAE2ACTIAFnfsAE2ACTIAJMIEYIMCCHgONyFVgAkyACTABJsCCzn2ACTABJsAEmEAMEGBBj4FG5CowASbABJgAE2BB5z7ABJgAE2ACTCAGCLCgx0AjchWYABNgAkyACbCgcx9gAkyACTABJhADBFjQY6ARuQpMgAkwASbABFjQuQ8wASbABJgAE4gBAizoMdCIXAUmwASYABNgAizo3AeYABNgAkyACcQAARb0GGhErgITYAJMgAkwARZ07gNMgAkwASbABGKAAAt6DDQiV4EJMAEmwASYAAs69wEmwASYABNgAjFAgAU9BhqRq8AEmAATYAJMgAWd+wATYAJMgAkwgRggwIIeA43IVWACTIAJMAEmwILOfYAJMAEmwASYQAwQYEGPgUbkKjABJsAEmAATYEHnPsAEmAATYAJMIAYIsKDHQCNyFZgAE2ACTIAJsKBzH2ACTIAJMAEmEAMEWNBjoBG5CkyACTABJsAEWNC5DzABJsAEmAATiAECLOgx0IhcBSbABJgAE2ACLOjcB5gAE2ACTIAJxAABFvQYaESuAhNgAkyACTABFnTuA0yACTABJsAEYoAAC3oMNCJXgQkwASbABJgACzr3ASbABJgAE2ACMUCABT0GGpGrwASYABNgAkyABZ37ABNgAkyACTCBGCDAgh4DjchVYAJMgAkwASbAgs59gAkwgQslQO+P871HQpEH0PcLfR5fxwSYwP8gcL4PIsNjAkyACdQkIBYEQXzbbbdpOnTooA8EAgnLli1L9Xg8MkEQ5IIgyCQSCd4rwUAg4JFIJF6tVls5cuRIy8qVKy3V1dWVgiD4GCkTYAJ1T4AFve6Z8h2ZQEwQCIVC4qysLO0PP/ygq6ysvFwmk7Xz+Xzt4+Pje/l8vjY+n08qlUrFXq9XFh8fL/L7/SKxWCzy+X7Ta4VCEfR4PCG5XB4QiUQBQRD8Xq/XIpPJdqtUqp80Gk2R0+k8/Prrrxe3atWqqlu3biz0MdFzuBKNRYAFvbHI83OZQBMlMH369Liqqqp2y5YtyxKLxT2kUml7nU53lVgsVrndbkEmkwk6nU7weDxCIBAI/47vfr8//HMoFBJEot9eLfgZX3SO1+sN/w9fDofD73a7j3k8niNKpfKHu++++6uWLVv+NHfuXItIJAo2UTxcLCbQZAmwoDfZpuGCMYGGI1BQUKBevHhxq02bNvWprq6+OxgMXh0fH6/TarXKYDAoQIhdLpeQkJAgYAbudDoFtVodLiCJtEKhCIs8DrFYfE7IIfT4HfeBkEulUkEul5+7Dn+rqKjweTyeKrfbXdSqVavPpFLpl7Nnz/559OjRFSzuDdcP+EnNmwALevNuPy49E7goAmPHjlWuXLmymyAI98nl8j46ne5yv98vIeHGzBuzcqVSGRZj/E4zcPwOsYawQ9Txs0QiCZ9bXV0tqFSqsMBDwPE/iDhEHQcGBfidZvg0k4/M3DFgsHq93p2CIHwwatSoL1evXl18URXli5nAJUCABf0SaGSuIhP4PYFrrrlG53K5rjtx4sT4UCg0ICEhwRgXFycmAcd3zLhJcMnUjpk2xBsmdIg0DpyHv0G4IdRkdqeZOf6O2T0JOAk8xB8CDpGvaabH7N9gMGAwELLb7XaHw1FqMBhecDgcO1atWlWUk5OD9Xg+mAAT+B0BFnTuEkzgEiJgMpnkn3766ZX79+9/QqFQDNRoNDqZTBZ+D0C0IawQaBwQc4gu/gahpnVx/A/ijANCjp8h9DifhB3n4m8QdQg27kn3waxdq9ViDT08CMCB5+BazO5r3hfX4v5VVVX4//cOh2OVIAjrBEGwXkLNxlVlAlERYEGPChOfxASaNwGTyST9/vvvM7Zs2TLF7/dnt2vXLsPn84lhGseMGuKLLwgrRJRM6xBh/BwXFxcWZDKh04waAowZNb7jetwL12NwALEm8bbZbOfW1cnsXnO2T7N2iDrKgAN/w0AAZaQ1d7FYXF1eXv6NWq2eM3/+/H2TJk1yNu+W4dIzgbojwIJedyz5TkygyREIhUKiBQsWKKdOnZotCMLjbdq0uQZbyyCSNPtFock8DpGFCOM7RBTCTevk+BtM5zgijnEOr9d7yu/3m+Pj4x3V1dXYdvabHV4QRFKpVB4IBKShUMio0+mMEokkGTqNwQGeQSZ93Isc5jAgINM8DR5o7R3nkcWgqqqqxG63r83MzFwwatSoMyaTib3im1zv4wI1NAEW9IYmzs9jAg1HQNS3b98WBQUFT4pEontbtGhhsFqtIlrjJkc0WgNHsSDaZC6nWbbX6/W7XK7qUCjk9Hq9u+Vy+bdJSUlFHo8Hjmtlt912m2XSpEke7Dv3er1hYUVwGblcLoaD3d133631+/06sVicLhaLW585c+bKUCjUPT4+voVcLo/T6XQKl8sV3r8OscdgAwc55tH6O1kQYBHQaDQhr9cbKC0t/SoYDP5t7dq132VnZ/tEIhFHo2u4/sVPamIEWNCbWINwcZhAXRCAiX39+vXdCwsLX01OTsZe8vCsnJzZYCLHGjZmvBBK8jonc7tUKoVDWrnb7d4nEon23XvvvZsUCsXh7t27WydNmnRRAWByc3MlW7dujReJRG0KCgr67t27t49Go+mhVCpbeb1eUUpKStiMjwEFPOhh8kcZYYKHSR5lhQc9zsFavMViKa6srPy7IAhvCYJQVRf8+B5MoDkSYEFvjq3GZWYC/4PAo48+qli0aNEohUIxzWAwXIEZNxzfIIAQcIhhZWUlZrlhcaQ94/heWVnpCQQCZTqd7h9Op3PT/PnzD2RkZFTeeuutv20wr+MjFApJ8vLy4h966KHLBEG43uVyjfB4PFe1bt1a5ff74XUP033YJI+ywqoQHx8f/hkHlgPw/6qqKnjDL8/Ozp6zdu3aijouJt+OCTQLAizozaKZuJBMIDoCY8eO1a1cufLh5OTkOQqFQox1aMxyMRuHORvma9peVtP5zGazuZ1O5z6NRrNuxIgRHy9ZsuRUY5ivR44cqf3666/7nDp16mG9Xt9LoVDoyROeos2RFYEiztHWuurqaq/NZvsoOzv7+fXr1x9ujPJH10p8FhOoHwIs6PXDle/KBBqcQO/evTXffvvtswkJCQ8aDIYEu91+zmudtpxhvRx/l8vlIfzscrm8DofjjMfjWfrAAw98mJOTU5SVlUWObQ1eBzwQjnyPPPKIYc2aNX3dbvdklUrVR6/XK7BkgDKTdzzOpQh0+I4jGAx6iouLv8rOzp6Sl5d3tFEqwA9lAo1EgAW9kcDzY5lAXRKYOHFi0rJly57S6/WPaTQaicPhEMG0jgPrzvgZgojZLmbsbrc7YLPZziQkJHzYr1+/v69fv/5kXZanru6FkLR33HHHnXa7/VmtVtsZ2dv8fr8cJvdIPc5tlUM9YYWAGd5qte4cOHDgwx9//PFBnqnXVWvwfZo6ARb0pt5CXD4mcB4C/fv3j8/Pz5+Vmpr6sFqtjoPHOMVfh4BT0BeIndfrhbNbUCwWH3Y4HE+tW7duW05Ozm970Zrogaxv06ZNu/rVV18dZzAYxsfHx4fX11FH1I+89fEzlhYiIWf95eXl+SNHjnxo9erVPFNvom3LxapbAizodcuT78YEGpTAfffdF7du3bpnEhMTEflN4na7xTCvU6IU+jkSBQ7bykqqqqrWPPfcc/NNJlNZgxb2Ih9mMpnEJpNp1FlfuJnt2rXLdLvdIvgEkJMcfAKwzo4lBWSDw//OnDnz9fDhwye8//77xy7y8Xw5E2jyBFjQm3wTcQGZwB8TyM7Olufl5U1KTk7+q0qlSoCZnUzqFAAGV1JiFLPZjD3iE++7777cd955x94cuW7fvl06Z86cXl999dU8vV5/tVqtVvh8PhG24VESGdQXJvnI/np3WVkZvN9n5uXl2ZpjnbnMTCBaAizo0ZLi85hAEyKAvdzPPPPMPRUVFauUSqUYZmeKnU7FrLG/PGQ2m7+/9tprn969e/f2JlSNCy7KTTfdlPH111+b9Hr98GAwqD4bClaCwQxtx4NlAgIPUbdarcGUlJRFjzzyyNNTp05t0ssLFwyEL2QCCM/IFJgAE2h+BK6++urOP/7446qUlJTrKMIaBAxhUjFDpXVl1MxsNu/t2bPngzt37kSQmJjJVNarVy/jnj17XtNoNHeEQiG1RqMJ+w6g7vhOkeWQT728vNyVlpb25Ny5c9/kbG3Nr79ziaMjwIIeHSc+qw4JYFvSiy++aJg7d+7Vfr8/MxQKIeVWuC/S3uhoH0fbliJ7kWFSDrhcLodYLD74ySefHK6vgCjRlq8+zrvqqqtaHDlyZHlSUlI/v98fTk9Gog4xx95zOIYFAgG/xWLZnJmZ+eShQ4cO1UdZGvuePXv2NOzevduUkJCAfO4aBKqhBDEoG3jgd/Qrm812LC4ublxxcfGOxi43P58J1AcBFvT6oMr3/K8EIOadO3e++tChQ7Pi4uJ6xsfHp0LMa+bDxsU1U3X+L5w4j0KDUlhTh8OBaGeH5XL55mHDhr389ttvx0yqzYkTJ8o++OCDv7jd7r8ZDAaJ3+8PO4Yh6hsYwssb68kQsJKSkoM33HDDqB07dvyIWWqsdkuIekFBwf/pdLphEolEKRKJwksQ5BgYCUgTwuCvoqJi24oVK+7Oycnh9fRY7RCXcL1Y0C/hxm+MqqekpNxkNptfv+yyyzrY7fb/p//hRVzz+P3vf1RmCDqEnTJxYVYWCXfqLy0t/Sw3N/fBYcOGNSuP7j+qJ9bNx40bN8Dj8byTlpaWitkoWTUQ1hUckNAEM/Ti4uJD119//aTdu3fvbIx2buhnDh48OHnTpk1zk5OTx8hkMikyysFqATHHUgT6A6wWNpvNdXa/uikxMXHRqVOneD29oRuKn1evBFjQ6xUv37wmgf79++u+++67zampqd3hkU2hO2k2Hu2svOY9yeT+RzN8sVgccjgcIaVS+dCZM2feau4BRtq0aZNaWFj4dtu2bQfD0mG1WsOzUMqOFlk3DrjdbleHDh0emjdv3vrGjvrWUJ8A8Ljpppsu++c///l2WlpaLyR5oZCx4FLDCz5YVlZWJJFIRtvtdja9N1QD8XMahAALeoNg5ofghatQKIbK5fLVSqVSjRcseWHXxsT+e5Ik5DWdwGhggBc5ZqxHjhzZP3fu3AHPPPOMpbm2BLKnvfjii5MUCsUChUIhg/MbWSUie8zD4Vy9Xq/VarXO/fOf//x/eXl5MeMAF027oY+1atVqYGVl5bsajSbZ6/WKKX49OQvCihMIBIJ2u/0fI0eOHLds2TJnNPfmc5hAcyDAgt4cWikGynjw4EH5VVdd9XJ8fPyjCIBC6S/xov0jE3s0pna6jgScxJ1+hwkaL/SSkpKi55577o6nnnpqf3NFedVVV7U9dOjQR8nJyVdjMITZOQKqINwp6os1dLPZHKiqqlr76KOPTlu0aJG5udb1YsptMpnkJpNpYnp6+t8UCoUWPgXUHygUrsfjCVZVVVU7HI4ck8n0pclkiln/gothydc2PwIs6M2vzZpliTdu3Ki49dZb30pPT78PL1Z60f5euMkMT7P2aIQd19AMvaao42c868SJE6dmzZr1Z5PJVNAc4fXs2VOFpCtGoxHR4OS037wmG5/PF7JYLEdGjBhx++rVqxEV7T+dEZpjxS+wzAsXLtROmzZtiVwuH2EwGEQSiUSEgQ/xIie5kpKSjQsXLrx/8uTJJRf4KL6MCTQpAizoTao5YrcwEPTbb7/9rczMzPssFks4BjfWfzGLjohxKPLCDa+tk6DDbP6/DnKIg8hRXm96cVPY01OnTp0ymUx/njlzZrMTdJiRDQZDF5vN9n7Lli07YiCEA4lJ4PRFA6DKykr3WXP7FJ/Pt/xSFnPqK61bt762urp6tUaj6YjY9ugnsGxQfwMjl8tVVV1d/eCsWbNyeZYeu++eS6lmLOiXUmtfRF0LCgpkfr9fJZVK5Xa73b9u3TrHsmXLfNHecvv27cqsrKy32rRpMwovVYgRvsPkju9+vz/k9/uLfT7fqWAwCHEP/k7Mfz/jRN8VwfFNIpGolErlZQqFQk3b2FAuCDxmY2VlZaeeffbZWgk6hPTbb79VSiQSdSAQCI0aNSrw66+/VmOfe7R1rovzsrOzJXl5eU8mJye/IJFIwnHawQxe7ZQfPBAI+Kqrqz9eunTp5PHjx1+Spvbfs87NzZXn5ORM0+v1s7RarcLj8YgxiERfQ7+KLPWESkpKvho3btwdvJZeF72V79HYBFjQG7sFmvjzIWxjx47ttG7dumyv19tREAStSCRyhkKh/XK5/B9erzeqgCUk6O3atRtF24giwWDOzZrKysqWBQKBGYIgeIClZ8+ewqBBg87bRwsLC9uvWrUKUdOuwZY1ypmN2SySdGCG/vTTT0dtcs/NzVWtXbt2yKeffvqnUCiUhsGFTCar8Pl825988skP5s2bB2Gvd5M22ItEogyxWPxFampqZ9QNTl1kiYj8HrBYLJXdu3cfunPnzm+auyd/HX8cMmQy2ZrExMQ+gUBAgn4BMUe/g7hjQFRaWurq3LnzrQUFBfl1/Gy+HRNocALnfVk2eIn4gU2GQP/+/ZV79+79UyAQmCuRSC5LSkqSUxQuq9Xqdblcx71e7/SWLVtuLSwsdP+vgpOgt2rVahReqhCjyMw87NCFw2w2L3W5XNMFQcC9ohVMUbt27ToUFRWtT0tLuxbmdlovxUsbX2az+dTzzz//5xkzZvxPkztmw0ePHkUUtuc8Hs+wjIyMBOxnhoBiEOJ2u+1Op/OrGTNmTBUEobC+zbT9+/eX5ufnj9Tr9UuQFpXMxZQOVSaTYVte0O12v/PUU089bDKZ/E2m8zSNgogFQRiZkJDwJlKu1gzAQ4lcpFIpLC9rlyxZ8vDkyZMxUOODCTRbAizozbbpGqTgdyckJLyi0WhaY6oIoaSwohFHNH9FRcVJn8/33KxZs9b/L0EZPHiwYvPmzcthcq+urg7PNCG2uCfWg/GyLSkpWdq/f/9p+fn5/3Nw8PuaDx8+/LKPP/74fZ1Odw2FjqVY3rh3UVHRqRtvvHHYtm3b9vw3apgNT5kyJWnp0qVrdTrdzRhkkHkWgwRaf62uroaH9PahQ4eO6dy5c/Hs2bMxjY528FGrRsvOzjbk5eW907JlyzsCgUA4TjnKFNl6BQ/+0JkzZ07B0bCwsPDrWt38Ejn52muvTd+3b99brVq1uiUYDIrRf2mgBwsOTO8VFRU/SaXSUQ6H44dLBAtXM0YJsKDHaMNeTLW6du0q+/nnnwfJZLIFcXFxbRFKMxgMnusreCFGEmCEFAqFz2q1lkml0ikajWbT2LFjvX8wcxW1adNGcfLkybfS0tJGYf2cRIlEHabxX3/9dWnLli2nnW+2//u6ffjhh5fde++976elpV2DlzRmsLReihc21tADgcAwn8/3h4KOmfm2bdvSg8Hgaz6fbxi2ulH2MhoY4H4QA7VaHXI6nf6qqqovvV7vo127dj05Y8aMYKdOnSRGo1E+btw4WVlZWXwgENCLRCJVMBhUiEQiaSiEyKPiAMZFfr/fGwwGXcFg0BYMBh3r1q3zSCQSX5cuXbw16ia5/PLLb/j1119Xp6amtkaK0Joe/BGzu+/MmTO5ubm5kzmU6R/3+IiV4/6EhISXZTKZlnKmUwyEiL+Gz2azTfN4PIsv5nPD1zKBxibAgt7YLdDEnh95Ad6h1+tfUalULUUikQwCjAMvQczMKbQqXo60jut0Ok9VVVU9KwjC2ojwnJu1YnaelpbWZtWqVf/XqlWrQbiGTJ4QSdwX65ulpaVLMjIyph09ejS8hh7tsXXr1stuvvnm99u1a3cNnMXogBhDiK1Wq/msuXyaIAifC4KAGN41XefFLVu2TD158uSSpKSkoTgf9cK1+KL98jUFPiLu2PO99b777nt9/fr1l7lcrgxBEFKUSmWy2+1O02g0LUOhkAZLFDhoW13kvnD6sweDwaJAIABHwGJBEBBv/sfx48cfeeedd4oEQUAQnAd0Ot0rSqVSAgsC7kFLHvheUVFR0bVr1xHbt2/fXF9WgmjboCmf17t371a7du3amp6e3oG2TFIfpj5dUlKy7ZZbbrlt06ZNtep7TbneXLZLjwAL+qXX5v+1xohGZjKZBsrl8gU6na6lQqFQIoQmhIREjmbWZNrGC9Hr9YZUKlXAbreXWq3WSYIgfBnxBo/v3r371adPnx5SUlJym8FggOleTTHXSSQhkHjBWiyWxR06dJh26NChmjPV87bQli1bOgwcOPD91NTUayllJgYKVEa32x1wOp1lgUDgiN/vX9m6deuvx40bdxpLBOnp6Rkej2eBw+G4C1HlIJRYBqCZOTnu0e81k8H4fD5/dXV1pVgs1qanp8vxP1gItFpt2AudzONUAdpOV3PPPCURwaDJ4XA4bTZbhUajsdnt9p/j4+MztVotMtKFByaUOYyS0VgslsOPPvpov/nz5zf7OPXnbeSLOAEx8EeMGDEnISHhqUgIWBG+k5Mh+kllZWX1kCFDrlu7du0vF/EovpQJNCoBFvRGxd+kHo6+cJdGo3kpOTm5lcvlCk8tKVY6xAoiCRM2iRtEiDyHIUxSqdRnNptP+/3+uYFAwKJUKoeLRKJhGo1GqtVqQzabTQTBJKcuElxy9jKbzYv3798/7Xem5/NC+uSTTzJHjhz5fmJi4nUoIw6UkbJtQQzxO0zpNpsNA4fDMpnsE5FItC0QCDysUqmG6vX6sABjLR/X4Qv1o9ziEAD8DxywLl9ZWRmO1Ia6QLxp+x2eQ9vJyIJBFfh90Bz8Hc9A+SgeO56Dv8HPAPckj3YKJhP5HVv8UKdpVqt1wXkB8QlCnz59euzZs+eLpKSksKMjDYrQdpEoe36n0zk+FAqtZmsHd5jmSoAFvbm2XB2WG2vm+/fvH6BUKhdBzJ1Op0wqlYadsGrOyCl7FYkQeatD/CAw2Euu0+lCxcXFVqlUGoqPj0+Sy+Xh9J4UdxwvUhJc3Jvu5fF4vE6nc86mTZteqm1CkXfffTdjzJgxa9u3b39jdXU1IoOFhRAzbTJR0+y4xtYlb2VlpVkulyfFxcVhn3K4rhBRCthClgnUjQLX4H+4LwYAEHWKqY760f5m2pZHlggyudecqVPwHJxDs3rclwLlwDQMbuSQh+80uECdHA6HNTEx8e5jx45tr8OuELO36tGjR0pBQcFao9F40++jCUZCBIeOHz++Jjc3d2JOTg5nYYvZnhDbFWNBj+32PW/tTCaTeP78+Xf5fL4XU1JS4HwlhTCRAOM7iZhUKvVLJBIJkluo1WoJZpHkgEbijAeSwJMjGf5HpmoSSVxHM34IWVVVVYlIJBrhcrnyL2D0QtI1AAAgAElEQVSGpJJIJK8mJydPwJo/ngGhJZEmsaXZM+pD5cbf8Hz6nSwRNGvG8jc8zDFzxmyO1uVp9o3zaABAlgDiRwxRDpp50zo4OFFgHQg67gduKAuEG+fjOtwLlgD8jTy0UdaSkpLNDz300NilS5dy2NLz9nJBiOQSmKvX66eqVKrwDD3i2BlmjZ9Pnjz5zQcffHDPXXfddSqKW/IpTKDJEWBBb3JN0nAF2r59u3T48OEDXC4X9ulmIL824l6TmT1i1oVJGGHb/C6Xy1xVVfWRXC6/PSkpKVUQBKwbh7ez0do1hBQzS5rV4ne8LDFrhWjBXF1VVRU2f0fENIT91BUVFXnjx4+/f+nSpRe0FzgrK6v37t27PzEajVqn0ylFuWpmXavpnIaXOb5qDjzIGmG328MZ2uC1FlnX/06lUlUHAoEBWq02HKkNf0edcT0JM1kFKLodeND/yFyP88EB38GI1uvxPArpSqZ3sgjgHngeWUciJn7wWrp9+/bpWVlZtdri13C9q2k9KRKk5y6dTvdmYmKiAYMzWsZASWERKSwsPN6tW7d7CgoKvm9apefSMIHoCLCgR8cp5s7CzHzOnDn3qFSqOUajsa3H4znXF8gsTmvBwWDQDfO0SCSacf/993+4Zs2a271e72tnX45pPp9PQmvpJJSARSIFAaPAMTRAoBl7JGCLq7Ky8uCkSZPGLVmy5KcLBY36mEym8SqVCklMWkW22YUd+vAFASUzds1Ichhg0HoqmeUjM+xARUXFnl69ev05Pz/fr1AoPoiPj79RoVCIIAbYZkdb5FDmmgJO4k4RycAHX7TmTjNw4kHlQ7nIqlEjxn14AEBmYjyrtLS0omPHjvf/+OOPH12ANeNCEcfCdR2kUulnSUlJl/n9fhEGlTRYivhbIFf6o4IgLI2FynIdLj0CLOiXXpsL8GZfunRplsPhWJaQkJARCASkiIsOASfHLZh3IRbBYNB39iVn0Wg0sxcuXPjeuHHj3JHMaaPObqeak5KSkobZKok6CRLNZDE7pQAeEVEKYq0d+389Hg+2kL3jcDjeDoVCv4hEootKY2kymdRz5szpj/CxOp3uBlgcDAaDBIMKxGPHlJ3KR17OJLokmBHRD5WXl38/derUSS+//DJSroqefvrpDvPmzXtLo9HcCJMtmWvJCkBWDVpSwAzf7XZXu91usVKptHm93kAgEEiQyWQK+CeAL2aNsIhIpVJxUlKSGAMF2k5FIk6e7RiQ4BkIJnP8+PEzf/3rX2977rnnmm062Mb42D3++OO611577cvMzMyuSNiCPot+UDNgz6lTp/56dplldmOUj5/JBC6WAAv6xRJsZtcjwIlcLh8pl8v/ptPpMvx+v5i2TtHea4hIZNbpdrvdZUql8unS0tK1Nasa2a8+RKVSLU5PT0+PhEYNr12TiZ1mQLTP3OFwhOx2+09ut3vv7bffvlalUhXk5uZW1PUs89FHH1WcOnWq9RdffHHL2WcNUSqVnZRKpVGtVksh6BBODEJQPvIRwN8jsd9DVqu14E9/+tOdH374IfaHnzuuuOKKxKNHj+YlJSX1j5hwz6XkpBSuOJm2mFVXV38vlUonZ2VlHf3hhx+E7t27i+Pi4uRutxtOh4pAIJC6c+fOpJKSkiyRSNQuEAikIJCP0WhMrKioEMGyQY5wEJ+EhISgxWJxV1VVbZs5c+YIk8l0QcsTzazL1llxMZB94YUXXomLi3u8ptWI/CHQ/y0Wy8pgMDiuzh7KN2ICDUiABb0BYTf2oyDmLVq06Ge1Wt81GAzpIpEIAUvOiQYF2YhE0/IWFxdXuN3umbm5uatycnL+n73hmZmZiqNHj953VihfSExMTEH9IOwk6jS7RLpUiURywOFw5HXq1OmjF198sejOO++01zeP7Oxs+b333qubMGECZmRDJBLJKIlEotRoNBKlUhmeEZO5OzExETO1UGFh4ffPPPPMg3Pnzv3DMKAzZ868/OWXX16u0+l6y2Syc85VZNnAd4pS53A4fA6HY/Mbb7wx5v7776/4o/j0GBisXLlSIZPJ5AcPHkx66aWX2guC0EskEt0UHx/fUxAEWVpaWnhZoLS0FNaNw0ajceKJEyd21fVAqL7boyncv1OnTuOtVuvbaCMcFN6XRN3hcHzdvXv3m7HM0hTKy2VgArUhwIJeG1rN+NxIGs5sg8EwT6vVprtcLgmZicnUTjN0sVjsQThXQRCmvfvuux/m5OT815ShkZn6LQqFYq5arb4MW8DoJQmTs81m29GnT58VN99886bGnlH27du3w3fffTfe7/f/OS0trUMgEBCj7nD6Ky8vt9rt9j3jxo0bvWLFiv+aghRr9StWrEgpKSlZHR8fnwVRrxl0Bl2E9tdHts2FSktLd/7tb397YMaMGf+OtgstXLhQ8cknn7Tfvn37rcFgcIBKpZLrdLpvu3Xr9vann35ayGIeLcn/PE+v19/u8/k+S09PDztnov0pFDEGoKWlpadHjhzZac2aNVUX9gS+igk0HgEW9MZj36BPTktL62uz2d7R6XStsLWrpjc2CTBmlzKZzF1WVlZ5NkLc8wsXLlwxZcqU84bChLf8mjVrOi1fvvwmmUx2HfKmh0KhUzKZ7MCaNWs2ZWdnlzYVAVqxYoVy9uzZnYuKim4Ti8UdgsEgMsiV+Hy+b6dNm7b173//e/n5GibigNdZIpEsSU5O7oNZNlk3yMGOIutFfAmQFQ33zp40aRL8BqI+wLawsBCx4cVardb2vwZXUd/0Ej6xR48eNxw9evRbcoaEmNMWR/ytoqJCyMrKSv30009LL2FMXPVmSoAFvZk2XLTFxgz6qquuuvr1119/r1WrVh3cbrcEHr60LQqmRzhc4YiLi/OWlpaaFQrF9Mceeyy3tulBIWxw+I6UDU5oF+XkFm0dL+S8iy0rRP3ll1+GpWNFSkrKADjcQcQxK4dA1Pwe2bbmt1qtiz755JOZQ4YM+f8Dzl9I4fmaCybQs2fPK3744YcDBoPh3KAWM3O0GQ4I+i233NLmww8/PHHBD+ELmUAjEWBBbyTwDfFYiNbzzz8vMZlMT7Zu3fp5v98vJS9q2pJGMxSXywVnq4qzTnJ/zc3NfeeP1swboszN6RmRZYxOgiDAMfBGxL2Hlzx5usPJjlLDRtK4Hho2bNi9H3zwwYHmVM9YKmufPn3a7dmzZwd8SGoGlqHtaxiIDRw4sENeXt7RWKo31+XSIMCCHsPtDEHv0KGD/Pjx4+8nJyffGUlMcS7OOV5ekdzQvuLi4jNnfdqeeuaZZz40mUy1So4SwwjPW7WIqLc8m2ntdaPR2A/LDRBvSqgCxjgiwh50Op0P2O32d857Yz6hXggg89r333//hV6v70gOjJEthOFwvoWFhWi7q5H57o+cGOulUHxTJlBHBFjQ6whkU73NkCFD1Bs3bvw8OTk5i8KtQlxoZg7hqaqqCvl8vmU33XTTY5w+svYtGRH16+Ry+XtpaWmXgy3N/igWPkWJq6qqesDtdi+v/VP4irog0KNHjxZ79+7dpNfru1CSINqVgfv7/f6gx+N5oaqqao0gCL9E4hOcSwVcF2XgezCB+iLAgl5fZJvIfbt27areu3fv+0lJSbdjNk7ruzC5U/Q0xGa3Wq12mUz2+NixY9ctWrTovI5wTaR6jV4M7G3+6aef0v/xj3/83WAwDJXL5VLKSAe+lLwl4kntdzgc46uqqt5r9IJfogXo2bNnRkFBwWa9Xg+nxnPLIxSTH7Nyu93u9Xq9rlAo9IpUKt2yYMGC/ZMmTfJdosi42s2IAAt6M2qsCyyq9OyM3KTT6Z6EdzvWdSkGOcSGUn8qFIpAaWlpqcvlmmkymd5DrvALfF6dXQbHM8RpsdlsErrp5s2b8bP30KFDeME2+sxp5MiRLdasWfNiixYtcsRisRwiTqFfKeMbdhQkJSUJhw8fRv7yexYtWsQR3uqsl9TuRjfccEObf/3rX9sNBkMbih1AeQfIaoWlKbSh2+0OVVVVHXO73e/379//zS1btpys3dP4bCbQsARY0BuWd4M/DaK4fPnyzqdOnXqnffv213g8HklVVZUoJSUlnBuc8n6jYIhN6nQ6EaZ0+rPPPrumIdfSc3NzVVOnTjWEQiHEYW9vsVhaBQKB8Jder2/jdrs1wWCwWiwWV7pcrkKxWHxaoVCccLlcJ+Vy+ZH09PQzK1asqK5t6tULbRBw/ec//5n2zTffvJaUlHRnKBQKZ3mLcDyXdjaS/x1hbgMymWxxXl7eM7169eL0nBcK/iKvwxr63r17t+r1+g7UXrglDcIo0BK2H6pUKoQohiULlpXDWq32+ccffzz/6aeftjaVbZgXiYMvjzECLOgx1qB/VJ3c3FzJ3Llzhxw4cODddu3aadxutwi5vJFghKK51YiY5TebzWav1zuzoKDgvW7dutWrqdFkMiVt2LCh2549e+6QyWSdZDLZ5RqNxigSicS0pxuOZVj3p5CyMI9SUBwIpdPpPBQIBH4OBoPfZ2VlbX3ooYd+rm8vfYPB0OLsgMik1+vvUyqVcrz4McPDgbKizJHEMNi+5y8vL//i/vvvv/+NN95AwB4+GolAjx49tAcOHFil0+kGBoNBFTnGoe0ovS7ajaL94f+UjyAQCFRardadY8aMmfn2228fYFFvpEbkx/5XAizol0jnQICS++67b0xJSYmpdevWECPycD8X/hIvL8zY7Xa7PxQKVXTp0mXKP//5zzyRSPRfI8VdAD5RmzZtFCKRqHVFRcVgl8t1fzAYTM/IyEgIBoNiclSiAQbdHy9YvGjhkYytYRRvnv6Pl255ebnL7/fbQqHQl3K5fH1ubu53gwYNqqzL/fBwgPvxxx91v/zyC/Kv3y2VShFEJ5xsBeVC6FsacETq4KmsrPz48ssvf+bHH3/89QJ48SV1SACD2yeeeOKesrKy+cnJyUmwWCHZTnV1ddjfAaJOg1w8lpL2wNKChDv4m9ls/jkuLu7lDRs2fHzDDTdwRLk6bB++1cURYEG/OH7N5mqIzoIFC5RvvPHGnSdOnHgjLS0tAevplKQELzPKWY5KVVZW+v1+f1HPnj1vy8/PP1yHFTUIgjBeEIRRLVq0uBoCTmZOvEjJUQmiSJnMSLwp+hqlKiXxx8sWZUd6UtQH4hoIBByVlZUb+/btu/KXX37ZfurUKeQNr4s1d6VKpZqoUCjmxMfHxyF9LMqFL/CEqOPnSLAeWDs+79Gjx6O7d+8+VYcM+VYXQeCXX35RDBw48P4TJ048mJKS0snpdCIjXrjdKMgM+iTloMd3tCv6FfqXXq9HmlWHTCZbcXZb6Nzdu3dzVLmLaA++tO4IsKDXHcsmf6dIdDRJ27Ztx59N9PFcRkYGIp2di0VOMa3x8sLPbrfbYzabXzo7u3/hYtemX3nllbgnnnii79n0oS8mJCR0UKvV4ZktRVSjGTlFsCPnMoh6zfzpZNqmgQCJPuBjUIL7oOzIpGaxWII+n69coVCslslkb5jN5uNwFbgYYYep3Wq1rm7RosWNiIqHF3/NZ0IQnE5nUKVSuS0Wy+arrrpqekFBAc/Mm9inAxarnTt3tly6dOk1FotlrCAIXRMSEtI1Gk24T8KCpdVqzw020d8wcKw5e3e73Q6r1bqpX79+s7du3Xq4Li1BTQwXF6eZEGBBbyYNVZfFPHjwoHz48OF3HTt2bElSUpKehJxmwLR2DfP7iRMnVu7bt++Rq6++2nEhZUDoWY1Go/vss89MBoNhuMFg0FdVVUkiAW3CM2u8JLHuDI97HBhQ4GfKCQ6hRhkpd3kk5nz4byToOBfJNjDTwvl2uz38M8ykXq8X3sr7kDkuOzv7y7y8vItZQuhxdq0/Nz09vRXKTmZZMtdGdg74zGbzhh49evzlu+++K7wQbnxNwxFArIbPPvuss1gsniQSiW5PT09PiXi5h/sc+hZtQUQ/hXkeA0u5XB5EfuHq6up/9ezZc1b//v13NoXdIQ1Hjp/U1AiwoDe1Fmm48sjEYvFEtVo9JyEhQY8ZCJm2KXELXmTFxcW5O3bseOBC1wrj4+M7+3y+5/V6/Z0Id457Y2YOsSXRrrEfPvyipPVymg3RHmGaJdEsHd8jyU/CTnIYCFBkNlxD9UA2tUAg4K+oqDit1Wpfe/vtt1fceuutF7L2ic9Lf0EQ1rZq1SoVJlgwwjMhABFTP6LBfXX55Zc/sn///iPsONVwHfpinoQ+uXTp0rjXXnuts91un1xSUjI4OTk5EX/HIA3tjP5IUeUodDJE3eFwhKqrq4vj4+OnTZky5cPZs2cHuN0vpjX42gslwIJ+oeSa/3Vo+xyNRvNGQkKCjmbAeHFBJMn0XVRUtHznzp1TarvVCgFXNm3a1Gn37t1vpqSkXKvRaORWq1WE++NlaLVaw172eBZmQRB3imAHIcZ5eHmiHGRyh0jjpYr/43/Y2033wmxZo9GExZWc+2oKLuqHe+I5IpFo8WOPPfb07NmzHbV98crl8i5erzcvIyPjCpSDZnIwvaM+TqczZLFYvhw7duzY9PT00tomuGn+3ar51wBr7EOGDLnh9OnTJqVS2S8YDHrPLhUpKPlOxPIT7muR7W34jnav7Nmz54TLL7/88zfffNNf277V/MlxDRqbAAt6Y7dA4z1fpVKp3k9ISLgdmcLItEjhYSGc1dXVNrfb/XgoFFp1AeuDNwiC8NLll1/eu7q6WuLxeMJr9XBcg/NYQkJCWJwxOyeTpkKhCNlsNqdCoXBUVFQcbNGixXfBYNAskUgsfr8/EAqFJIFAQKRWqzMKCwtbqNXqO91ut0qr1WqSkpKk1dXVIggrra+T1YG8zjHTwrNdLpdHr9cvrqys/FtlZSW84KN2llu8eHHiY489tjwjI+POs5aHcJ1owEEOVWaz2eV2u8cIgvCBIAhNNuNc43W9ZvFkkU6na+3xeLLj4uL+4vP5UuENTxYkitVP2QrFYnEI/bekpKS0a9euDw8aNOhznqk3i3aOqUKyoMdUc0ZfGZlM1lUul+80Go0KCBO9oGgvNUSqtLR02/XXXz/m22+/PR39nQX0qTZKpTIvJSXlGq/XK5bJZCLMoDGbxoEZdMT0Hl7nxqy5urr6lNvtLoiLi/vonnvu+eaKK644M3Xq1P8agAWBXWw2m27Dhg3tf/311yGBQODG+Pj4G41GowQOTbSmTbHUaV8xnouAIaWlpTDDv5qenj6rsLDwt8XwKI5QKCS+8sor7/zll1/eS01NVWNPPwYk2NeP7xhEKJXKUHFx8cdXXnnlqL1793Kq1Ci4NtVTYHLPzs6+6aOPPpqZmJjYW61Wi7GzAdYf6lPo1zXSEIccDoelS5cuw2+99dZ/8pp6U23Z2CwXC3pstuv/rFX//v2V+fn5LxmNxofkcrmczNG0RqjVakMVFRU+u90+dt26dbk5OTlROZHh5RcXF5fqdDrnp6en3y2RSKDg4cEChJRmszWSYngdDgecirZ27NjxzcWLF+/p06ePrTbWADwzLy9Ptn79+rQdO3bcabPZxsXFxXXGjB0R8SLOS2FvZbJC4GWMw2azVSQlJT1666235i5btizqADozZsxImDdv3kcpKSn9JRKJCAMSDExw4GeDwRAsLS0tS0hIuK24uHjfxXjVX4Lds8lVGYO4e+65J/OTTz6ZFR8fP0QikWhUKpUYbY1+RbnU0dfggCkWi72VlZXf3nDDDY/t2LGDU+U2uRaN3QKxoMdu2/63mklHjx7dLjc3d63RaLzK7XbLMMOAyOE7pVgtKyv7ukuXLiP3798f9ez81VdfRfjWeUlJSQ8plUoJzOkUaQvf8fLDuqNCoQgiq1V5efn+O+6447nhw4dvrYvIbhD3q6++OuPAgQNT5HL5qLS0tJSz+d3FeNGSmMMTHuZ+/C6TyTCTPqrVau83m83/rE1XgMd+IBB4KykpKd5ut4soch2eBV8Ai8XidrlcL40ePfrlNm3anEtH26lTp/Bn7tChQ6HZs2eHTf21MfnXpox8bt0SGD16dOKqVaumJCYmPq5UKuMlEomYdjpQ/ITINkv0badYLP6n0+mcKAhC1J+hui0x3+1SI8CCHiMtDhP0jh079IIgdD9z5kz3o0ePJmC9WSKRwLQcNgX7/X4ID2YQ7VNSUv4UDAbjKEEL1rYh6hFHMkQ3e2HBggUvR5tlCmKqUqmyfD4fMrslkQNbjSxWYdJSqdRXUVHhDgQCH48fP37e66+/fqg2M/Jomgt73mfPnn2zx+NZmpSUlAYfAVwHBnCcg6jjRZyQkIBdbZhN7503b96fpkyZErXn++LFi1tPmzZtTXJycu+auwNoOQF1cjgcR71e79ZAIODB+ir5C0ilUpHD4YD3NLJ6YW/8tszMzKKjR49ylrtoGrgRz9m8eXPchAkTnvB4PE9JpVI5LDS07RPFwoAO/UwqlQZtNlu1zWZ7+5VXXpn1xBNPXNC2z0asKj+6GRJgQW+Gjfb7IkPMTSYTzL9zDQbD9RCLyEuFvLrD67tk9qZtOJHZYVjE8TfMLCPeukeeeuqpIbNmzfqlFnjaCYKw7oorrrgegklZ3GhmHtl37nW5XFVms/mtGTNmvPzyyy/banH/Wp96++239/z8889XtG7d+nJYBiCotI6PoCHYTxwZeHhKS0tnbdy4ceGtt94alagiMElWVtZTer1+Fjz4yYwP7uRxj7qbzeZza+tksaCtdmgTPN/pdFZ4vd7cpUuXzpg0aVK9Mqk1RL7g/yEAL/i77rrrweLi4r/K5XINLStFwsOei74I87vVarX6fL7pfr//XbbEcGeqbwIs6PVNuAHu37Jly+5Wq/UNbA8LBoNhT2+IFcSFgrJQikjaDgbxxt8oVjUFY4l46r772muvPThlypSoxA1rjBKJ5C/JycnP+3y+OJjtKVxmjS1mwaKiIo/D4Xh98uTJc5csWWKpbzQoV3Z2dt+PP/54XQrSywlhh71ze9fJqQnlLSoqKujRo8e4Xbt2HYy2XHfddddVGzZs2JaRkZEE3rCEkOmVXu60rQ3fawbPoX3N+DtYYbubzWZb0qNHj2d3794dtaUg2rLyeXVLYOzYscr169c/oVarZ2q1WqnL5QpHDaQdD5HBc0gmk3nLy8uPd+vWbeg333zz77otBd+NCfwnARb0Zt4j3nnnneRHH3307ZSUlNsxM6ewp5gxUmxqEhlUFTNVmNcRSQ0HzdYxq4xs9wq1bdv29t27d2+MFs3AgQPb5ufnb09NTW2NazBDh1iSp3kkAIzbarWuffbZZ/9iMpkaVLCys7P75OfnvyeVSlsGAgEJbWej/cSwJiD4TEVFxTy/3/90tE5s06dPj5s/f/7qjIyMobTdj/bQU5IPzMZh5sd2ObQNRJ3OJedAsEJQnBMnTtiDweAUns1F2/Ma97xdu3apevXq9YRWq30MwZmwxIXPXcTSFf784QgGg8i2t3Hq1Knj586dy6lXG7fZYvrpLOjNvHk7dep0Y2Fh4edaTBOk0rBJGaZd2hONWSPlfSZhx99wUGQ1mr3j+srKyl+vvPLKftEmE4G5/913351gtVrfVCqV4RcanM4wcKC15eTk5OChQ4d+HjNmzPCVK1dizTzqfd910Tzbt29XZmVlPaDRaOZoNBosnIcHGxEhDwssuJ08efLEiBEjrn/vvfeiTnGanp7+qN1uX4ggN6gvJbihvfDkXV8zQA7YUOAeSixDXvJFRUWrJk6ceH9tvO7rghHf48IIZGdnGz7++OOFer3+Xq1WK8ZAuWYcBLQ/tjGWlZVZAoHAYy6Xa11D9/8Lqxlf1RwJsKA3x1arUeb09PThPp9vPcQZs0Hsh8aMEAftKScPbAgOhIOiqZGzXA0zob20tHTRwYMHn+/Spcs5z+z/hejNN99Me/DBBz9q3bp1DwgknkVZqnAdTMtWqxURtO7asmXLV42F+7PPPlPfc889uVqt9tYID/KVCxcJf/ttudP35JYtWxZHm4xmyJAhnb/88sv1RqPxCik8/n5LahO+Hw5aL8cAoqaQk9MgzqNoeWgPi8Xyr0GDBmVt2rSpQa0YjdUusfDczMzMFsePH19pNBoRFjgc3pjCF5M1CE6SFRUVR9xud5YgCCWxUG+uQ9MjwILe9NqkViVq1arVfXa7fRWyi0XMe+eSmFAGM4o3TmKL8/DCqXH4AoFA0GKxHBs1atSfV61adSSaQsCz/frrr7/98OHDb8fFxSVjtkmm5hrXB6xW6wdr1qyZkJOTUx3NfevrnCuuuKJXYWFhXkJCQho8zSmYDjmxQYzPnDmz6YMPPrhv2LBhUa3xI9FNly5dRickJLyUlpams9lsYTsrpVMlsz6xryng+B/aiMKHwrJSWlr686BBg/ps3rzZWl8c+L51SyDilHqrXq9/Q61WG/x+v4oys1EYZZlMBkEPnm1jU69evf7ev39/L4cFrtt24LtFnIQYRPMl0L59+zE2m20lZuhk3qWsZPgO0aD1dIg4xaOumdiktLT01NktZ1/37t37ma1btxZFS6NTp07yY8eO/V2v109WKBTYinXOmx5iidjmJ0+e/LVDhw6jfvzxx2+jvW99nYc1zz59+ryo0Wgm63Q6KfjQNjOaVZnN5mKJRDLa4XBsrUU5pBKJZGggEHhWr9d3UqvVcgywIoFGwqZ4DKrQFpWVlQgRGvZ1oOQz5DgYSYbzcygU6iMIAgt6LRqgsU+FqL/88suPSaXSv+t0uvDSEw4M4Ci0MT6jp06dOhoIBKaaTKZts2fPdrH5vbFbLraezzP0Zt6eHTt2nGCxWJbX3JZGEdkia7pHq6qqPouLiwtAcMViMba0BSP7ZUPBYNB+7bXXfj9hwoQ9Dz/8cEVtcAwYMCBx27Ztn7Zv374XzMnw9IaQ4SVGGdSKioo+W7Fixehx48ZV1ube9XXu3XffPXDz5s3v6XQ6I8qIQRDKTC9g7NsvKSmZFgwGF9SmDHctGBoAACAASURBVEhGYzKZ2ioUiptFIlFLBOyhdfKIjwKi1oVUKlWqVCodhWURygaHFz3KAoZ2u/1Q27Zt+x05cqS8Ns/ncxufQPfu3Vvu2bNnndFo7CaVShXkx4LPHXwssL4ul8uxnl7odru3Z2VlbWzduvW2lStXYqtig/qVND4tLkF9EGBBrw+qDXjPTp06jS8vL3+btknh0ZSgBAJRUVGxcdSoUXetWLHiv4U2DV1oYJdBgwZdvXv37oLExEQkRgmb8SmwBr7jBaZQKO6yWCwfNiCS//mov/zlL6rFixdvTE1NRRatcBz2ioqKsIMgOQ+Wl5ev9nq9oy9k9oRlCEzM/qgQ+fn5ojlz5ly3f//+3fQ8yumO9kN7lZWV/TxkyJC+n332GQt6U+k0tShHp06dBvz8888r27dvn1pVVSWlZSjcAm0OHxdYaqRSqb+kpAQJh4pEItGqzMzMj5YvX/5rbbMa1qJofOolQIAFvZk3MgS9rKzsbYonXSNSWXjWabVaNzzwwAN/rg+v6V69et155MiRj9RqtQhihBcWefmiPGaz2T5gwIArN27ceKIpYe7QocMTZ86cmWcwGMKMaHcAZlRw7HM6nUfOZsvq9umnn/62t68Oj1tuuaXntm3bdmHGhuUPCktLj7BYLD/36dOnb35+Pgt6HXJvqFsh/PH06dP/T6PRjNfpdOEkLhB1DHjx+SAfCtreiEBOOMdmsx3w+Xybx4wZ89aoUaMKo3XKbKh68XOaBwEW9ObRTv+1lBB0s9kcnqHTQaZcOHvZbLYNd99997C8vLyovNajxYE1w5deeulJuVz+ItbKKXc5zdBxn5KSki8eeeSRoYsWLYoqQE20z77Y8zIzMwfabLZNcIyDIzoEHQMS1AEib7FYPD179rziiy++KLzYZ/3+egj6999/vwsmd7zk0W7kQIXZemVl5c+DBw/mGXpdg2/A+91www3X7du3b4NWq00KBAJS7EtHGyM+A31OKRYBRB4meYPBgNDA/jNnzpxWq9XvXnXVVe+/+OKLv7CwN2DDxcCjWNCbeSOSoGNGTCZj2mcOgbLb7RsmTJhQ5zN0k8kknzNnznK9Xn8fRYYj5y/y6C4tLV0QCoWmX6hJv76aJjEx8QqHw7E9KSkplSLloeyYMUf24vvOCn4PQRCQKa1ODwh6fn7+ruTk5PDsvGa6WnA7ffr0z/379+cZep1Sb9ibrVixQjlu3LiF6enp+GworVZrONgMDXZr9jWKAYESoi8gJLHD4QiUlJTsDYVC7/bp02fdzTffbGOP+IZtw+b6NBb05tpykXL/XtAhUOTBjlmn1Wr9fOLEicPq2uRuMBi0VVVVmzIyMnpRjHR6NoXAPHPmzFOhUGjehaxF12ez7Nq1y9C7d+/3MzIybqb49liqoFCwVVVVfpfLdUcgENhU1+UYMGBAeIYOSwC40UCMdiJYrdbDvXv3vpFN7nVNvmHvl5mZeW1RUdEbGo2mS1xcnJoCDtFWSep36HP4HxwzKRQzHOdQWqfT6cLA0+12/3379u3fns0d4G7YWvDTmhsBFvTm1mK/K+/ZLF3jXS7X2zX/DCGHaQ+mvOrq6s8nTJhQ54IuCIJOqVRuSU9P7x7xng8XAWJOTnnFxcWPCIKwpKkhPnbsWMJll132Xlpa2hCaGdWMwW42m/1er/fuQCDwSV2XvV+/fj0PHDiwC+F3KdAMPQMvdIvFcrhv374s6HUNvhHul5mZ2a+wsPA5iUTSMyEhQRVJUHQuVTHFiSC/FwpCg1k6zPPoI9jmCMc5qVS67pprrpm/bds2/CHY1AbJjYCXH/kHBFjQm3m3UKvV4xUKxdsUOpReDrRmZ7PZ6mWGrtVqDVVVVZvbtWvXDY5klFWNRB0vp+Li4ocFQXi9qSH+5ZdftB07dlxhNBqHUbkprjq42Ww2v81mu0cQhA/quuyYoe/cuXOXXq8/lziHBb2uKTeN+2HHw7JlyxLfeOONTvv27btZKpUOVigUmYmJiTq32x2KpCw+lzAIVhr4VlCO9Ui4YGwtxcAcaYe/NBqNf3v44Yf3/vTTT4G8vLzfYjjzwQQiBFjQm39XmKDT6ZYjfjrW4GiGDFMutmM5nc76mqEbzs48Nrdq1aobTMc1hZzWpYuLiycLgrC0qSE+fPiwpkuXLisNBsMwvDRphwAsDZHsdEimkS0Iwsd1XXYI+p49e8Jr6Dab7ZyTFJ7DM/S6pt107gdxf/7555NNJtNAQRAGGgyGAX6/PzUuLk6MwTjlX6gRWS5ceMqHIJFIgoIgBMrKyo5dd911r/j9/vV79+51Np0ackmaAgEW9KbQChdXhglGo3E5RvZ4KdTMeY4tZPU1QxcEIUEul29JSUm5nhy7aO2cvOxLSkqapMl9x44d+r59+65v27btQMyKUH5yiINZtKSkBCb3ellDh1McZujwbsYXsWNBv7gPQXO5Gil9J0yYELd9+/Zr7Hb7nQ6H416lUmlUKpVSyrOAfkH9EvWiSHMymQzm95Db7a6wWq2L9Xr9goqKCsT856A0zaUD1HM5WdDrGXAD3H5CUlLScnjRUtIVCilKXu5jx46tcy93QRDiBUHIS01NvYVm5BQ+Fd/xt9LS0udCodALTW29r2vXrmkHDhz4ND4+vhtm5DCzU0hcvFRPnz7tCwaDg/1+P5LJ1OnLEjP0vXv3htfQaQ889RGeoTfAp6UJPSI3N1fy+eefX7969ep7JRLJSKPRaEDxyMmUgtJQciWygjkcDp9UKnXa7fb3Ro8ePX/58uUITlOn/bQJYeKi1IIAC3otYDXRUycYDIawoFMMd9oTjtmfy+X67Mknnxxa19teEHHt7Pacl6RS6aPYz00ZwyhaHGYS5eXly/x+/2SRSNSk1vo6dux43alTp75JTExUeL1ehMINswO3lJQURGvzejyertXV1Qfrus0h6N99990u7N2n/e8s6HVNufncD6b4CRMmxOfn5/cwm82PBYPBG1u0aKF2Op0yygWAGTv8VGCFw0A5YlEKVFVVeSsrK/OvvPLKRw4cOHCcRb35tHt9lZQFvb7INtx9JyQnJy8n8y3l14ZIRbatfZGZmTn06NGjdRrcBfvQTSbTOIPB8AZMgvQ8mlXg5VJZWfnvQYMG9fz444+bRBx3apLU1NRsn8+XS7NkvCTBj/aFWyyWyhEjRnRcuXJlnae5vOKKK3qWl5fvwgAIX7AMsKA33IelKT9p48aN2mHDhmWHQqEn9Hr9ZYj9r1arxZixU8ZECDsGgxiAwtsd4YtLSkoOyGSyCT6fb29Trh+Xrf4JsKDXP+P6fkJY0CmrGgSV1oQjCVM2ejyeYYIg1LWgS1944YV+Wq32SzwbU3Q8r2YeaLvd7heJRL1sNltBU5k9wMw5fvz41yQSyWS9Xh9OoUq80FB4UVZWVu7s16/fLVu2bHHUYePRZ+0GlUr1jdFohMMTErb8XtB/7tu3LweWqUPwzelWBQUFstdff73LypUrn9Tr9XeKRCIVBn20G4Nm6zQQjCRCClkslkPJyclD4TTXVD5rzYl7rJSVBb35t+SEtLS05RAGrAdTKk78DIEtLy/f2rt370dgTr7nnntEarU6vNaG//3yyy8hBK9o3bq12WQy1SpoRSQHdCulUvmd0Wg0OhwOEZ4JQccsAjOKyDr6C+vXrzfl5OQ0CbP7kCFD2m7atGlzmzZtMt1u938IKtgplcpQcXHxfI/HM6O26+fZ2dmS9u3ba41Go/6s74AUDHBAuF9//XXh3//+N37tFB8f/wH2GiPsLBhRzADwQyz3Xr16saA3/8/lRdVg4sSJScuWLRsrl8un6vX6ZDGUO5L0B30mshsjLPQQeexosVqt+wVBuF8QhIKLejhf3GwJsKA326Y7V/AJer1+OczH5IxGaRsh2m632+52u08hbSr9H+vtCFyBVKHBYNAnEol2d+jQYcXq1asLunXr9t+ysv0Hqcg2nLjnn39+ZYsWLWABEGH/LF40lHQEQlVUVPR9hw4dhh8+fLjO46LXtungYSwSicYajcYFKpVKCz6UQ562/VVUVPj9fv+DTqfzP4L1nO9Z2dnZhn/96193HDt2bIxSqUz2+/3iiFlUSEhIEGGLmlQqDSmVSkV8fHw78jXAC5nMqDinoqLi5379+rGgnw/4JfD/gwcPyocPHz7oyJEjs5OSkjoiYRsGh4gqhy2WNGiugQKpf7eq1eoRdrudk/tcAn3k91VkQW/mja5UKieoVKrwtjUIKgbytH0MgoIPPUzKWHfD/2nWSFHKKM2pzWZzhEKhWUOHDn0jLy/vt43l5zlCoZBEqVQ+LhKJXkhISFBGZqPhq/AcmOIrKyur7Xb701u2bHmjsRNNzJs3L/XJJ598r23btjdbLJZw3GwIKg68IDHQKS8vL8jKyrpn06ZNx85X/xr/b33W639+QkLCMKVSKcZ9KYwsBldoB7BAu1DQEArzSY6MuBfayWw2HxoyZEg/Tp9aC/oxfCoGzj169Ojwr3/962W9Xn+LSqVSwBpG+RMwaEYfijilBn0+X6iqqurN0aNHm1asWAFRZ+/3GO4fLOgx1rg6nW6sSqVaQU5ptN5G8dxRXXz4kdkLIktrxpjRU2IIiDuus1gsxV6vd1IoFPq8FutwvRQKxaqWLVu2x753PAuiReFfVSpV6Pjx44f79+8/MD8//1Rj4ceL8corrxx1+vTpN1UqlYoi6lFCmciSBWY46/Py8u4fMmRIVEE7tm/frsvKynrxsssuG+NwOFQ1Xq7hwRWYgwsGCxBsapeace9hHYis3WMp5Mdu3br127lzZ0VjseLnNj0CnTp1yjx+/Pjf5XL5n9RqtTIQCIRFHf0GTnMYRELcKyoqYHWrqKysXBgMBl+AW0jTqw2XqL4I8Ay9vsg23H2HGI3GTyJJPkTk4EWZnWo6qkFcKD8zJQOh8/AywIvBYrFsuvHGG8fs2LHDHE0VcnNzVTk5OYt1Ot14vGDofljXwyCCco0XFRW9+Oqrr86ZOnVqVLP/aJ5dm3Nuu+22jlu2bNlgNBpbR9Yjw34ENAABG7PZ7LrrrrtuXr169a5o763VagerVKoPg8GgkgZTqDsNamrG6UbbwFyK7/g7no+fwZ72Glut1m0zZ868vbY+DdGWl89rvgQ+/PDDxMmTJ78aCoWGBwIBRJkR43OPL3ye6bOuVqt9paWlAafT+cjgwYNXb9q0qU4dYpsvwdgvOQt6M29juVzeMRAIfJ6SktJWIpGIKHwpVYu83inxA/5O5mBax8UsFV+JiYlwrKlu3bp1n3379sHB5rwHZr4ikWjA2YhxGxUKhQyzUTLzk5jBGmC1Wi2XXXbZ5L179+bWYvZ/3udHc0LXrl0Tfvjhh5eSkpImxMfHyyorK8MWCRJSiGpkprPjjjvuuHPt2rVRzY7hBPfJJ5/8VavVPkOBfcjLH+Ui4aYtR3jpQuzx4sVLGM+kbGu4zuPxeIqLixeGQqGnm9re/Wg48zn1T+DNN99MmzJlyiKDwXCrVCpVYk2dgiKhb8HyA58MlUoVLC4uPtqpU6fRBw4c2F3/JeMnNAUCLOhNoRUuogzZ2dnyvLy86QkJCdPi4uI0fr9fRltaaqZopLSN+B+EhWbrEHoy1+Nv8Jb1+XzTZ86cuSCaYDQRQUfUuJUtW7YcRo5gqBIEHc/CLBhhK4uKigo7deqUc/DgwQbzwh04cGDct99++7xEInlMKpVizT8cBAc8KBgOymexWGzV1dVIJrM22uYYOHCg8Ztvvvleq9W2xuAA9yTHQwh0ZEtRWLR/n1GLBlPURpEIdT/DOvL111/vibYMfN6lR+DLL79MGDFixAKXyzVKo9Gc+7yjT8EqhiOyvBYsKyvLHzp0aM5HH31kufRIXXo1ZkGPjTY3ymSyFwwGw9i4uDgZOWJRSFZUkRzlKCwsZo9k5iUhgijhpXD69On8v/3tb3c/88wzUb0EIOpxcXG3+f3+ZSkpKWk0M4W4YwCB72KxOIT7FxcXf9W5c+fH9u/f/1N9ox88eLBi06ZNf1Gr1bNatGihrK6uFtPAhtb4I0sEAbPZvHX27Nnjnn322eJoytW/f39pfn5+lkKhyE1NTdXhRYoZEh2oMw7M3GF+R91xRFicCyiD5/v9/pDVag107NhxzJtvvpkX7U6DaMrJ58QmgS5durQsLCx8S61W3yyXyyX0GaZlr8igPYhltLOWu+c3btz4Iver2OwLNWvFgh4jbYxQrIsXLx7r8/nuVigULXw+nwyj9Mi+9PBWFwhLIBAIKpXK+MTExCRsrYKo0+yRopfZ7fYyp9P5gN/v/yxa83hmZqbC6XS+IpFIMMsNv2AgmjUFjjKbWa3Wnw0Gw+OrVq36qr483wcNGmTYtm3bMzqd7lGZTCavGWYVM2aaoZ/17A9UVlaWGo3GISdOnPhXtN1h586dmqysrDdTU1NzPB6PBOzIhE9bipxOp7OystKsUCgCeMHiIOsJnJqQQSsQCDjFYvGerl27LtqzZ88P0T6fz2MC1113XeaBAwfeNBgMvRXoZIHAuWUc8pGRy+Wh0tLS0263+6FQKLQh2s8z022eBFjQm2e7/WGpt2/fLj18+LDhoYceyoBzO52EmSNG6hA1CJlarb7G6/XO0uv1aTWjUFFwGolEEjh58uSyqVOnPjF//vyoo6XddNNNrXft2vWZXq+/EuvEWDuHuEHoKNIVlcFutx9t0aLF//3pT396a9GiRXXmtINIcG+99Va7L7/8EuEzR0qlUjVmLdh3j0ENLTlEwq4Gz26p8/j9/v979913Z9Ym+M3QoUO7btiwYW1GRsZlqCv5KtASA/b4nzx5clsoFHpJEISwHTRyDkY5Ivx8/fXXByZPnlzt9/tPjh49OmrOMdRluSoXQQCWsczMzP4nT578R2JiogF9mvo6WYbwmT5roQoUFxfn9+7d++78/PwmFYb5IqrPl/4BARb02O0WouzsbLHZbP6PNs7Pzw+9++67ugceeOAdzEp9Pl84OQm+aBaJLTAlJSVn0tLSco4dO/ZNLRH9WaVSYeaaVFVVFd5aQ+bASCS2sNXgt1WAEPKOfyKVSt+YM2fOd0888cQFixoc1Fq1atVi2bJlN7vd7lfOBo9BetdwcBcMZshCQaZ2TGhsNluwoqJi3fz586dNnz496kAc8C5OTU19XiwWPxPxIQiHkEW9MIjBi/X06dNVIpHofq/Xm1dLfnw6E4iaACISKpXKhyOxINQKhUJCM3UaSGMrm1wuD9pstmeWLFmyYNKkSVEFj4q6EHxikyHAgt5kmqJhCgLh69y5c+jLL798YN++fUv0en34BUDr6Vj/hqk+EAiE7Hb7SwsWLJhdmxfA2QxsysWLF48/fvz4gri4OJHH45FB4DBjgAc8fiaP+4SEhBAGETab7aTT6dzWvn37hSqV6pcDBw5A2NE3owqKMWDAgJT8/Pz+wWDw4bi4uGu1Wq0Gz6C99/Q8zM5RN3gBn7VQBBwOxw9+v/8+k8n072gcAKmFJk6c2Oqtt976KiMjoz2WMSjTXcT6ER4YWa3WUzfccMON+fn5jR4hr2F6Fj+lsQiMGDFC//7777+CmBRYT6fIgxQJEf0+Li4uePTo0Z+6du167/fff3+ITe+N1Vr1+1wW9Prl21TvLu7Vq1fSwYMHf9BoNGnkmV5zGxdEsLy8vHDMmDF3LVu2LOq1ZVQYg4YPPvjgOYPB8KBarU50OBwSmi3QLB1CSOKOa5A2ym63u/x+/w8ej2ezRCLZJ5FIjovFYvvgwYMdEyZMCBYUFEjmz58vnjFjRty8efPSA4HAlaFQqGMoFBobCoUUqampcoS4rXlv2ndPAV/IOdBsNhcOGDBg3BdffJFfm0Zq06aN8syZM08nJSU9FQwG8bzwzJy2odHe8rN/M91zzz1zly1bxrOh2gDmcy+IwIABA9rt3r37y4SEhJYqlSq8fZQyH6LvR3ZhuJHSeO3atU/k5OR4L+hBfFGTJsCC3qSbp94Kh0QPmP2+qtfrJysUinBCc0oUQgEq3G63x2KxvFhQUDC3th6yEyZMMLz99tuPpqSkPAXPe4h6Ta96zBrod3IUg1kce8Qj+cmrLRbLr4IgYE94dcSxDK7iErlcrvX7/Wl6vR5BYgSDwRB2BkIsdDogsDgo8UkkVGbQ7/cHKioqzIMGDZq0YcOGTbXd761UKtu43e617dq16+F2u8NOheSfQPWwWq2n5XL53YMGDdqTm5sb5NlQvfVjvnGEAHxHcnJyENzpBb1eb6QYB+SzEgkxHCwvLz+jVqv/ZLFYDjO82CPAgh57bRptjdD2A+Lj49+Jj49vCQGEMP2W1Ok3IcTe8RMnTqzat2/f5KuvvrrW69uRnOlPxMfHP46ZOgYN5GFOwTDwHFq7x0AiKSnpnGkeAo8D10CsYdrGQXHoKXwqWRhq5jVHXXBEBgcQ/YDVarUjzeTgwYOf3LhxI3KSR2XSrwnUaDT2LCsrez81NbUlnocXJg5KSANnuNOnT39oNBofPH36tOVCnhFtA17IeVjz/+mnn2Rms1mLzHtOpzOg0WgctR2wXcizY+UaOJ+azeZQbZwoG6LuS5cu1T/88MNvpKWlDVUoFHJ8rrCEViOYUQhLaWfOnFmUmZk54+jRo3XmjNoQ9eNnnJ8AC/r5GcXkGZdffrnmyJEja/V6/UCpVCrHh562utCaM9abT548ue6nn36adMUVV9gvBMT06dPj5s+fP/xs/PSXjUZjUs0ZLYSYoqaR+Z3indeMuAaTNsoCj3mUk/Z4U9jUmuUij/OIF3v4Xzjf5/P5LRbLp4MHD561cePGny9UaKVSaZZEIllrNBpTKdkNBg+0jo7nWa3WIrVa/cSAAQM+yMvLa1KxtOGd/+mnn+aEQqHOiA2ANPZ+v3/vww8//N7SpUtPXkgbX+g1EYdCnSAILTFui8Qd/21EWbsjoFAoqj0ej61Nmzb2wsJCCFWtB2vne6TJZErdsGFDrz179nRRq9XlTqdzqyAIR853XUP+v1OnTteWlJTsUiqV4BlmSYNa/KxUKgNFRUXHe/XqNXzHjh21WkpryHrwsy6MAAv6hXFr1lc99dRTbRYuXLhIqVTeqtFoxHAeQ7Y2ymMOAYwkLQmePHlyyfHjx59s27ZtrfKl1wRkMpmk7733Xo9ff/11WnJy8v/H3nfAN1mt/2fv2XSmE5kyVAQHcvUWRBG9IsPiYqsgIFxRkQuIRGWKoqKCIEtFgSJblKWAUvQiGxzs1ZU2XWmSZufPN+bhn9sfdI+0Pe/n00/a9B3nPOe853ue9X0eUSqVImi3AGhabAjQ8TeAmkhxyOeN+wV/R9oxPoMjzHFPbAZIK3G73Q6TyWSMi4tLvfPOO99Zu3ZthTjqbzTAbdu2bffXX3+t0uv1HfBcIs4hFwI2FFKp1INCNzab7dX4+PhNFy9erLLsamqiderUSfjnn3/25HA4n6lUqnC1Wi2ArNDu/Px8J5/PP/HCCy88P2vWrKNV3exUsq1CtVrdx+FwTODxeDcFBUH616RgDgOqIIjvyRJCMRGBc1GW1mu325Hvf5zP5++PjIw8yufzT8bFxWX+8ssv1aofgI3HkCFDblu9evXnYrE4ic/nS5xOp5vD4cC18pZGo1kbCmMMWQSsYnP1ev0o8L3TxpaKAkF+JSUlyC6Zd/Lkyant27dnvvRKTtxQPp0BeiiPTi20rUePHuqff/55LY/HewDc7cH84mT+xid8zpmZmfklJSUgpPiGy+X6c82qc9xzzz2R+/fvf1EsFj8ll8ubIwqeqFJxX/LdUz13Kg1JGw0ANfmr0T58D3M8NGUAeIB1zd9EfMfn821ms3mXRqOZt2fPnl9qYvFCRPE333yzLDEx8TGLxeJPVwP4wIJAufb4DgCTnZ2dJZPJXi0oKFhdHbnV0LV3cDic5YmJia1dLpcfzOHegDwhS6vV6jUajZsNBsMQg8FgrqFn3ug2fA6Hc7dEIlkLZkEiNAr+pAsBQJAvNnm0gaIASyIHwrjjPJxD5zkcDntRURGIen677777lnfv3v0EYi8rk81Abdi/f3/YPffc81lUVFRfmUzGxWYiAJAes9l8pXXr1n0OHDhQodoHtSxXuv1dAoHg86SkpFYOh4NL1RSJJRGWGaPReGb69On3T5w4sd4qINaRLJrUYxigN6nh5kTxeLz5CoVigFar9S/mRDoTACG/6Rjf5+fn+5BD/eqrr46YM2fO/482q6a8UlNTRTNmzEg6derU0zwe7xmZTKaXoR6kROLfXAT7wwNFJvyLNRYlMr3jk6rK4RNBcQAoKiOZlZWVw+Fwjrdu3XrB0KFDf37llVdq0pcNPvguYrH4a7lcDlPxtQIrRF5DwIR2Z2ZmZsjl8pc+/fTTzfUYWcwVi8XvabXacTwej08bHwqChNw0Gg2qzdlbtmw55NixY6nVHOYyL0f9gXXr1r2l1+sneDweXrA2Hvw7ce7ThonIe4i2mNwyBOxUkwCfmE+BeA2QquQ6nc5PsaFJTk7O3L17t6cyVojWrVt3vnTp0jqNRpOAtiC2g1LC8FlYWDjS6XR+Vpl71qZ8582bJ3355ZcnqVSq11Ga1263c/GeUxEisMdhzCMjI4f8+eefX9ZmW9i961YCDNDrVt719rSUlJSwtWvXrlEqlffrdDouosmxMAFEAeJYPAkk8Z3FYkkbN27c4NmzZyPSvMYPmOH5fH7ie++917uoqKgbj8frHhYWJkcbsAgRIQ3aQqZ2Ctgj8zwBO7RxHCUlJUdKSkoOJyYmrlOr1YeOHTuWWxuLrMFg4L333nuDfT7fzLCwsBgsjmg3QJHcBURgA9CBFme321+z2WxraqM95Q1Oq1atYq9cufKbTqfztxXAGFyPnSiCsQHJyMjYPGHChIHvvPNOlWImymsL/v/zzz9roTU3a9bsMQKZYEsNgTrGGW1Dm/F/ajf9nyK5gwviyHhXyAAAIABJREFU0IYwQF7kB3VQ7CKGwmg07n366affaNmy5YHKaOoikaiPTCZbo9FoRADwgFvFv/nEc7Kzs9+4WsQQtcdr3G9fEXle75xbb7211aVLl46oVCppMHkU2o4DsszJyfl28uTJTxkMhr8rurCjwUuAAXqDH8IKdUDN4/E+1ul0z6hUKi4qqoHRDC83FkxEkENjBzAGXvi9r7322qiJEyf+WaG7V+MkRAzv3btXs379+ptdLleHU6dOdRYKhfchx9vtdotFIpFIKBSCGx7mbV/Ah+r0+XxOsVjs8Pl8KCCzrXnz5sdatWp1dNKkSRmdOnUqqW3gRD56fn5+X4fD8W5iYqIeoAMAwicAB5ukIBMnFv0MsVg8uLCwcE9NuC8qKvJFixYJR40a9aJUKn0vPDycS/nJZEUIlG31gxM2UQUFBUaFQjHIaDTuqi0ZHj9+XHvLLbfA/P8/gE51BdA32rSRG4Yq4+F/VL2Ocv4pRZFM8vgbQEumZqpD73Q6fUVFRahoN0ylUh2qaMCiTqfr43a71yDQjDYZiDvBxjM/Px+b3zeuujGm15a8KjrWweeBC2Lt2rXLoqKiBsFNgPZCLhSjgvcoOzv7ol6vT7ly5UqdVT+sSl/YNRWXAAP0isuqoZ6JIiApQqHwo9jY2AjQsRLnMwCcCFEIjCwWyy8vvfTSoLlz556rjw7Pnz9ffOnSJaVIJAoXi8WRy5cv1126dEmNdVwikbjtdru7Y8eOud27dzcJBAKjVCrNnzZtmrU+FlNsRnr37j3QZrNNj4mJiaVKdsGpeOTfFQgESAHcNWrUqMELFizIrivZpqSkNFu/fv3q6OjoOzHWsMxgE0c+50B+8jVqXMyDrKys5TNnzhz/n//8p8ZcLcH9hYberVu35XFxcY9BZhSHULrsL206yDJD9yArCPpB/yPqYsie0i+DUyOxycKPUql0pqennxo+fPjAhQsXHq/IOCiVyj5XCYzWqFQqfzAn2gvrFlxCeEZWVtbUq0rvjFDS0AP9GiAUCj/W6/XhTqfTv9ZTECfmJQoDmUymGQcPHpzL0hYrMhNC/xwG6KE/RlVuIaJz27VrJ/zjjz8WxMXFDUeFL8pLDWZQQ+603W4Ht3rasGHDXnjvvfegmYeM+RDc6UFCQKpVyLTNYDDIPvroo8ddLtcssO4F3BZ+kh4sngGTOwf8+GazucDj8Qw0m83fVXlQK3FhIC1sVFhY2HsikUhCNLW0eSNXC24J/z/ai3ZeuXIlKyEhoc+FCxcOVOJxFT4VGvqtt966PCoq6jGqI4+LiWgI0epOpzMTlQGJiphAH75g/O5wOBDZjgA1BFaCbAgWHWV0dLQY4EX+dIA+5WOjvwETP2iNl7/77rujx40bV24uNjR0l8u1Jjw8XBQItvRbsygws6CgYOrViPIZoTQvIc/o6OikoqKi5Wq1OpliZTD2OAIWGRQQ2vLwww8P3bp1Kwic2NHAJcAAvYEPYHnN79Kli/Tw4cObNRpND5xLkeNUdSyQNuYtLCz873PPPfd0Xl7elYqaIst7dhP5P7dTp06Co0ePorIbcu0jACiQL8kYvnViwCsoKHjBbrcvrovFv1evXqoffvjhe61W28Xr9SIw7pqPnwLMaIzIjx5wHQDw3pw8efIsg8FQ42lNAPTbb799eUJCwmMARvJ3k/ZotVrzi4uLb+dwOKgM5uvVqxfnrrvu4uTlwbvC4SA7w2azIbCLq1AohF6vV37p0qWYDRs2/MPhcNwvFov/ERsbK3M6nf4yvgAvgHkQ0Qo4CUo6duw4KC0tDSWCy8zgkMlkfUQi0Rq5XO4nawnUOvB/wpQNQPd6vSGnocOCNGrUqMlXSXCmIT0VFgXKECC+hry8vNzWrVv3PHbs2JEm8r426m4yQG/Uw8vhANAPHDiwJTIy8n7KRQ3WXvA7qjGVlJRsSkpKGnfu3LnMAMFHI5dMjXUP7xD/as7z40qlciGfz9dAG6JUK2KSI5Ow1Wp93mazLamxp9/4Rtz777///v37929TqVR+YCMfaiCYy1FYWGjR6XRaLpfLo7Kvgch3sN398eKLL/b+4IMPajwokjR0ADqRCwFoAO7Y/GRkZOQLhcLWxcXFQPAKW2NgyVmxYkXkyy+/3P1qnIghKSmpRSD2wi8lClQMcJx709PTN3799dcjn3766TIr7cHkzuVy1ygUCj+fMLlRoO0CJAsLC9/wer0hFRRH02LQoEHt169f/1/UObBarQhE9W9sAkyQYGVENssQq9XKot3r4KWs7UcwQK9tCdfz/UEocujQocVJSUlDsSunFB/4AGFmxXdxcXHIQYaW/o1QKJxst9svYd2q56Y3hMfj/cEi31+hUHyoUqnCYDkm0hNocERTi864XC6zxWJ50mazfV/bnVu0aJF65MiRn0ZGRj6JzQTaQpkNeHZmZuZuDofzCY/Hg6asQGoTRY8HwN+SlZU1JTU19ZOapjgNBnQ8C2ZwbDbwfIBNSUlJ/gsvvND6vffeqxSgB8t0+PDhnZctW7YsNja2PVwPlMFB1MMulwtuJiM4EUwmU5kFeioI6G/X9phW5f4pKSnSTZs27ZPJZLdT4CtcBZijpLEbjcalH3zwwZiKuB+q0gZ2Td1JgAF63cm6vp4E8+8gAI5arVbbbDYuWOFocaeoV5BNoOCZ0Wjc7vV6x2PNr4x2VF+dq+fngiCln0aj+UAsFkdxuVw+5UYHp2EBRJD7e/bs2R/nz58/dNy4cbVO5tGuXbtuf/3117KkpKQk5OgHR9wDzGw227NCoXCD3W7fpVAobhcKhX7CFPxgs+dyuVDIY2+vXr0Gbt68GXOhxo5gQKfUQ7o5fPjnz5/P//e//w1Ar3CN+tKNg7au0WiSi4qKPk9MTIyBn50oegHu2DjI5XL4kP991Yr/UVmdKwvQcc+CggJo6CEJ6OiXVCqdrdPpXuPz+f4sBwJ0yg7Iyck5+vLLL/eYNWvW3z4NdjRYCTBAb7BDV6mGhyNPNjo6eqhAIAAdpJ/Mg0zwWNyQguN0OhGEhIV809WSpRO2bNlyoaJPgb/ujz/+CD906FDcsmXLJEuWLCn0eDzZI0eOrPKiXNFnV/Y8pHK5XC79vHnzIs6fPy8eNmxYwYULF0A4UlQJ3zY0c4D5ApVKpXK5XPzSdLXQzimjIDMz09KmTZsnT5w4gQpvtWr9+O6778QPP/zwfARC+nw+AUzZ2LhRTXqLxXJWr9ffe/HixWwUkQlo6v7KcUH8+P5a9RwOZ0heXl6NmmNLm9zJ3E8panl5efl9+/ZtvWrVqmrNHYzz22+/Pb2wsPA1bGKpABHGhLI7jEbj1/fee++QPXv2gMr1ukcjAPQBYrF4qVQqVcDkjv7D94+NGzagmZmZV3w+3+NOp/O3Ssz/yr527Pw6kAAD9DoQcig8okuXLrG//fbb4rCwsAe5XK6AguMoyphY4wIkHCWFhYXfdujQ4aXffvut3BSr8ePHS99///2xAdNzOKhFvV4v+LMLlUrltE8//TQtJSXFVttAVp6cDx48KOzfv3/cpUuXnhaLxf1cLpfG5/PxZTKZzWq1nujYseMnLVq0SKtAUCCPz+f3k8lk76vVaj20wQD3vd/EHtD+/M0BSF6+fNkRERHx1u7du9+tCfrZ8vqZnJzc5siRI3vkcnkkzM200UAbeTyeJzc3d85zzz1nWLRokTsmJubm7Ozs1TBNI2Ic7aVoeCz6TqczbezYsY/UJFtgaZM75YxDc8TvBQUF+WPGjKmWhk4yatOmzYPnz5//LiIiAtYUvwUCIEa+e5vNdjw5OfnO77///obR7g0d0GfMmNF+xowZq3U6XTsqhhSYC34xZWZmFgoEgpf69OmzsgJzv7zpx/5fjxJggF6Pwq/LR2Nh79y5c/zRo0ffiIiIGBYg7uBBIyMOckptEYvF3pKSEp/FYlnbs2fP1zp27JhxI2atQYMGNfvyyy8nJyQkDL9aqIJH2iB8tvDRWSwWj91u/4nD4XwzaNCgzZ999llGXWsBc+fOlU+ePLmdz+frzePxnkZNc/CYg0ELWqvFYkEqHGIKSsxm82gOh7MGdPA3GB9o5v+SSCTLdTqdHBsCnEfWDmI0AzAiRqGoqKioU6dOrw8ePPiz/Px8V2UYyqoyP6CVjhw5curVqlpTIyMjr/nwyQpjNBpP33LLLU/GxcUdDyzeCg6H83pUVNR4oVAownygjQi02rNnzxYkJyc/88MPP2yrqXErDeiQPdwCmDMIijt16lT+888/33rx4sXV0tDRj3HjxiUsX758i0aj6QBec0olBKDhyM3NLXa73UkoktdYNfTvvvsu4uGHH/68ZcuWDyLyH3OBaiAQSU9WVtZ7v/766ySWj16Vty50rmGAHjpjUSctuffee2N++eWXpVqt9gG5XC4gEys0dKLNREPgyywsLHRYLJave/XqNen222/PDQaj1NRUPhjePv300w8jIiL6+Xw+Ka4HCGBxpoUC2hBy3C0Wi7W4uPiPq7mxK9q3b79n586dZ68CibumQKK08EDPevr0aXVxcfEte/fuHWY2m7vodLpmIpFIEGAk8y/u6D82IQGXA6qkGa/ShL7u8XhWBMcQBHK6kQ/fRygUzouLi4tzuVz+ADiqAEYpTbSZKSkp8chksv+kpKR8NH/+fGdt9TW4761bt2526tSpDTfddNOtVKwEGnqABQ6bjMVdu3Z9NS0tDXSfiCDn9uzZ8w6kb4WFhelsNhsf8qG0NoFAAI1+8bfffjuhZ8+e1pqYpMGATsVUqIZAIOsif/DgwTUC6KdOnQpv06ZNqlar7YbNAnzIODDeeHZRUZGlsLCwJYfDuaElqqFr6KmpqdKnnnpqeURERIpUKuWRHx2bT3Kz5ObmLtm3b9+4e+65p1qV6WpifrB7VF0CDNCrLrsGeyXM7//9739nRkZGDoRWTfzexMyFhY7SrWCiy8/PT01JSXnV4/FktmvXzjdt2jTf1QUicf369TPUavVTgQhlv2kXiwT+Js2ftH9i9UIuMc6xWCwbuFzuf6OionZ9+OGHR6sbSR0AXN/KlStVY8eO/afFYunucrnAW98e1HhUjIYiqSl4DZ9UfhWLG0qfQpO2Wq2jPR7PqiBNXcTn8/soFIrPFAqFAmZ2WhBJO8eEQD+xYFqtVmt8fPykZ555ZtG0adNcdQHm2GQ9/fTTLysUijcVCoUUGwz0iUrUgozlpptu6nrkyJFfgifv0KFDJV9++eVClUo1RCQScYnpjjYqFoslA+OclZX1c01M+htp6Nh0QH4mkyn/6aefrhFAX7ZsWcSzzz6bmpSUlExAhjmAeY1NhNFotNjt9ps5HM4NAxUbOqBjzJo3b/58Tk7OJ1qtFnn7/neQNqOYH1lZWd+3bNly0F9//cUC42piktfTPRig15Pg6/uxXbt21R84cOALrVZ7f3ApUjIZY/GDCR6LOmqK5+TkfHX33XdPevDBB02nTp2KWLVq1eyYmJgnEERL5jv0Cfci6s1Avq9/8SDmNMqFBq82NHdo7fHx8Z+sWrVqaTXNfdyuXbvG/Prrr6/zeLz+Op0uAmQq6ANZHij4Cp9EM0rMWcE84GAoKy4uNlqt1kkej+fzQK3u/lKpdF5MTIze7XbzKaiIUq5wH2IRy8vL88lksikHDhyY17Jly3KZyGpqLiQnJ2vS0tLW6vX6HuQjJrIWyN9sNv/cuXPnR9LS0v5P4RWdTtfX7XanKpVKfxAdNjpE+IK+FRUVzbhqcZhaExuT0ho6AQvGIACy+YMGDaoRQIfF4syZM5siIyM7ED88jRmeazabC61WKzT0G5r3NRqNn/oVxDIYK5rL+L0hRLmjncOHD++Rmpq6RavVSgjMiTYXm6gLFy4cbdu27WN//PHH5Zqaj+w+dS8BBuh1L/OQeSLM7wcPHpwjl8tRnxzmY79PHS88TJLQpimXGn9fuHBhvVAonCsSiV6SyWQpYrEYWvm1HF8i3KCFAosd1QkPBk4spGTWxfeFhYU+qVQ61Gg0fllVwBgxYoT6iy+++Co8PPwBh8MhlEql/nZhUwHwpWIpeDb1KThPnACMKnjJ5XLPmTNn3G63exRiqVQq1SIU5/B6vTwi5aDAIrgYSLvMzs62JCYmThkzZsyisWPH1omZnSZUhw4d+mRnZ68P5Fr7322AT8AKYcnJyUGK1vLrpSO+++674RMnTlwRHh7+CK7BRggxEOgXjuzsbOODDz54z9atW6tNNBMM6ERDS5s+RF5nZmbmDxs2rEYAPSkp6SFQ7aI/2ODRHCWed6PRuH/s2LHdP/rooxtuvBoDoD/77LPt16xZ81+tVivD+BJXAn3abLbc+Pj4B37//fdQquseMmtlQ2kIA/SGMlK11E6Y33/99delkZGRDwgEAr8ZmbQ6Su3BdwAFm83mNJlM5yMiIuIlEokMLFw4Fws/FmIsDjhI28V3AFOANy0iOD+YRISiwwsLCw+99tprjxsMhotV6WqbNm2GnD59elFkZKQQ+VdUjINcAMSpDoAKbgv5EIlUBe0j14FWq3VnZGQUIjpfLpdHCAQCLhW0QR+o30TWk5GRwYmJiZm8Z8+eOtXMIa9BgwbJV61atSIhIaG/1Wr1jwvVE0cA4O+///7bqFGjnly4cOGNAFl4NeB5hE6ne0ckEsnoWhp7LpfrzMrKmvPdd9/NePjhh6tldQgGdMgQsoQJHBUAsQmDyb0motxRcWzdunUocfsaNmHkCqKNDp7t8XiWFBcXjyhrI9kYAP25556LW7NmzZ8ajQbuomvvKm14nU6nu0WLFslHjx5Nq8r7x64JDQkwQA+NcajXVjzwwAP6vXv3vhMeHv6ESCTiUxEXigQmPzMVt0AVF4A5LZDQfnAAvLEo48BiSZo+1bOGRoyDapzjbywo0HBtNluxw+EY53Q6v6hsettVNrOIAQMGrGzevPkDFovF7wOm0rDkR6bNBnGWk9k02A9OrgP0Fy4HBPh5vV5016/dAeTIr0xAR/Wlc3NzC9u0afPaypUrV1TTdVClucDn83vJZLJler0+GqRBGBNym+Tm5nL0ev2IOXPmLCsrVmHChAnR77///o7o6Gi/eZoi3tEgyK+oqOiXGTNmPDNhwoQK8xNcrzPBgE6c4lRnHJtAAHpJSUkbBKFXSRgcDgcMiSdOnHiYx+N9Gh4eHgGegGD+esxlm80GdsQXHQ7HwrKe0xgAffTo0YoVK1ac12g0ERhbivvAGCMA1mQyIcPgX5cuXdpaVZmz6+pfAgzQ638MQqIF3bt3j/3xxx8/0+v1DwU0bH9KF6UTYcENjmIPBjfih8Z3QcF0XmwMoNWShk5c2sFlMsn8zuPxvJmZme/u3r17Srdu3W5I8nE9YW3fvr1Zz549VyUmJt6F+9EGAgBNHOFoF35HWwL51abi4uKfZTLZXTKZLNrtdvOgvVOwHGmoeB61n9wG5FumIh1Go5ETERHxnx07drxfF3nmpWWAoLYvvvjivbi4uBdsNpvfykJBiGh7cXFxUXJy8m0bN24s0/qBQD+dTjdNJBK9ESw3PA9/I62Pz+ePzsvLQwZAlY/SQXEE5ii6Ahlfvnw53+VyVQvQVSrVXXa7fZlWq20tlUr55Eoi7RxzIycn54xCoXjSZDIdbuyAHqCA/VWj0dxC1hv0meIW8E7Exsb2P3bs2PoqDyy7sN4lwAC93ocgdBqQnJwcl5aWNken06XI5XJhUVGR30wJgABIQmOlmt9YhLFIQiOHGRpgjd+xAQAomkymP5xO57tcLneoXC6PlUqliTwez58yRgsKBauRn/3ChQsfHTx48JXKarjffPNNyyFDhqyJiIjoSPW1A6lp/mdBUw1sNIrhMpDL5VskEsnKF1988cpXX33V5+zZs7NatGiRgD7CshCIdvdbEnAd+eIBNqRR4r6BPPPipKSkN3bu3LmwLgPggmdNq1atbr18+fKPMTExYeTuwJgEAvVA8zrf4XC8VJGZdu+9996yf//+LUlJSQlUqQyLPcYIf5eUlOwbMWLEox988AEqoVXpuF5QHOYZnoM5lpOTk2+329v4fD5TZWMqWrRoEZGenv6Az+d7RyKR6BHnQRs5jB3FBIAfobCwcPHGjRtfffTRR22NHdBHjBghXLZs2S6VSnUfBaZSn8kiVVBQ8AyHw/m6SoPKLgoJCTBAD4lhCJ1G3HXXXXFHjhxZGB4e/i+86FRRinifaZGnCHjKOSe/Mz4DPtv/cjicAbNnzy7aunVr659//rmfWCx+PCoqqnmgnvW1MpToPe6fnZ39yZEjR16urJbbt2/fVhs2bFjTvHnz2/Lz8/0gTIF5uLfD4bCVlJRsVyqV2956661dUqk0c9iwYSgAz/3999+F/fr1e+r06dPIp1dTcByle+GTKFzJVInv0Af0PTEx8bXNmzfPry8wNxgMgtmzZ0+6GtT4FuWbU9Q4ZGo0GjNKSkqe5XA42ysyy1599VX5+++//1FYWNjQQHS/33xPPm5Q2MbExAw4e/ZslYlmSmvotLGDfLFxyM3NBclLB5vNhtzwG9LkgmsgMzMTleQkVqs1cs2aNbdyOJxnJBJJsk6nU/N4PH9OPc1NbNgA6LAGmc3m4g4dOty/b9++Q+XJpTGY3BFPsGHDho0qlepfwYAeXEY5Ly9viMvl+qI8ebD/h64EGKCH7tjUW8vuu++++LS0NPjU+yK1mszQ5FPFokgpWpQKRBHfFL2enZ194N133x2wd+/e9LVr14LARCYSiRaFh4c/TYCI+waC7fygcenSpU9OnjxZaUBXKpVtiouLVycmJt5KOcYUFBfYKGRMmDAhpWPHjgeu50MGu9oHH3zw5NmzZ2fExMTEBzYB/k0BBdURqAdMz9gkFEdERLz5448/flxfYI52jh49usWCBQs2JCQktIOLo3QZ1IsXL6796quvXnjmmWcKKjihuL179773p59+StVoNFFkfQniE0Bp1bXvvvvuyPHjx1dJSy+toZM/lyLy7Xa7w2QybRGJRFaAvVAo9AF4Atzjfo55bMaKi4sRAKlxOp0tJBJJlM/nE0VFRSGgwy8HOohfIUCBCxbEooKCgrkpKSnvVITqtBEB+nqVStWbLGIUCErvo9FoxCYOaZrsaKASYIDeQAeutpsdML+/q9VqB4BsBIsuRaRTnnLQAnyt2AW+Q4rbmTNnfl21atWAp5566kpA0xPzeLxFcXFxg4lPG/chfy+A/eLFiwvPnDkzvrIAqVAo2losllWtWrW6BVozmcohI2wU0tPTr7z11lt9J02aBF/pdetrnzx5UvTEE088ee7cuY8iIyNVBOp0D5ji0TfEFVy5csVx0003/ef777+vNzM72pWcnCzYs2fPmKioqBk8Hg80tP42AsCwkcnPz3e3bt26z8GDB7+rpOlazuVyUyMjIx/G4h8cWIj7Wq3W7JKSkmfsdvuPVZmHpYuzYF7RXMInNo6UTkXpZZQqSL5wisPAeRiT4I0lxT/gGhxwuQTOAZh78/LyUkePHv2fBQsWYG6WezQGYhlo6GvXrt0UHR39CDocnJOPDTrem8LCQrybNVqIp1zhshNqVAIM0GtUnI3rZnq9Ph6FPHQ63WNCoRD5qyCDAUj6QRHc2P7Qbw7H76ummtPwg545c+a/qampAwYMGEBEFRIej7c4Li5uEOUcU044+XsLCgoWxsTEvHzx4sUb8ajfSMBtlUrlKp1Od0tBQYHfrEoR+NhcnDt3Lt1gMPR9/fXXD5Y1Qije0rt378GZmZlTEhMTmxHJDu6JPgEgLl68aGzRosWsdevWLaysa6CmZ0enTp1ijh07lhoeHt4VazS5GUjjNZlMR3v06PHP77//3lzZZ0ul0gESiWSpTCZDeiKPYinwDPD8+3y+Rd98883YygYwoh3X86Hje4p7oPlBoEMATRtBKixEBDFUpY3Ow6aAzsG9AOYejwckRna327152LBhL3/88ccVLgkbAPTVCoXCn6ZBqZ2UQx/q5VPRZgD6xo0btysUCj+RFGWu4JPiTAoLCwd6PJ6vKjtX2PmhIwEG6KEzFiHXEpg1H3rooejt27ePl8vlT6pUqrhA0Bk0HbtarUbJUAkWBMrfpkj3ixcvHvnqq6+eeOaZZ84EaeiLExISBmFhxmJMlKTk08vOzl7ocDhexl6hMrXYRSJRW5/Ptyo6OvoWWnCxSQiim02fOHFiX4PBUCag41po6oMHD+5++PDh/0RGRt4Nl0MAKBxms/k3vV4/b9euXd9V1opQ04OLsYmMjBzgdrtXB+qX+8eAzKcAsIKCgrdfeumlTyrzbAQ2Ijht6dKlSH9bFhUVdTvxDRBQYg6YzebcgQMH/uOzzz47XZn7lwZ0iskg8y9lEtA9YR2AlYXmCqXTkWWHsiTwPc4FeJMGSi6iwDMs+fn5C8aOHfvRRx99lFGZ+dUYAB1BcStXrvxJJBLdDXlSaidkg/mDTZFSqXzy9OnTKEzEjgYqAQboDXTg6rLZ+/fvl44cOTJRKBS2dDgcYdnZ2UVCoVCQn58/V6/XJwE8SUvHAosFIycn54+FCxc+MXjw4JPBgH7TTTcNwvlYSCiCHAsKtL6srKwtYrF4AahXw8LCfJTTXlZfMzMz4c9HFP3kmJiYVlS+FIs5adWXL19Of/311ysE6HgW0reWLFkSMX/+/Nu5XK6Gw+G4BAKBcezYsWeGDh2aU9k8+doYq9mzZ6snTZq0IS4urhuBGWm0AQ3Xa7PZCtxutz+COzhuAX/DxArwwxgAwCn6m9j9BAKBT61Wq3w+nxqbB1xD0f7YgBUUFLiv0vdO27dv39zKZiVcr3xqaa08MA5+0zAO4hEgLZ76SuVAic6UeAKCAuzMdrv9WGxs7EcRERFbDx06hOIj13W73GicGgOgp6SkKL799tsjGo2mBcWFUEYI5gEyWuLj4/ucOHFiU23MV3bPupEAA/S6kXOje0q3bt3apaWqZGl8AAAgAElEQVSlrYuJiWkN/zKZ7khLMhqNFx599NEn165de4AAncPhLEYBCABI8AYAQKFWq6FR+s34FFVNdavLEh4WeDoP1wUHhQXui7zm9KlTp5Zrcm8ogxSwnPT84YcfVuj1+igs0BS0R1HdpNFSiiCZoMlXDZlR1De+A8AHiHSugScWeVg5qOQoNmK0YcP9rly58lvv3r2fXL9+faXoYK8H6KU1dIoHID84ATWlDaJ/RE1LACWTybAphLuF63Q6rYWFhT9otdot48aN2zxt2rTcSsYRXJsOjQHQX3jhhcjPP//8bHR0tJIyU4jmGB1FdkhsbGzPv/76a0dDeQ9YO/+vBBigs1lRJQnAv56dnf1tbGzsLbTIYmEFiGLHD8pUt9s9kMPhgHkK8wz+x8WJiYl+DZ00LTwcoAFylqioKL/mTiQ2+J4W+vJAHYsTNHoEQOEeRC+Lz4yMjAr50KskiHq4aPfu3Ypu3bp9kJCQMMTpdApKN4G0WsqbJ0pVCpgDkEMuVOaVUhKpQh6NCQVCkjzxPUWPoxSp2WyGG+Jlh8OxoDJiKB0Uh7ELZuxzOp1el8tl9lP0odxdIKeexhTfIfIdAG23270KhQJlb50SicTpdDp/UygU/73pppsO9unT58/MzMzixYsX/13kvYpHYwiKGzRoUMK6det+j4mJUWBDjY0SZaaADdFut7sSEhJ6HD9+vEYq6lVR1OyyakqAAXo1BdhUL0dlrwMHDmyPioq6EwCMxYHKrhJf+pUrV8ZxOJyPAoAuEYlEizUazUDK9aZ0ItKwKOWMorQpurosGZPPHm0gszLxxQcC+KB9XOncuXOfH3/8sUxGsIYylm3btr3z8uXLG9RqdQz822g3xTAQaNMn5c7j70DlvGtaN0V/k9wxLpAjXCDQ2MhlgQ0AWWAoCp0057y8vEP/+te/kteuXfu32aUCRzCg0yYwuH3FxcXFJSUlYxCgDvO4WCwG1fC1cp8B8zvA3vnaa685hUJhidfrzXc6nflKpdJsMBicFWhGhU9pDIDeqVOn20+dOvVzRESEjDbU5KbAe5OXl3eudevWj548efLPCguGnRhyEmCAHnJD0jAaZDAYZG+++eZXUVFRfYgKFYCBhR6m2kDVrLevalnTAqZOoVqtfuVqVPybarVaBLAO1iQpMjugffnNwcS7XpZESIPHgo+NBO5JCxYB+4ULF85GRUU9CDdAw5DujVtpMBhE06dPfzs8PHxCIKrd/w7TZoaAkeRJIB7I576W1kasaTgPY0HWELqegs1wb4rqpkBG2ogFYiVcMpns8ezs7C0VNWkToCcmJj6Ge5K7AOOHcSwqKsq3Wq0dOByOMUAsUymfd02PcWMAdD6fj+qIX0ZGRorJAkaR7rDgXLx48ed77713wJ49e0Dmw44GKgEG6A104Oq72WAoe+utt95WKpX/wcJOvlmKLAawZ2RkLE9NTX0+QObCHTly5C0rVqzYo9PplF6vFxHy/m7gXArsovrlpF1TahJAByZXAh9ch4WJfKsAAyqUgvsFbwhycnLWTpkyZajBYCiT4rO+ZVqR5ycnJ7f59ddfwXoXK5PJ+PCHUmQ6bWgoHfB6Fo6KuDCC20HnQ86UOYBnhoWF+alvEbx4+vTpnYMGDXr6iy++yKtIH66noRMjHzaCRqMR1K/tUbW1sgFsFXl+Zc8pC9DhxzebzW+43e63K3vfujp/9+7dggceeGCGSqUaLxaL/cn5wRYdvHPnzp375syZM8+2bNmy0imOddUP9pzyJcAAvXwZsTNuIIEOHToMTU9PX061xglcacHIyso62rt3724bN270M4qNHz9e+uGHH86Oiooa6nK5FGKxmIfvyXdLBUHofvTY4KjcQB60fxMQXFWNTP5UUEYul/srwmVlZZm7dOnySFpa2r6GPpBYmLt164Zo/ilCoRC12f2aNerWa7VaxA94i4qKTKA2JUKYoDSw/9FyKwrstDkSiUQKrVarpNgHbJgABBg7o9F4WSQSjXA4HBWilw0GdLLUkA8dgH7p0qV8sVjcxmKxVLnaWk2OdUMH9E8++UQxZsyYLxISEv7l8XiElK9PljW4Vi5cuLDw3LlzLzdr1qyyHBA1KWp2r2pKgAF6NQXYlC9PTk7+x5EjR35C+UWn0/k/vlxoVtDg7r///ps3b958iuQUFRUVaTQaJ0dGRo602+0SiqKGdonFnYJ1CMQpVYpAH4BCZU4pgpu0dvyPSrMGqred7dat25tvvPFGalUIUEJtbOfOndtswoQJa5KSku6AfACqlJ6FwKb8/PzzzZo1ewhBy1f77R8PkUhEgWVVMlt//fXXnLZt23LPnj070Ol0fhAREYE0Nz+1KsA3cPgyMzOXvvHGGyMNBsMNudfp5BuVTyXLQnZ2dv7V/PpqVVurybFr6IDO4XCSZDLZV+Hh4Xd6PB5BMONjoOiOIysra5rP50MxJU9Nyo7dq24lwAC9buXdqJ7WpUuXFseOHfspLCwMwVn+oCUAciCn2B/IdOuttz72448/bgnu+NChQzXbtm17zGKxPMrlcru63W4R/k+pVrgHRVNTCVRsDvA9FZOAhkmc1GR6J9BXKBSXCgsLd3Xt2jV1+vTpRxsDmEM+8fHxw91u90Kv1wsty5/eB5lZrVYEhPucTue8/Pz8ibWRJ3/HHXe0O3z48Ma4uLjmJSUl/nWDatnDOpCTk1PI5/PvNJvNIBIq8ygd5U6+eVyEDYrVas0vKipigF6eICv4/4iIiH/k5eWtio+P11utVh7mDd5Nst7k5eUZBQLBM1ar9YcK3pKdFqISYIAeogPTEJrVo0cPNYp46HS6B8mMF5w7jgU/Nzd34ZdffvnSgAED/k/kMUzIS5YskZ04cUKSlZXFi4qK8l24cIHTu3dvTmRkpF8E8NeWPlatWvV/vr/nnnt87du3J+3Qptfr7RXRFhuCnNHGSZMm6ebNm7dOq9Xehzx0WDQoQhxyNplMWX379u3z9ddfI++/xo9AzfW5YWFhY2QyGRebN2y6iFMdAXH5+fkz3n333enjxo37/5VRrtOSYEDHvxFtjz4QY2DAhx5KgN6Xy+WC+tW/8Qymfm0IPnSpVPpSRETEPGwCaeONTRQsLNgUp6enn5s8eXLPqVOnnqvxicNuWKcSYIBep+JuXA9LSUkRrVu3bk54ePhLWIwpMprKYUITuHjx4n9btGjx+NmzZ9MbV+/rrjcA8FatWj2SlZX1hU6n0/B4PC5VQYPcYSa9cuVK6v79+1+4++67ayWoCW2QSqX3XzXfroiOjo6lXHayjsC0f/ny5SOtWrV66q+//iqTDvZGeeiwupAP3ev1MkCvgSmGErMGg+FzvV4Pnnb/ZgRBlBS7gHlkNpv3TJky5TGDwVArc6cGusFuUUEJMECvoKDYaf9XAljkuVzuc1qt9gMU8aDcZ8pvDRDGZHO53OEOh+N7JsOqSWDWrFnaSZMmLY6Ojoam6K/xTdSniBW4dOlSUdu2bR/9/fff06r2hIpdNXfuXPnUqVOXRkdHPwFND9opABhWlEAMhC8vL+8Nn883o6wUttJBcVRUBpsDxGOYTKZ8s9nMAL1iw1LmWQMHDozZsGHDWblcLpFIJDxo5lRECcCOFFMejzdx9OjR7zYmi1YNiK5B3oIBeoMctpBqdEeVSoUCIa2CiWKIq53H46F+9szk5GTDnj173CHV8gbSGL1e38Nqta6WSqVhf7uZuX5AxwbK7XajUM6PsbGx/U6dOgUillo92rdv/8iFCxc2R0RE8KDlQeujojBoT35+/qEHHnjgoS1btphu1JDSJncwl8Gag40gfoqLi5GHHmqAvkahUPhTvhqSyf2JJ57o9d13320KCwvjO51OHtG9wjWGuBSBQOCJjIzsdfLkyZ21OnHYzetEAgzQ60TMjfch8+fPV40bN+6LqKiox6CRUy1raG5YqLHYZ2dnH+zZs2fP7du35zdeSdROz5DvP2PGjLkymewlyJQCB4NKzzpEItHI9PT0LypK7FKdloIhcO/eveuio6O7E3kNNhdUcc9kMnFuvvnmBw4ePLirLEC/5ZZbVrRo0aI3tPvggir4PS8vL3/AgAFtli9fHhJpaygfbLPZECviTxWknHlYJQCKFoslJPPQV65cqRo4cODy2NjYvlRgh6xo5B4zmUyHhg0b9ujixYuzqjMv2LWhIQEG6KExDg22FampqfwBAwY8Fx4e/ikCmygojqhYiY2qQ4cO9/3www+MJ7qSIz127FjxRx99tDE8PPwh5AvDdx2cumc0Gn+bNm3a0xwO53xdmEwD4z0+Pj5+usvlEgdvMNA+UMbGxcU9/fvvv68qC9A7d+68TKfT9SGGOzK7Y3MAprihQ4e2+uSTTypEVFNJkVb6dLVa/SCfz193Na1LQbz4uAlldPB4vKlXrlyZXukb1/IF99xzz22HDx9eGRYW1q40JTAejXfUZDIty8zMHKvX6xs86VIti7NB3J4BeoMYptBu5IMPPtjsp59+OqJWq9VUJIXoV7FoYDExm81ffPDBB2PGjBlTYc7v0O51nbWOKxQK54eFhY2GrR35/mq12i9Tq9VqDQ8Pny2TyeYcOnSoWgVIKtObBQsW3DR69Oj1KMwD8h4E5gU0Vz/3wL333nvft99+e0MinwsXLkiaNWs2KyYm5kXkRRPToMvlQlAGUuA29u3bF5X6apSTvTJ9DD5XqVS2hsujRYsW7XJzc4VoL1kVkDKo1WqfuHDhwtqq3r+2rrsaPPlmWFjYFJFIxAvEu/jnDTZPAf52U4sWLYYfP378f9JKa6s97L61LwEG6LUv40b/hAcffFC+Y8eOr/V6fW9o5AiWolKm0GJgmjx//vxfHTt2fOLw4cPHG71AariDSqXyUQ6H80VYWJhaqVRyi4uLfQ6Hw2MymYxjxoy5/8MPP0RUeZWIY6rS1OXLl0teeOGFkSqVah6IZmw2Gy+gaXuMRuOvvXr1+hexA17v/tDyBw8e3JXL5a6KjY2NAdgE0ql8RqOxwOVyjeRwOOvqsk9lycFgMEgMBsNEnU73qkqlknA4HAEVvTEajWlTpkx56vXXX79SFVnW1jXz5s2TTpgw4WRMTEyS1+v1MzIGUy3j96ysrFPTpk17hKWr1dYo1P19GaDXvcwb3ROxIAsEgmcjIyPf53K5CmKiQkeJNEQkEnkvXrz4/nfffTfl4YcfLjNPudEJqJodOnnypKhnz569TSbTWI/HE4W4LD6f/2dkZOTsy5cvH6wL33lwFzDenTt3Fhw6dGiMSCR66iqDnAYWXB6Pd/Qq6c0MDofzV1ldxvWLFy8WzJw589709PQ3PR6PDrxCUqk0F3PolVde2VpeLns1RVrpyw0Gg2LmzJkver3ex91utxJTOyws7IRGo3nj3LlzZ+t6DMrZgPBmzpz5lFQqXYmsAVjNiCcClgXEusB1c7X07vT33ntvxrBhwxjda6VnRGhewAA9NMelwbVqyJAhzT///PO1LVu27GC32wVYMIKjn6ERlJSUXLrtttu6/fTTTw2+6ll9DNDSpUv1Xq83PC8vz7dz587Me++9t6Au/OY36mtqaqqoqKgoUiAQhEulUseTTz6ZweFwKpTLDFB/8803kV8f5nA4YqBFWq3WvPz8/Mz67FNZ45qamiq1Wq1REolEW1JS4rBYLOn5+fmWUGvvunXrYvr377+8ZcuWD4KmN7g0LSxo+CkoKLC1adOmx4EDB36pj7nMnlk7EmCAXjtybXJ3TU5Oluzbt2+yRCJ5XavVXltEoB3ABI/qXDk5OaCDnf7aa69Nr+ma1U1O4KzDTALXkQA2Skql8nmFQjGXz+crEeOA06i6WqCcri8nJ2fNc88998LixYuLmCAbjwQYoDeesaz3nnTs2LHtn3/+eTw6OppP0djQDhA0RWU+MzIyztxxxx1P/PLLL0fqvcGsAUwCjUwCffr00WzdujUtJiamtd1u95MQ4SAyogBXfl5BQcEog8GwLtSsC41sOOq8OwzQ61zkjfeByJk2GAzzY2NjR0Ezh2kP0c/kU4c/XSAQOIxG4xd33nnnK2lpabVOhNJ4pc16xiTwvxKYP3++eOLEiaPkcvm8QGqjn4QI7x9+4E+32Wy+7Ozs7+bNmzdw/Pjx/rLG7Gg8EmCA3njGMiR6IhaLH+Dz+ctUKlUcFhHUJ0fqGuWnB9KSClq2bPnEn3/+ydipQmLUWCMaiQQ6cziclS1btmxZXFzMIxIc4shHSiGfz/dpNJq+p06d2tRI+sy6ESQBBuhsOtSoBF599VX5559/Pl8kEg1VKBQ8LCLBua9IZ8vPz3fn5eUd0mg0TxQWFl6q0QawmzEJNEEJoCTx6tWrPw0LC+t3lUtfCAsZ0kVhFcM7B9ZGoVDoyczMRFnhp37++efCUIrMb4JDVitdZoBeK2JtujdNSUnhu93u5rt27drH4/EiQFdK2jk0dgTlwKdus9ls+fn5H7z++utvGwwGljbTdKcM63k1JYBAuBYtWgzOz89fqtPpuNnZ2ShF7C+8gncNnPsajQZBqdnFxcXjfT7fGgbm1RR6iF7OAD1EB6ahNgvlGv/5z3/yunXrNi0+Pn6C1+sVoy8wtYNkBhHv0BqEQqHPYrEUu1yuZydPnryeBec01BFn7a5PCWADvXfv3jtzcnIW6/X6m91uNx+aOWrMg6YWh9vt9kFjt1gs6xcvXjx84MCBFUotrM9+sWdXTQIM0KsmN3ZVORLo06dP8y1btnwVHx/fGYsMtAQAOpX9xKKDyPe8vLzDDodjIIfD+ZMJlUmASaDSEojhcDjrExISOoNGF+8XYlZAHgP65UC6ms9ut2fccccdD+/atetEpZ/ALmgwEmCA3mCGqmE1FKQjI0aMeNjtdn+h1WoVCLeFyZ2KRGChCbDI2Y1G47dJSUkvnzt3LqToMxuWxFlrm5gEwOmvsdlsb8jl8peocA82ykFA7heJx+OxFBUVvffrr7/O6Ny5c51x/jex8QiJ7jJAD4lhaJyN2L17t6BHjx6f6nS6YUKhkHu1WAQXQI4FB8COCHiHwwFzoNNkMn0xderUlw0GAyve0jinA+tVDUoARE5paWkvSKXS1yMiInR4p2AFQ7wK/Ob4GwesYkajceP9998/evv27axEag2OQSjeigF6KI5KI2lToMJTG4FAsFCv1//D6XTyAeIwtWPRgV8PB1JpzGazQygUfrRx48a3//GPf7D89EYyB1g3al4Cbdu2FWVlZfX3er0fisXiMLFYzMdGGfEp2ChTVLtMJnPl5eXhXeo1ceLEgyxOpebHItTuyAA91Eak8bWHz+Fw7lar1dtVKpXU7XbzyNyOhQdmeGgRAPmSkhLL1bJdb3322WcfDhgwICRKZza+4WA9asgSAHnT22+/3U8sFr8nl8v1arWahxr08J3jQDR7bm6u/9NkMuVfBXmDwWD4hIF5Qx71iredAXrFZcXOrKIERowYIVyxYsUbarV6rEAgUKIQB3x9MBFSbWbS1i0Wi0kmk7115513Lt2yZYutio9klzEJNCoJAMhXrlzJz8zMfJDP5y+QSCRRMplMCPIYxKJQsClM7VKp1AfqZYfDsWT27NmTXnzxxbxGJQzWmRtKgAE6mxx1IgGlUqkrLi6ertfrh8pkMgk0cmjqdBD5DD6Li4vNRUVFczp16vTBoUOHGKjXyQixh4SyBLApXrx48RNKpfJdqVQa7vP5+ABxbIThvgpihfPxeDzQK5/o16/fI2vXrs0N5X6xttWsBBig16w82d1uIAH407VabaLD4fhCIpHci6hcaBYwuYN8hmo2Q7OA9p6Xl2e22+0L77rrrnfi4uKK1q5d+7fDnR1MAk1IAsnJyYI9e/YIOBzOo3K5/AOtVhtltVr5cFeRmR3vDr0/XC7XW1RUdEQoFL700EMP/cLemyY0WcD30bS6y3pbnxIAqPfr1+/uDRs2rIiLi2uJ+QeTO0zv0NaxKMGfTiBfWFjoKygo+Nrr9f6Hw+Fkcjgcb322nz2bSaCuJRAbG6szGo1jxGLxKwpwKfN4fo525JkjCA7vC94bvD88Hs9XVFSUHR0d/dSZM2d+BrjXdXvZ8+pXAgzQ61f+Te7pMBX279//vk2bNoF0JsrlcvGQagMyDIp8h9kdIK9UKuELtBcUFHzv9XrfnjJlynEW3NPkpkxT7TC3e/fuCceOHZvucrke0+v1yoKCgmvkTLBk0fsSKI0KMDcJBII3Pvvss88GDBjALFpNcOYwQG+Cgx4CXQaI/1MsFi+NjIxMstvtXIA6DgT1EEkGTIpIaYNGYjabwUM9eeLEiRvmzJlTFAJ9YE1gEqgtCUg4HE53qVQ6SyqVdhCLxX5SJrwP2OxCK8c7QTEocF0VFRUVx8XFvbpp06YV7du3ZxkitTUyIX5fBughPkCNtXm9evUSC4XCHnv27Fmm0+kiA6xxfs0cmgcOWrQo4Af1XEwm05revXt/ePvtt59h2npjnR1Nt1+PPPKIduvWrS+LRKJB0dHRsR6PBznmXGx08V5QRDuAHZtgmNnz8vKsAoFgzvTp0+eOGzfO0XSlx3rOAJ3NgfqUAOZfN5lM5tfUA0Vb/DnpWKwQHAc/IRYyioKHvzAjI+OcWCyet3jx4jWDBw8uYL7C+hxC9uyakIBGo9EUFhYm8/n8iREREXdJpVIu3gPMe2ji+CGedip0BK29oKAgMz4+furGjRtXMs28JkaiYd+DAXrDHr/G0Hohn89/iMvlLo2IiIigAi4Ad2jmiOaF1g4gD4qG92VlZVm8Xu/me+6555MxY8YcYD7DxjAVml4ffD4f76mnnkpITU2dKhQKe8XExERjEysQCLjYyBLxEqqn4W8EwwHoZTKZPTs722S326cmJyev3LNnj7vpSY/1uLQEGKCzORESEhg6dGibr7/+ek5YWFh3kUgkh5mRgBxlIElrB8jTIZFIfFeuXEGk/EKHw5Gampp6cMCAAYwLPiRGlDWiLAls375d/uabbzbbv3//8yqV6gm5XB4J8zmfz+cB0LGRReAbABxzHtYqbHLxHsjlcld6evpvN91000vnzp07xCxUbK6RBBigs7kQEhJAStvjjz/eYvPmzRN0Ot2zXC7Xn55DaW2gsoSWDl+iWq1GbWf/3wE/oruwsDDDarXuufXWW5cnJycfeP/990sCaZm+kOggawSTAIfDSUlJEYnF4mYrV65EKlp3pVJ5MzasLpcLBQm5AHEEhQLUAeLI/oDZHe8CvrdYLPCZ/6TVal82mUyHmVCZBIIlwACdzYeQksDw4cOVy5Yte5bH442NjY29CWZGKjoB8CYNHZ8wz2MBxIKH8wQCAVJ33FardZ9AINgaHx+/bf78+Vfeeecd2+7duz1cLpeBe0iNduNvDDaqv/zyi2TLli2Js2bNuksoFA6TSCRdxGKxQCAQ8CgAFNo3NqjQzKGFA8xpw4p5X1JSAiDPkUqlS8aMGfO+WCwuYEGhjX/+VLaHDNArKzF2fq1LAFrMwYMH787KynqHy+XeFRYW5l/caJGDlk5meHyazWY/oAfINfwgj7KsxcXFJ7hc7kW5XL46ISHhgN1uTz979iyLAq71EWQPAFWry+WKPnPmzK379+9/jMfjddJqtW2EQqEUoI05C40bcxmbU6JvxeYVsSL4G35zYoPLz88/cxX0DXPnzt00YcIEK5Mwk8D1JMAAnc2LkJQANJsePXpEHjly5AWv1ztSIpFEw4ROoI1gIWjmFDREv9PCCO2dIoOzs7MdAoHA4XQ6j/H5/D1isfiU2+0+P2vWrMzY2NiiqKgoh8PhcO3du9fLtJ6QnA4h2SiDwcBr27atWKvVilatWiXftGlTnM1mS+Lz+a3cbncXgUBwp9frVcjlctHVgkM8bEoxX/ED3zjNXUrZJEsTAN7pdPowl4uKigqKi4vXpqSkvJ+amnqaWZlCciqETKMYoIfMULCGXE8CXbp0kf7yyy89BALBcLlc3gcaORZD+BaxEGIRxAGzJLQb1Fsn7Qa/Y3GEloNroPHg8Hq9LpPJlMHn8zM9Hk8un8+3+Hy+U16v97JMJsvr2rVrSevWre1Op7PkKvPW/9BnIljP6/X6f/A7G7XGLwFKp8SnQCCQrVmzRmUymeQcDqeFUCi82efzyT0ej1ooFMYrFAq9SCSSYTOJOYn5ietwYB4SQQxp3th40rzFebgOczUnJweESidtNtu7vXv33rB58+a/Jy87mATKkABbkNj0aAgS4CUnJ6uuXLmSkpmZOUQqlXaRy+U8NBzmdZgo4XckMzwWRvyOhZI0IQTXYXGF2R6/k58SCyq0Ia/XC9+722azecViMbQjn81mQ9TxNb87gpYqIizaZFTk3PLOud4jg+9fwSb9z2Oqc33pvpX3fIp5KH0e/V2WrPC/8u5f3v/Lk295/wcAU+wGNGytVsvNzc1F+V+eTCYTcLlcgUQi8VuOKHiNUi7xHcV6wLROJU4JxIm6FX/jGcjqgKXIZrNdEggEizp16rRm7969GSyKvbxRYv8nCVRogWLiYhIIBQmkpqbyBwwYkCQQCEa63e4n9Hp9vFKp5MIfCY09EPF+jSITCypVbwOIB2tHVJ2KNCgAPX5wDjHU3QhsKgKINQXqoQDoZfWlPEAlC8mN5k9t9K8yc7W8caJNIMA2uMRvwNJzbd6hn0EVz/xNwJyjeYlr8X9sMIntDX0nFxGsR0KhMDsvL++r3r17rx4/fvzRbt26sdzyygwmO5dVW2NzoGFJAL71Q4cOCZYtW5b46aefDvB6vSkqlaqlVquV06KKxZdY5gDyVMEN/6cFHN+R1h5Ureoa6ON/wTnvlZFSMEiVBxiVuW99nEvtvx7wErd4XbTrRhuHupLvdeqO+7uNOYI5RiVMaVOJjSG+g9sH1iAC7mAXEOagxWJxFBYWXnY4HOsSExPX7tq16/eWLVuywM26mFSN8BlMQ2+Eg9pUuoRIYhB4qCsAACAASURBVLPZHL1hw4b+DofjPoVC8QiXyxXFxMT4o4fJ9Em+diyu0NoB+KUBgsCdNCt8YlHG9zjK00RrS+blWQMqawIv3c6KmLXL6lt5cikPcMtrf3nXl/f86o4LzRcANZ4FkCZ+BJobAGa0E9p48FzBteBLQFQ7AB3/hysoPz8fc8thNpsPc7ncjY888sjWTp06nTMYDPbqtpdd37QlwAC9aY9/o+h9amqqaObMmTKfz9fRaDTeZzQaH+dwOJFJSUnhCF6DVo8FFyBPJlAstgBs8nNCEMFaO5lXr6elB4PI9XzB5YFQdYVeGRC7UVsq4sMuvZEJvldF+1h6Q3I92ZWWR/A55cm/vHaUJ6vyricAR5wG5g5Zbuiz9DyhqoGkiVOMBuaa0+ksstlsOR6PZ3+7du2+mjp16smUlJRcLpfLSp1W96Vg1/+9mWRyYBJoTBJAKhHAfNeuXbft27evh0Qiaefz+e5Wq9UaLO5YcJH/Cy2dApUomAn/Jy2MAD4YUMoDx2A5VhQwKyv70qBKJTRxH/pfeSBVEfN1Re9R3nnl9Y+Cyei88jT20puM8twi5QF6edejfQB1IjGiOYRPSouk+YNzAgDuj90IpJ+ZbTbbcYFA8IfD4fhp+vTpP0VERGSPHDny79B3djAJ1KAEGKDXoDDZrUJLAidPnhR99dVX6p07dzY7d+5cC4vFciefz7+bx+NF2+12iVwul8hkMrlEIuHzeDx/zekbAYvv/yONX9ungzQx2gwgT9jP4RnYHJQHGBWVGJ6JNgSefa0NwRuHwDl+YKc2AmBKg2BZGw96AKwaOA9gRtcH9dG/8SkPLIOfG9Q2/yPo/tdrf/DmhEzd12tzRWRXXhupfze6F0AbLhuYzKGVU9wAABumdBx2u91rgTPc4bD7fD6kOlqVSuXeiIiIQxwO54xEIjm7efPmgri4ODvLI6/IqLFzqioBBuhVlRy7rsFJwGAwCDgcjsLtdmu5XK5+yZIlSQUFBW2cTidM82oOh4MVWszn80UCgUDicDjESEmCqRVpbE6nU6hUKtvLZDI+BUJhExAUHW/Py8s763a7iwP+Vbxf+PnbEV/5w/9+BrREH+7J5/O1CoUiCelSMAMDWNAWtBHtyMnJKXI4HGDHQxqef+cRyIe+tguhaGzcz+MBIy732gZALkddHH5LkUikIHIe8gPjXk6n01NQUPCnQCCwYbNCmQNCoRDy8QMeabUE2mRF8Hg8PrRFJpM1UyqVkcFgCsBEX3BuTk5OpkgkyggQsfg3AHTPIHlUaEMR7FpBf2CVEQqFIqlU2kqj0ciIK514CmC98Xq9XqPReMXn82WjDfR8Ho/ndblczqslTks8Ho+Dx+NBBlapVFpYUlJy7Nlnn70cHx+fXlJSktepUycLqwBY+QnPrqieBBigV09+7OoGLAGUrtyzZw/vzTffFHTo0EH0/PPP83fs2MH/+OOPBQBvnU4nLCoq8oNATk6OVyAQJEgkku9jYmJkSJUjjQ2LPsCopKTkfEJCwnP//Oc/T4WHh3O+/vprLjYEXq/3/wC6WCyu8LtXWFjIycrKAiBzZTJZL4/HMycyMlKFVCcEWQEkoUVCY0xPT//J4/H8WyAQmDA0qKut0Wi46AOl5uF3OvAd/Y1nlJSUxCkUiiUqlaotbRYA0rg3nlFUVFTM5/OfMJvNJ9EeXK/X6wGuPtJYEfQFul6bzeb/P46srCy/jOx2O3K4ZwkEgidRZAcHFeABqKItubm5c6VS6Uc4P9AHX2xsLM7zb0oQF5GRkeG/X2UP3OeBBx7QrlixYmXz5s1vwfPIZI7n457FxcXYREyx2+2rUdGvWbNmqBHgVSgUXmxorpYs9YSFhXmcTqd79OjRrvvuu8/dqVMnN9O+Kzsa7PyalkCFF5WafjC7H5NAA5RAG5VKdVClUsnJpA0tFaAKLTYrK+u0QqHoY7FY/qylvqFGdl/UjtdqtZpAla5rDHiI7v/99993KhSKgRaLJacqbUAKoNlsTk1MTLwNAI5YA1gCsIEJgL+5sLDwfg6Hc7Aq9//b4MBfqFKpnqfSoPjEpoGixAsLC1+32+0zg+5f00V1dBKJZFt0dHRn9AuV/KjID9UMyMjIGOX1ehchNKGK/WSXMQnUuQQYoNe5yNkDG6oE+vfv32bnzp0H9Xq9HFozmYGh5QGUCgoKTicmJvY5c+ZMrQA6TNgCgaCvQCBYGh4ergHYYkMBQMIBMMrMzNw5f/78gaNGjaoSoOv1+tYFBQVrFArFrZQBQMx76OPZs2fNTz755P2rV6+uEqAjaPGdd95ZyOPxRsCKQfzmFHiGZ+Xn509xu93BgF6jU2bMmDG6xYsXb0tMTOwMNkHKfICFAb/D8uFwOEY5HI5Pa/TB7GZMArUsAQbotSxgdvvGI4GhQ4e2Wbt27cGYmBg5NDv4ZCnqGcCQm5t7ul27dn1OnjxZK4AOSYpEon4AdLlcrgEAwYdNXOHIs8/KytqxZcuWQT179qwSoLdt27bFmTNnvomIiLiVGPPITx7w0ZtHjhx5//vvv19lQJ89e/ZCmUw2gtqP58AKQJXGjEbjFJvNVmuA/vHHH+vGjx/v19BJdhSHgE/0NycnZxSHw2GA3nhe3ybREwboTWKYWSdrQgIvvvhim+XLlx/UaDSIjPcDEDGFgQ3MZrOdat++fd/Dhw/XGqBLpdJ+TqdzqV6v11DAFlGKqlQqmNx3bN++vVqA/scff3yj1+tvhbaK/qGvcDFgA5OTk2MeMmTI/YsWLaoWoAuFwhFoL5G0wMoBUA+kE04pKiqqVUB/8cUXt7Vq1aozYiQodxxzhOqSFxQUwOTOAL0mXhx2jzqTAAP0OhM1e1BDlwA09PXr1x+Mi4uTm0wmfzAXUX0CCLKysk61atWqz+nTp/+qrb7y+fx+QqFwSUJCgjYvL89PLUo0owgyO3PmTLUAvXnz5i3OnTv3TWJi4q1UmAR9A7jjWQUFBeann366WoD+1ltvLZTL5SPId00bBmxMAoGGUzIyMmoV0KGhx8XFdYbvnEhisGFBX/HDAL22ZjC7b21KgAF6bUqX3btRSQCAvnnz5oNyuVwOTZJMxoFUKI7JZDp188039zlx4kStATqHw+knk8mWqNVqLYRLaXMAXAD6+fPnd2zdurXKGjoAPT09/RudTncr8ZNTWh42L0VFRX4N/eOPP66yhv72228vjIiIGEHUqZSjDvdFAFSnZGVl1SqgQ0Nv0aKF34ceXBGOivgYjUZmcm9Ub2/T6AwD9KYxzqyXNSCBESNGtFm1atXB8PBwP6DjIOpP/F1YWFjrgA4fOo/HWxIZGanFM4M56JFDff78+Z3ffffdwKr60AHoFy5c+CYmJsYP6JSDjY0DNjC5ubnm4cOHVwvQZ82atVAqlY6AiT246h36gh+XyzXFaDTWKqD/+9//9gfFITsBGwnkwaOv+B3fQUNnPvQaeGnYLepUAgzQ61Tc7GENWQIM0BsfoFMOPlXqow1SUVERi3JvyC9rE207A/QmOvCs25WXAAP0xgPo48aN256UlNQJwYw4kKJHke4ww5vNZqahV/4VYVfUswQYoNfzALDHNxwJMEBvPIBOJncilAnQ41JBFRYU13BeS9bSIAkwQGfTgUmgghIIFUAHU1xUVJSGuNOJtY750Cs2kMhDJ0CHNk7ZCtDW4UvHkZWVxTT0iomTnRVCEmCAHkKDwZoS2hJggN44NXRiqaOceGjt+fn5DNBD+3VkrbuOBBigs2nBJFBBCTBAb3yADisHIvjxA2pbgDu+s9vto20228IKTg12GpNASEiAAXpIDANrREOQAAP0xgfo4ORH/j5M78iBB7DDhWE0Gsf4fL6FrIJaQ3gzWRtJAgzQ2VxgEqigBB588ME2v/3220GdTidHAQ8KpMLlAf7vUx06dKhVYhnictfpdBowmgF80A6Yi8HkdunSpZ1bt26tch46uNxPnz69Lioq6hbcM5jPvQbz0D+VSqXP12ce+sSJE7fpdDo/Uxxp5oH68H76WYvFMmrKlCmLDQaDt4LTg53GJFDvEmCAXu9DwBrQUCQgEonaCIXCg5GRkXLkLweTugDQc3NzweVep4AO2RF1KQD34sWLO7dt28YAvYxJhaC4sWPHbmvevLmfKQ6bImyOAOzQ0gHyRqNxLIfDgcnd01DmJ2snkwADdDYHGrwEtm/fLheJRFJEeeOA9lxTx+nTpzkjR47kBmqet5LJZDv0er2M0p2IXQy+15ycnDoHdGjn0CiRR43+Z2Rk7NiwYUOVqV+bioYO6lcAOuYKItvBEIdNGWQJM7vT6ZzYqlWrlTNnzvRg7D0ejw8Mcvi9pg4+n891Op22vXv32pgloKak2rTvwwC9aY9/g+59SkoK/2plsPaXL19+pbi4OAydocpZRFuKhbqGDq7P51PHxsbe7fP5+NDoiOMcz8DzAuVTH6tNLvfSJncAOUAI/YYJG1zu27ZtY4BexqDPnDlTN3369G0xMTGdYWkhvzlkiR8ej+e7fPky+PjTxWKxF2COc4h8hmh/qV58ZeYX8dfjGi6Xy/V6vXlcLnfDbbfdtunQoUOuytyLncskUFoCNbbaMdEyCdS1BPh8fn+JRPK2Wq1uo1arAbjXtFWYTgGyWIirc8CHDFM26p9jAcc9AZ74JM2Yvs/JyTndvn373sePHz9VnWeWdW1pQMdmgp5PGnp0dPSgc+fOVbkeelPwoVO1NXKdUB304I0alcjFJ7k1AkDsN9NjbpS3YQz+//V+t9vtsAZYTCbTS506dfqSgXptvTlN474M0JvGODeqXvp8Pig3SoFAkBYVFdUGGrPX6+WSVg4TKhZg0lzL6jyRstzoHPwfmwJsELCAw8+KsqU6nQ6pTX4wJUA1mUyn27Vr9+ixY8dO15bASwM61WOnjceFCxd2NG/enAF6GQPw+eef64YPH+4vzgIfevCmCHKkaHd8T4GPVEIWYw2Ax0HjX5mxLr0BwDyFGf/06dN/dOvWbcDu3bt/r8z92LlMAsESYIDO5kODlIBIJGovkUiOh4WFcUnLAtgCfLH4BpXirFb/sIDjnhQBTQs8gB4LP3KWyfSKoLhWrVr9648//jhbrYeWcXFpQA9UJ7tmcr948eIOnU43yGg0Mg39BnKcN29e2JQpU7bHxsb6feg4KMAR84b86fik0q4Yd9LiqW57cFBkVccbG4hA3XlXYWHhK3a7/WOWKldVabLrGKCzOdBQJXCPSqVKU6lUfgCng8ygAFkKWKuuhk4aOC38tODTgk5pY7m5uX/cfPPNj544ceJ8bQm1NKDj2eg/2oi0tXPnzu2IjIxkgF7GAPTo0UO9Z88eyOlOOo3Am+IhKB0Q/6f5RWZ3Av3yrDsVmQNUnjYQVDnJ5/O9A9d6Ra5l5zAJlJYAA3Q2JxqkBB555JF79u7dmxYREeGvX42FERo6AB0LMICOFmkKRArOqya6T3xW56A64W6325ednb2lQ4cOzx8/frxK2nFF2gFAD+Zyp00G+hbgct8RHh7OAL0MYY4dO1a8YMGC95RK5WhsCJ1OJxfWFpo3xJEfHMB2o9uVB+q4ByxICFiEeZ9M9vgueGOAeWgymRigV+QlYOfcUAIM0NnkaJASeOyxx/yATixf5AcFwJIflPzbpMGS2RyaLBZXnEfFOKq6YGNBl0gk3vT09CKfz/fvwYMHr168eHGtRSvfCNABCAAnRLk3AkCfbDQaZ9XWxAzEYNwil8s3aTQaPY/HE5ImThtBzCdyp1SnHZiDdB/Mv6KiIv/GE354xHiQlYcBenWkzK69ZmliomASaIgSePzxx+/ZuXNnmkaj4aBKFhZOLMKkZbn/PmyUckTmdwoiI62JUpBuJIPyoph9Pp+Xx+NZ7Hb7bA6H8zmHw/m7wHYtHQB0Ho+3JDIyUgugIA2dAXrlBJ6amsofMGDAYwKBYJJMJmvmdrv5PB6P53Q6/Slq2OiR/7xyd/7fszEfcS+Xy8VVq9USlUololQ5WAVw4DkBQP+Pz+eby0zu1ZF4076WaehNe/wbbO8B6Nu2bUuLjIz0az0E6BSJbjKZfg+AbDFp6gSA6DQW2eC/byQIXHudA+8Nfjx6vd7ev3//sxqN5mJdkIMwQK/ZKTtp0qSIo0ePtt2xY4fa4/EIAuPt92GX4Y7xVaAV/rWV5plIJJI4nc4JMTExt1PcA20ygwCdmdwrIFh2yo0lwACdzY4GKQEA+vbt2/0+dMoRJ20H5syMjIyfPR7PYxwOp6BBdvAGjW4kgL5QKpWOKIPLvVZN7vU0HzRCoXBDQkJCMiLrwW1APnUG6PU0Io3wsQzQG+GgNoUuBZvcqVIWtHNoVfBRZmVl7YuJiXksPT2dAL0iWlXIi44BesgP0Y0aqBIIBBuio6O7UwQ9LERk1mc+9AY7riHVcAboITUcrDEVlQAAfceOHX4fOnjVKXWM8sOzs7P3denSpfe+ffuajIaOKPcGkrbW5DT01157TTlv3ryNcXFx3TFfKYKeAXpF33h2XkUkwAC9IlJi54ScBMjkHh4e7k9boxQ1IgBJT09P69q166MM0Cs3dHVUnKXJAfrSpUuVzz777MbY2Nju5EOHRYncRExDr9w8ZWdfXwIM0NnMaJASIA0dFKzBtckbu4bO5/P7iUSiJRqNRosALoqihvkW1gpQv86YMWPQhAkTqpQLXxrQg/OsEeBlMpnMgwYNun/RokUHqzJxDAYD7+23316oUqlGIH2QaHUptRDuEovFMjk3N7fW0taq0u7qXgNAf+655/yAHswDT6AOObA89OpKmV3PAJ3NgQYpgaYK6BwOp69CoViqVCq10OooCh+AoNVqUQ99x+rVqwf169cv1AH9eZlMhmpj/j5gQwJQRyqXQqGYfP78eQboDfLNZI2uTwkwQK9P6bNnV1kCKSkpXbZv376/qWnoUqm0r8PhWIo8dERKAwgB7PiBhn727Nkd+/btG9S1a9cGA+joAzITKMXLbDZPLi4ubvSATuZ2fAbK77K0tSqvCOxCSIABOpsHDVICTRnQPR7P0tjYWG1BQYE//YkOBMWdPn16R1paWq0C+pAhQ7ovXLjwUFUmTmmTO+5BlLzkLnG73Y0uba20yR0ATnEfDNCrMpPYNdeTAAN0Ni8apASaKqAjbc3tdi9JSEjQAgiD6UNBg3vq1Kkd27dvH9SzZ89a09BrEtDBmgbtnNINXS6Xr6ioaJLVap3TICfmDRodAPRNsbGx3SjvvHRBmJycnMk+n28OY4prTCNft31hgF638mZPqyEJNFFA54pEor58Pn+JXq/Xoi47yFkAEDBbh4WF+bnct27dGuqAvkClUo1EUBwFiKH9VDkvIyNjKofDmePz+dyNpZQoA/QaevHZbcqUAAN0NkEapASaKqDDhw5Al8lkWmi2ZK5GQBn50Ldt29ZgAJ0C+xDUR6VEc3Nzp7jdbmjoIAOinwY5T6nRK1euVA0aNAhR7tfV0DGORqORaegNepTrv/EM0Ot/DFgLqiCBhgDou3fvlly8eDF67NixikCFL6/T6eSJRCKfQqHwWSwWvH9lMthBcw0Ei/n5471eb8+rJtk34uPjlci/B0EJVexqQD70axo6ATlVvUOfrFbrfJfLtSxQ0tQnl8v9cqIoeEyX4N/Lmj44b8CAAbacnJysHTt21GrhnLLawQC9Ci85u6TSEmCAXmmRsQtCQQJ9+/btsnPnzv3gcke1NfgjSdsDEGRkZOzr2rVrvTHF9e3bN3LTpk2juVzuQ1wuVx0IQAWTCM/r9XqJIax0ze3S9bWpgAcVmBEKhSqxWBwtEon4IChBnwGK6D8AHVHuoR4UN2PGjAVKpXIkcs5xUIAY+oi+WK3WPKfTaYK5HX+XFbwbLK/gynil8uetDofj6NX7vMnhcC7Xx/wFoA8cOHBjQkJCN2wycATno6Pt8KF7PB7mQ6+PAWokz2SA3kgGsql1A4D+888/74cPGVod1bEmjRVc7vVF/frUU0+Fb9myZaFcLu8jlUoFpccGbcQCjp9gtrDrjSEFTpFpHZ/BZT3xf9oUIOIdgB7qJvcZM2YsVCgUI9BekgH1gwLGIIsbVLr7HzEFU6gSSAafQNYLkUhkzcjIOCwSiZ4rLi4+Xdfvy40AHX2kTZnJZGIm97oemEb2PAbojWxAm0p3YHL/9ttv90dFRfkBncqn+tU5LtdfnOUf//hHnWvoSMuaM2dOfx6P92lUVFQYotAJgK8H3jcCLdIwgzX462mgVN8doIAgs0uXLoV0UFxKyv9r70zAm6y2vZ856ZCkaTqXtgxlUBFlOFdxpCBeEBDE04qKCCIockBBURHRKBVQGeQgDoifiqJYBhGUQUFwwqOCHI9QB1qL0KZz0jHz8PGPWdxcLtgAbWnfd+V5eNrSN2/2+q3d97/32muvnS3fsGHDKwaD4W7M0IkJ9Vsa6NCg5y+OMA28JfT9xIfuga8UvUBIH5GcqqqqhyQSyeLW/jsJln798OQZOrWZ19Bb2yPC/DwWdGH6VfBWYYa+c+fOvVTLHQKAhyIekJitQ9CvvfbaEXv27KlpTRgdO3bUHD16dEF8fPx0pVIpI0EhkaEBx8mh9dA2hv6OwtGh76drQ8P2CONi2xpm6G152xoEffPmzS9pNJrJyGpHjgAGNeQ/2ESzavjz5CWJU0U7aGZOPEIjGFh+wWdg8IAtclardYPH4xkjkUgCsfzWep1O0OFftBH+LSkp4Rl6azlEoJ/Dgi5QxwrdLDo+FSKG06sodAkBQPa32Wz+6qKLLhrx73//u1UFvX///hHffffdooyMjPvo0BgS8VP5JHTWHfp7+n/YRQJ/KsGizHC8Fyx++eWXrZ9++um46667rvps+kA4tdzPdR/6ggULFhuNxgcovA5Bg5002yabIXZ/NfAhIQ+dmdP/ke00IKIli4aGhp2XX345BnqOs+Fztu85naCHDmDKyspY0M8WML8vQIAFnTtCuyQwduzYK9avX/81kuIw86IEMTzcKSnukksuaXVBHzBggGbPnj2LunbtOhXtIlEKFeXQ2fapQsahDjk55BwaTsZ1JFhBIfM2NDS8vGHDhoduuOEG59k4tqUFPfjMuTM2NvY1tVqtoETG0KppFG4PHayczpZQPqcb+GApAhGM2tpaLM/sGj9+/PA333yzzQg62VZZWclJcWfTafk9JwiwoHNnaJcExowZc8X27du/xoEkJ5+2FswYPi8h98OHD6t79eq1ODExcSraRWv7lKxHIWSaVWLwcaqZOf1faMg5NJRMv6dZrsfj8Vut1oN9+vQZ8+WXX+afrVNbQdAl48eP7/jmm2+uNhqNV2Pv/KlyA2jg0tQaOvjR7BvLG7ieEgfBAPxramoCRXcQeq+urt51++23ny9BR5b7wNAsd9rFgLZaLJY5TqdzIVeKO9vey+9jQec+0C4J0HnoSUlJeBAGHtyhYduGhobPBw8ePGrTpk2tGnIfOnSoetu2bYsvuOCCqRCSQBgsmIlO4ut0OrGNqhoiHBSzE3vRTw7Bn7wtK/Tn4Pf4G/Yolcr92L9tMpm+MZlMfx60fRav1hB07MnPzc3t+Oyzzz7gcDiG+v1+hVwul8pkssDziKIWp1iOOHnPfuC0thDGfoVCEa1SqeIojA+RR/QGr7q6OizP7LzjjjtGtJUZOg3YIPKVlZVz8/LyFuTk5HjPwnX8FibAIXfuA+2TQHZ29lUff/zxl5jhQcgpm5xmxKWlpV8vWLBgxOzZs62taWFmZqa6qKhocUZGRiDkTmJOW5PUarW/tLR0y9///neTXC6HEEu6du3q93q9/0us6OSx07VdoVBgj7ZULpfLfT5fo9frLTGZTOccRiZBT0pK6hXcA36iCXQe+rmsoYfak5eXpzp06FDSypUro0pLS+UqlUrar18//7Bhw8IuHLNgwYLALge8F1u7PR7P6Li4uKcQZoeAUyY9+gWy3Ovq6nbeeeed50XQ77777g9TUlICleIogROCHuwb/rq6urkjR45cuG7dOhb01vyjFdBn8QxdQM4UuimY2X399dfR06ZN611QUDBMrVY/jGIqmAnjwY2ZGEQ0Ojoa27dKdDpdblJS0t5XXnnlt6ysrHMWu3D4kqB36dIlEHLHi9bRg+Fhv8VieSc9PX1SQUGBJzs7W7Ju3TqaUf9l1bhwPv9cr2lNQT9NW6Umkyns55LJZDr5NncZDIbXkCCIwRT6A525fj4Efd++fcoZM2bEFRQUXIeStgkJCd0po58ajv6BvltSUrI5IyPj1auvvvrA22+/Xc6h93PtzeJ7f9h/OOJDwxa3JQKvvvqqcseOHUM/+uijW6Kjo0c6HI4ozM4hkpQUh7AlHo6YSWIWFHyYF9bV1a0fMGDAqt27d//e0g/JadOmqV966aXFaWlpU2mtFDNdPMQx6MBssqqqas3kyZMnrFy5ElunzruIh/oZgv7LL79sSElJafEZekv0r9jY2IlKpXIVDaRojf18zNBNJlPS008/PU4qlY6OjY29jPyPAScGG4gqoW/gZ/RVrPErFIo6u93+pVarfevee+/dZjKZGlqCE99TmARY0IXpV8FYZTKZFB9++GFqUVHRXVKp9D65XG7UaDRYbw2IN174Hg9H/EwPRzwwUUUOs7KIiAj3ERRVT0p6Si6XbywuLra3FCAkxfXo0WNxamrqVKpTTtXQaM91dXX1mt69e0/Yv3//nzVA29ArKOjrk5OTLzk5Ia25Q+4tYXZKSspEv9+Pw2tOlARu7Rk6ojROp/O/jh079lR0dPRlCQkJkRBsvLClkr7HYAP/bDZbQNjBF3kVyCewWq0Wp9O5adSoUQvXr19fIJRT51rC53zP/yHAgs69oU0TyMjI6FRWVva6Uqm8Rq/XSz0ej4y2OFEmNGbjCFniKyVBYXaM7/EAxe9kMpnfbrdby8vLnzk+c3rFZDLZWsJwCHr37t0XI+SONVxqERD58AAAIABJREFUA8SRogclJSVrdu/ePT4rK6tVi5uEY297F/QOHTpMlEgkqzCQg+/xak1BP3jwoCo7O/uOn3/++Ynu3bsnW61WJQaciBDQgTL4SoPN0L6L71EOFwM/tDkqKspfWFj4+ZAhQ+Zu27Ztb0tHl8LpH3xN2ybAgt62/SPq1mVmZnYpKir6Z3x8/MCoqCg1TiejSnC0NYkelHTQB9at6YxwOuwDhWeC28O8Ho+nxul0PrdgwYJl06dPP6u92n/lFAh6165dF3fu3DmQFAdRQZgdD3FsscNeaMzQ24OgU5U7src9zNATExMn+ny+VcitAH9KQGuNkDvWy2+55ZZbS0tLn4mJiUkFv4iICCn6JNihL0Cs6QQ9/B79FgM9qmRHleOCy0jI2vdVVVX9NGDAgIk7duz4QdQPBDa+SQIs6E0i4gvOB4GLL77Y8NNPP60yGAxD9Xp9BGZceGG2A8GGSOMFocaDkcp70kydRJzC3XiYIrSpUql8drvd0rNnz1n19fV5+/btszdnOJNm6LSGTklZCQkJOE0rUG+9rKxsza5du9r8DL09CnqnTp0m1tXVrYJAok+05hp6UlLStRaL5W2DwdABYXP0PfRDzLopn4IKH1ENfvRhCD7ai74dKvK0pQ33qK+v/2TQoEETt23bVnw+/h75M9sHARb09uEnUbUSB5y88MILd7rd7hWxsbERWB/HAxDr4xRKx4Oa1nhDq8RRiBUPSFwbWomNvlcoFN7y8vJfDAbDHZWVlQeaE+7WrVvVw4cPX9ytW7ep1dXVJ+p0Q9gpWQ+CzjP05qT+P/fKyMiY6HA4AklxwTXpVgm5Z2dnJ23evPm9uLi4a1B6ADsy0G8RGaDZN/op1UqgSBP6KAQfok1iTkmeodnwCoXCeezYsRf27t371BVXXNFiOSAt4xW+a2sRYEFvLdL8OWERwOEd69at665QKDZ26NAh0+l0YqoTCJ3Snu5gNjD+z+/z+aQWi+WI2+2ukUqlSq1Wm6rHYrtUKsV1eA8eqJjhU6IUHqp42Nvt9nf/8Y9/TDCZTFjLPutiLKGGISHqjz/+CGS50+wcD3KE3fH5wSp2az755JM2OUPv0qVLZlFR0f9KiiP2GERVV1fXNdc+9LA6xBlehKQ4hUKxCkJJ7aZ+Y7VaEYbfOXfu3BHNsWefmmYymVQmk2mWXq+fo9PpIhAJoll5aElb9Dv8Ljo62mU2mw9LJBKHSqVKNBgMSV6vV4F+GowinYhG0fo/xN5ut5fJZLIcq9X65Rli4ctFQoAFXSSObi9mjh8/XrN69eoHtFrt4waDIQrhSApThh7aYbPZfF6v9zen0/nO8RKiKOdpefXVVxGaT9Pr9SMbGhrGpKSkRDqdTmi7FA9Yyi6GmONeZWVl1QkJCYMnTJjw47lUVztZ0AsKChanp6cHstwxqMBnY7YGQYTQVFRUtNkZensXdMzQa2trsVQTCGXjRTNjzILr6up2jR07tllLv/bo0aPj4cOH3+/QocN/QYDJ71QcCH1Nq9X6a2trHRaL5X2VSvXZoEGD9vl8PteePXsS/X7/hQ6HY0J8fHzfuLg4VUlJiRTijvdjlo4+g58R8XG73S/Pnj37AZPJ5Govf9PcztYjwILeeqz5k8IgcMUVVyR888037ycnJw+gg0eodCeJYkNDg9Nms+3weDz3SCSSspDbSrOzs2WPPPKIbOLEiZfl5+cvTkhI6CeTyWR40ELQKWEO4lpXV+euqqp6/uDBg0/17NmzWR6Qffv2jdy/f/+Snj17Ti4vLw88mClrOVjFzo+1+9GjR098++23/0wMaEOv9iroWKa58MILpVOmTLlXqVS+iL4DX2MwiMJDVK+grq7uy2nTpg1fvnx5XXNh79at2x3V1dVvIQEutJY8HTKDqn5Wq/WY3W5/fO7cue8FI0InPj47O1tVWVmp++KLL2YYDIaZERERKvRZDEDQbzEgpK9ms7l0yJAhAz744IPfmqv9fB/hEGBBF44vBWFJr169Li8sLNyRkJCgQ/iRzsaGKOIB7Xa7/WVlZXslEsldEokEYcvTFWZBVdQhMplsRWpqagZC3rSeSQl0KMN6+PDhrYMHD77rk08+qTgXgBdeeKHK5XJlVlVV5Xi93olIjCIhx0yLsvKVSqW/srKyzOl0vpmUlPTWmjVrCtvS9rX2KOhYrx43blzHvXv3Di8pKZlkMBh6qtXqwJILRBEJiZWVlYG+dLyWQYVKpdrQv3//d6655pr906ZNc51LUiTK106bNu1lv99/FwaedFAMJWMGi8nYa2pq7jGZTO+fbmYdXGrSSiSS51JTU+/CUhP6DQYiGMhSXXur1VrvcDim+v3+NbyN7Vz+YoX5XhZ0Yfq13VrVs2fPu8xm8+sImSLESNt6MEvBXvKamhpHZGRkX7PZ/EtTD2IclLJr167HIiMjH9VqtSo6HIX2r+Pev//+++HExMRx5eXl/zpTaBCSrl27qrp3797z448/nmw0Gm/3+/1RyKinvcd4wNOaP62p4+QvrOf6fL6axsbGtW63+wWJRFKIQ1bOtA3NfX17E3STyZRpMpnGaLXaRzweTzTY4kVFffA9bQuDL9CHIJAOh8PT2Ni4Sa1Wr9q/f/+es43QPPbYY4nz58//Ij09vRs+h7ak4Su1o6Gh4a05c+bcffLM/FS+U6lUF0il0jWxsbG9qXYB+j76bHD2jwHtyt27dz/QWuWMm7uP8f1ajgALesux5TufBYFevXrllpeXzwnN8CVRxyzb7/fvqq2tHdyUmNNHDx8+/JIdO3bsSEtLS6Q1dNqfHjzUxenz+cZUV1dvOovm4u/npuNZzU917NjxArvdjoNSAtn4VHoWszY83PEzCT3WdjHzgl0ej8dtNptx3OnzEonkveZKzjsLWwJvaS+CjsGUVCrtJZFIXk5NTe0rlUoRpg6sl6OgD52BToegUMEhsI+Pjz8hvBUVFUf0ev3yLVu2vNKvX78zLjY0e/bsbitWrNiZmpqaVlVVdSKiROF2t9vd4Ha7sa6fF45PlixZEjFr1qxlqampE202mwx9hvoS+gzs+v3339cfOHBgUu/evVv1JMFw2s/XnF8CLOjnlz9/+v8moJDJZC+qVKp7MNOiQ03wUKZTs2pra5+22WxPhgvutttuM2zYsOFAYmJiBq3Bh2xfC6yr19TUjHW5XGvCvWdeXp583759kUuXLr07MjLyCZ1Op/d6vVLaPoe2ItRLs3QKmWIAgf9HKDUuLi4QBsbDOpiF7+vUqdPU+++//+1x48adt7X19iDoWN7Iz88frdPpFqCAi8PhUNLWMNrPDc5UpIVm6RB1SpaDbyikbbFYUJvgnb17907v169fbbj9AIMKlUrVx+12b+7cuXMKBpzoA1gqogqFxcXFh6Kjo3MaGhrCOqM+OFDJjoyMfD0hISEagxPckwaGKJhz5MiRHXFxceOxdBNuW/k6cRBgQReHn9uLlajV+YrBYLgT4oeHGK1FUqZycXHx4z6f75kzMEinVqv3x8XFZdJZ4vSgx894sNfX10+oqal58wzuiRn25OPr4U8aDAaj1+tVUyY+MpJp3R8zKqrfjq/0/5hlYaaIhz7aEhR+X3V1ddnxAYbpvffe+3/n60zsti7ofr9f1qlTp6stFsvq46KXFizGIg09pIf2elOGOL5SkRYKYyMfA4M5XBsREeFDgmRsbOySd999NzfcmXpQfPvrdLr1CQkJyRB0DCRw0hsN4srKyvbp9foxtbW1WFIJ6yWXy0eo1ep3kEeCNlLbafB35MiRnZmZmRMKCgq4yExYRMVzEQu6eHzdHixVREVFLZbJZNNxkhoVkQmGpgPtP54NvMTn8z0YrjGzZs1KWrZs2XcdOnRIw8yJ9qVTGDwoqLeUlZWFFRJFNrXJZEL1ujejo6ORxKSm/c60Xk77zUOz2ynMj2sg5LANM0QaAEAANBqNz2KxuDwez42zZ8/e1Vxb6cJldbqQO/6fCqFgH/ptt902cNWqVfvP5L7Nda1Sqfwb9pkbjcYeHo8nEGYHQxoAUr4CJSHSHnRcQ7slMFMn0cdXvCe4rcyDCJDX651/Bglnl2q12o+MRmMqfIi+gK/oA2iD1Wr9QyqV3mq3278JhwEGLCqVamJUVNQLer0e2y4Db6P2BkPuHyUmJt5VVlZWGc49+RrxEGBBF4+v24Ol6I+PxcfH5+LhSweb4GFMD2S73Z5/7bXX/m3Lli1NrndiBnXppZdeefjw4Q9iYmLiKFOYtsPhnk6ns16j0eRUVlZuDwfQjTfemLJ169Z34uPjr1YqlQo8cPEPMz5aFqBZFYSbTtei6l9UaITEHw9qOnELAo9XaWnpJ6+//vrdd91117Fw2tSc15xqht5WBL1Dhw4RxcXFKxMTE8doNBq5y+XCYT0nKq2BNbjCv+CKF+1ooIS1UCEHb/iFygdjmaeoqKh46NChV2/atOlIOFzVanU3p9P5aY8ePdKxhk7VAOHn4LG5nrKysvumTZu2evny5U2eHbB79+7orKysFUlJSWMVCoUsdMCHvwks1eTn5+ctXLhw8qOPPhr28kA4tvA17Z8AC3r796FgLIAAKxSKm3Q63QasdeJhS6FLPCh1Op2ksLDQc/XVV4+75pprNjRVXEOv1xtqa2tfSU5OHoW9vVReEw9GZA7ja1FR0Q/R0dF3Wq3Wg2GAxJrpI9HR0bkQlNDSs3gv1ZvHQ7eiosJTX1//u9/vt8rlcrdarZa73e64+Pj4dLlcrg7uSQ98JN5HRUQgQA6Hw+twOJ6y2+2YKf55RmwrvdqqoE+ePFn5ww8/XFdYWLhZr9fL6+rqpLROTbPy4MzbB6GvrKw8JpVKy1QqlcvpdGLWGxMdHZ2u0+miqa46IjboA2APX1IJ1oqKipVr1659MCcnp8mzyB9++GHtK6+88tnxWXo/3Au+xCydBmderxfbFL+Ojo4eVV9fDwH+y50MSUlJWQ6H462oqKgOKIqECAQdPAQ7nU6nx+FwLN63b98TZ5uZ30pdiT/mPBBgQT8P0PkjT0sA/fFSnU73iVarjcODl0Lk2OYFQQ9uNcsfNmzYpI8//hj70f/PKxgWx7nS46OiohZFR0fHUpU2WuvGYAEPcYvF8qFGo7m3sbGxyQSjiRMnxq5evfpLnU53gUKhCBy+QbP+kKNcHVartdrpdL53ww03vHe8gMwxv9/vOC7Oqq+++qrT2rVrb9Tr9VhS0AfPaj9Rbx73wNo6suRramq+z8nJGfbGG2+0ali1rQr6O++8o5swYcJLOp3udoqEUBQHs3KEooOn2lnr6+s3paenv9WrV69fvvrqK3tubq68oqIi2WQyDYqKipqt1+uTwZqq+OEEPDDHC/c5fPjw4aysrDt27979bVN/qyaTSZGbmztfp9PNoiJCFB0IlhjGNjlHWVnZEuwxl0gkpy1o06tXrw7/+c9/3o6Pj78S0R8kWqI9aB/6LwYcR44cqVGr1Xc6HI4t4e70aMoG/r1wCLCgC8eX7d4SzNCfffZZ3aOPProyISEhG4qJhzWdmEWnUWGt+ejRo8fi4uKmqtXqfxUXF1vo4YYjLL/44ouMxx577BaVSvVAXFxcbH19vYzWWEMPa7HZbHatVjvr8ssvf23dunV/WSkObRsxYsTQXbt2bUhKSlLjYYsZPyW44StmZlar9VBMTMwDL7zwwhc5OTnuoFNOFL/Bedl///vfr//999/nx8XFXUzhYcpiRujeYrFgicHTrVu34T/88MOO1nQsBB3bolJSUi6hCAQ+/3yvoev1+n4ej2eN0WjsBuFG4hkywCmyERygmWtqamZPnjx5/cqVK//Pkgx2J2zYsKHnxo0bV+j1+is0Go2Uar5TARfwl8lk3qKionmTJ0+ev3LlSvLhad3QqVOn68vKypAYF93Y2BgY6EF8EQHAC5XiXC6XDWVfr7rqqmefe+65Y/3793egz2LwedNNN0UMHDjwMovFMjctLe1K1HUHckSnKHJAiX0WiyV/3Lhxg1566aUmB6Ct2W/4s9oGARb0tuEHbkWQQN++fZWHDh0a6/f7l6SlpcVgFkXHS1ImMyWT1dXVWZ1O55cpKSlbx44daz5y5Ijy/fff76tQKLISEhL+5vP55DKZLLCdjNYiKTyLcG1xcXHFpZde2u/7779vcq36jTfe0Nx9992LjEbjFKxt0rp56EEcNputTqfTTTl27Njav0qqgrA888wzNxYUFKw3Go2Bk7lgI7Yk0X5ptLOysnLeE088YWrN5Li2KOjgI5fLp8bGxi4yGAxqsAInqsAH8bRYLA2NjY3PeDyexRKJ5LQiDAE9cODAwG3btr2RnJzcgRIvaVZNA6yysrIPR4wYccfmzZv/LAj/F68VK1YkzZgx4/XIyMjrIyMjFRjY0e4G9DO8vF6vD0VtSkpK/u3z+b7p1KnTFxEREQ2FhYXpTqfzMo1Gc31iYmIS9p7bbDYpolE0mKWCSLAZNQ8qKyufPoOkvaaaz78XEAEWdAE5UyCmoE8mKJXKd9PT0wfSuefBh9mJM6MxI6aHZllZmV2pVHpw8pper9dIpVLMcAICiVkcwqlU+pVOWqusrHS5XK4nHnvssefDEczt27fHDhky5O309PQbcG+0i5YDMDvE91VVVe+tXbt2Sk5OTpPJSjiha8GCBe9qtdrRmNKhrXiA031hX1FR0ZcvvvjiDVOnTm1yLbe5fB8q6KHnoZ/PGToyv5VK5eL4+Pj7g1vFTlROw8wVonn06NFvtVrtLTU1NX80xQIDqkmTJj2kVCoX0vo5rX8jbI6BY2VlZenAgQMv2bZtW5NLHmifVCq9OTIy8uW4uDiD1+sNDPjQNvQNiDO+4t7B3Q7eiooKu0qlwgl/yri4OOyUQPn2EwM6DCzo+F+0B/xLSkr233zzzbdu2LABJY/5xQT+DwEWdO4UbZJAamrqoJqamvexzxszFNpqRGdGY2ZMa5YQQzxA6Ro8/KiIC21VwgMyZKburK2t/e6OO+64c9WqVUXhABg9enTG5s2b3+3cufMVyGbGZ1IpVzywzWZzg91un+n3+1eFu7Ypk8nuPX7U69LIyEhNaJlPOl3LbDb/uHDhwmEzZ84sCaeNzXFNWxR0rFPPmzdvbXp6+mgkisHXJMQQQQzWGhoanjheV31+uPv3r7zyyn4HDx78nvxIuw3AEANF+OCKK67o8vHHH/8eDtehQ4fqduzYsSwuLg5r/Er0xdA+R7sd6Ix2hPZpkEozcUrSo6N+qWRtcPtjXVVV1cPffffd/+vXr1+TywDhtJmvER4BFnTh+bTdW4RZ2NKlSzUzZ86cFR8f/7BWq43E2iQdfEFFZihbmRLeIPC0xQ0iiwdjaEERCG1ERASyjn8zGAx3l5SU7A1XfLVabff6+vr3MzIyLkE76OGLhzIO/ygsLCyePHnyTS+++OK+M3DAtcerrb7drVu3NIhS6HYrPPALCwt/Xrp06cj777+/1WZkEPTCwsL1nTt3viQ0YxuRA7Spqqqq1c9DRzRj3rx52+Pj47NoFouv4AWhhMCnpaXdtH///rDL9w4cODD1s88++9poNGaQyFKSHSWiXXXVVZd+9NFHP4brz2HDhl2wa9euVXFxcZd5vd5AGWC8qDgSrYNTMaHQvknX0ZILBhi0vRLlga1W6yu5ublzHnnkkSaXAMJtL18nPAIs6MLzqSAsCmaqRyoUirkxMTGzsBZOtdAhplTMBWKO7/HwpL3qlGCGhyLVhA+GZr1lZWVH5HL5jCFDhmzNy8vzhSvoKpXqIp/P915KSsrFVOKTMubxEG5oaDg2e/bsUXPmzPkhXAcolcrL3W73u2lpaZ2oih3aDvFE2ysrK/OfeeaZUQ8//HCrCnp5efn6yMjISyhzn/ZUY+misrKybsyYMa1aWObVV19V3nfffbv0ev3VJL5oE4QXoodISe/evUd++umnm8Nl37dv3+SffvrpC61Wm0mlVYOHtwQiOThyNSsr67JNmzZ9F+49MRAdMmTIVV9//fXLer3+Isr5oL3xaDv6LqICaHfoLJ6S8kjkaduby+VyV1RUfJSZmTmdK8OF6wnxXseCLl7ftxfLY7H32+/3363X6wPbz2htl46rxAMdD3f8TAewUJlVCCWV4jSbzT8ZDIZHtm3btvNMw5Y6na5rXV3d2x07drwMgk7RAHwOPru4uLgmOjr63urq6rxwBwkSieROvV7/olKpjEZiF4XdcW/8fPTo0f8sWLBgxAMPPHC0tZyVmZnZpaCgYENqauqJLHcMMCBC4Hv06NG6qVOnDli+fPmB1moTQu6LFi1ap9FoRoEN/qEOPiIGeAXrFcy02WwvhMveYDD0UqlU++RyeaAOfHl5eaBoC3wAMcU2yWuuueaSzZs3/+dM7MRa+MCBA/+2e/fueUlJSddIpVI1hdSpiA1Vk8OgDYPUk/fDU3U7l8tVX19f/1bXrl2f/fHHH0vCte1M2svXCosAC7qw/Ck4a/Aw//bbb+Xbtm0botPp5srl8j6RkZHIDD9xVjStjdO+YiqzClGE+FdVVWF9e3tOTk7u+++/H3YI9SSYSVKp9K3OnTtfD0GnMD/uj5krhKC0tHTl888//8DMmTPtTTkCs84pU6YsNxgMqAkvpbZSNn4wCWrfkiVL/nvmzJmWpu7XHL9HVKS2trbP0qVL30lNTe2Oe1JZVdgJUS8uLq7v27fvTWq1+vM9e/a0ynGvwaSzZQaD4R9oA2bPqOpGOwOwNFBTU/OZ2+2+XSKRNLmdC0lxjz766OTa2tqXwD20dC98m5iYCDutQ4cO7bVx48Yzrpce3OKYtnXr1qkajWacXq9PooEf2goBR//BgIRKEIMz9QGwrqmp+dHtdq9cuHDhGq4I1xy9Wxz3YEEXh5/bvZV4qD///POdFixYMNhms01TKpXxCoXCcLxqm4IqadGaJR6aDQ0NDqVSWeNyufYlJiauuuWWW/YsXLiw7hxmOdEajebVuLi4Wz0eT2A9n6q9QQRQ2a60tLSmQ4cO2YWFhbv+6nMgnIsXL0a4fatWq9VFRUUF9kNTJjke8rinx+N5OTc398FwBgjn4uABAwZobDZb98OHDw+BKMbGxnZtbGzUQHToGFCsU8NeuVzuKy8vP+r1ej/o06fPGofD8Wt+fn6LZuEHM9sfTktLw7Y0OZ11TiFto9GIpMQam832MHISMGk/HQ+wl8vlXebNm/dWXFxc/9CwOISdEizNZvOn1113XfbOnTub3LFwus/asmVL5K233vo3t9t9q1KpHHF8S53WaDRGY/kIfRZMKeJQXl6OyoINer3e3NDQsG7QoEFrn3zyycIzjSSdSz/g97Z/Aizo7d+HorIAM9uDBw/G7N69u2t+fv5IhUKR6nK59JGRkSqbzeZTqVQOl8uFGW3+pEmTtqemphaaTKbTPuDDhRdc079Jr9eviY+PV2OWiMgAnYCF+2Cvsdls3jNgwIDpn332Wf6pRB3idOedd16+evXqpcnJyZdR8hOFeqk2Oe6vVCpHV1RUfBBuG8/muhkzZqQuW7bsDrlcfq9Op8vQaDR+OgqWZq507CzaSmvACB+73e5Kq9W6pV+/frnffvvtkXMYLIXT9CyJRPJWp06d0mj9GQMfGnSgrXV1dYWpqamT5XL5V/n5+acsFPTII4+kP/fccy/FxsYORT0BSrKjNWsMBhFxKSsre+amm256uqmCQ+E0/J///Kd6y5Yt6Z9++ullarX6Kr/fH+dyuaLVarXC5XI5/H5/o0wm+8Pn8+297777/pWQkFARzlbKcD6brxEXARZ0cflbUNai6lplZaXqt99+08yZM0fZp08f79y5c91yudxRXFzsCncL0xlASVGr1QcyMjISILiUvUzHsR4/ThWbib0lJSX7evfuvXjMmDF7Ro4cWe90Ov1qtRoJU/ojR45cJpFI/omjPxMSEuQQENqmBnHCz/haXl5eOGrUqOs3btwY1rapM7AhcCkGKNu2betx4MCBN6Kjoy+KioqKRBsRGUDol9Z7IeaUNEYzYyrqEszCxrGvX3Xp0mXhoUOHdrRUwZP4+Pgkq9X6VseOHa9HKdTQ5DhKioyKivIfPXr0t+PRmxXdu3f/YMOGDZWZmZm+Q4cOSR944IGInTt39tZoNI/L5fJrYmNjlVQAhqqxUZJjeXm5GTkbNptt25ly/avrEWXas2ePKiYmRjNq1KgIt9uN8q7OGTNmOIcPH26/6KKL3C08KGpOc/hebZAAC3obdAo3qc0SwOEsC1G3G7XcIQiUnU5bkuj/amtrMUPca7fbDykUCg9CxQqFoo/RaOyj0WjU2M1E2fpIqqNkvmDVM3djY+Nzx4XGJJVKW2SdWqPRXOP3+19A8huEhs5rp61ztHaOWTmdFAevhO4kIC/h/+rq6izdu3e/Z8mSJZuysrKavc3Bg3uGS6XSD9PS0vB5gbwDKk9LORVYCkF76+vrD7hcLmSoN0ZEREC8O3u93sEGg0EZEREhpbPQaTCA99EsvaSk5P28vLz7cnJyWiV3oc32dm5YuyPAgt7uXMYNPo8EpDExMb0cDsc7CQkJF6HICYWhka2MGR7NtoOHf/iR+HT85DRpsB69H9XsKFOfEuCoAAkGBVFRUb6CgoKDM2fOvGPRokVnlGEdDpfgenTXyMjIdVqttqtcLtfI5fLA4ITyAjArh1hSmVzaN03VyygzG+vNoRXzqqurD2dkZEwPztRP1K8Pp13hXNO/f/+Iffv24SzwLJyoRiWA6UhUyg4HX9qJALtoNwRtS6OlBNhHxVuC28X8NTU1jr59+/73nj17vm6paEM4tvI1TOBsCLCgnw01fo9oCSDr3mQyTTkeon4uMTFRg5kezcppqxwJNdUax+8puQzf04EglBgFgSThKSsrw+9zRo8evXHdunXNfnTq5MmTk1977bW3cUynSqWSUWldtAWCSGvIJH74GYMSmrGHiiNj6tuYAAARf0lEQVRV64OgBo+A9Vmt1h+NRuNIs9ncZH38s+xEN8TGxr6WlpaWWFFRIQ+tIog2o31UkIWSFskfZBN4004FtIGu93q9rqqqqmV5eXmzW2C55izN5bcxgfAJsKCHz4qvZAIQXpRej1Kr1c/GxMRMcrlcStp+hBlfyGEcARGn2S6tP5PIU0Y+RAfvw/qv0+l0WiyW9+bMmfMPk8mErW/NPsuNjo7G4TLzIyIi9DAEAkh1x6mcKgSQ2imTyXzB8LSMQtwQb7QfyWP4StnaWP91OBx+pVK5ctasWTNbKDs/UqlU3iGVSpd27NhRgygJuiW1gaoD0mwdYo0ljerq6sBWN7DGNYguUFSCZudms3lnbm7upMcff7zJevD8p8AE2iIBFvS26BVuU5snkJ2dHXs8A/qxlJSUf0gkEjUJMwlJiMidEPZQkaEwMUQS10okEp9arV6m1Wrn3XzzzbXNneWMvdcPPvhgYlVV1ZcGg6EzPpAK9FB4He0IRgv8FoulwO12/+b1eo+p1WqZ1+tN8Hg8mQkJCd00Go3C6XQGMsRhE0UXgmVLfRaLpeT4+fL3+v3+bc2d5IVkPolEgi2MMyUSyYOxsbHxWMaggQUGGRBtDEgwC4c9aBdFQfA7Ok8d78H3uM7hcHxz8803j37jjTfKm7vNbb4zcwMFQ4AFXTCuZEPOAwGjTCabLZPJpmVmZiqxVo4KY5ix07o4xA6haYgfhJOO64TAUHi4vr7e2tDQsHrHjh1PDh48+Kz3Pf+V/TiW9ngN+9vMZjNqjSuoLC7tf0fbIHBms9kul8s/0Ol0ywcNGvRrt27dGi+88ELJ/PnzI3/77bcuNpvtJp1O95DBYFDBXqqChtA97hHMkMcxoUt27979aEskyMFOvV5vqK2tReW4JQaDQU9JipQkR0mKuBYRBviE1vvpONKEhAS00+1yudb6fL6FLpfr5/PQh/gjmUCzEWBBbzaUfCMxEsjOzlatW7fuaqlUOttoNF6mUChQgCYg4nR4CM0QwQdiQifB2Ww2lPY8kJKS8sikSZN+MJlMp9w73RxcN27caBw9evR7PXr0uM5utwfOX6da6BBhbAVzOBzYNjWvoaEBZ4rbTvW52dnZ8k2bNt2tVqvnGY3GeDrtjGb5lGRWVVX1m8PhGCCRSEqbo/2nu0dERMR/2e32qVFRUcN1Ol2gNDDVTsd7KKGPjrrF74I5D57i4uLvoqKiXlmwYEHe9OnTA2ESfjGB9kyABb09e4/b3lYI4O8oXSKRDFCpVLf4fL4hKE8LYaftYBAaiCbEXKFQOGpraz/Hme/33nvvZ8uXLy8Ors03+5o5Aerfv//F+/fvR1Gci6lcLc6Kx4v2mRcXF2/H/muTyVTaRMjfIJFIHoqLi3sMa9GISiDUjdk+ZsII3eNfQkLC5fn5+d+2pJMwwNi+fXtMfX09Bg/DDAbDmLq6ughU7qNjVoPnm9OaPyqyoU2bhgwZsv7yyy8/2tzLGy1pL9+bCfwVARZ07h9MoBkJ4KjPQ4cOoe77BT/99NMFv/76a6bP50MiV6Pb7S6Sy+U/e71ehHYrkfjWimJyc0RExMqkpKRYhJ6pOAyFps1ms1mhUNzucDg+byoZD4OPlJSUdIvF8q1Op0vEejWFsWlpAWfGd+nSZdyBAwdQirU1XtK8vDzZ6tWrU4uKitIOHTp0sUwmA3ujXC53azSaw8OGDfvleBnWX2+88cajEyZMOOfqga1hFH8GEzgTAizoZ0KLr2UCZ0DgwgsvVOXn5yuDAonZN/1z+/+ckrfYjPwUzZyenJy8jJL3KHpAZ8uXlJQcHDNmzPXvvPNOWCHyvLw81e233/5aSkrKOAwQIOR0KA5m62azGTP2uY8//vj8Vhy0nDAbyXPXXnutrLKyEkl0kpycHBS7+fOAcn4xAYESYEEXqGPZLCZwEoHpRqNxGcQW6/uhZ8VD1Kurqz9/+umnh82aNasxHHLIms/JyVmQlJQ0C2vxWJNHxjjtxUcYvqGhYZHJZJptMpmavXJcOG3ka5iA2AiwoIvN42yvWAlMT0pKWkZb5zCr1ul0gTV+JI5Zrda9ixYtGjp9+vQ/F9abeAUFfWFycvJDoaVrqbocQvrV1dXLnnjiiYdY0Juiyb9nAs1DgAW9eTjyXZhAmyYgl8uRmf6q0WgMhKAh7FTpDbP2X3/99efc3Nyh4RZVwdGgI0aMWN+pU6ehNOOnQ2ow+6+oqECC3ENVVVXImOcXE2ACrUCABb0VIPNHMIE2QGBYVFTUGyjEQrNoiDqVPW1sbKy5+OKLp3711VfvNZUUB1sGDRrU67vvvvtCr9frMRtHqJ1OLcNXi8UiycrKyv7oo4/WtwHbuQlMQBQEWNBF4WY2kglIMlUq1XudOnXqB7FFUhydc47v7Xa7v7S09Ksnn3xynMlkOvJXvB566KGEFStWLFar1WMRbscrWD71RAlWm83m6tOnT7+dO3f+xOyZABNoHQIs6K3DmT+FCZxvAjFSqfS1hISEm+l0NTr3HDP26Ohov9fr9Xs8nrUdO3Z8+JtvvjGfaqY+ZcoUw2uvvTZbo9HcazAYtJjloxIbvlIteAwQ/vjjj31ZWVnX7dy5s0Uq351vmPz5TKAtEmBBb4te4TYxgWYmENxCN9RoNK5HLXY6PQ0zazooBoLu8/k8drv9Xw6H45WUlJRvfT5fTbDojUYqlfayWCyTlUrlf+t0OjUORsH+czpHHAMDFJpxOByuioqKXLfbPV8qlTb7iXHNjIZvxwQEQ4AFXTCuZEOYwOkJYF+2yWTSyeXyT9PS0voh3E5r3vieqsfhJDK8fD4fTn77QSKRlAdn9LFqtbq30WiMxu+DJ7AFBgMIu9P9YmJiJAUFBYdGjhx5+wcffPAj+4QJMIHWI8CC3nqs+ZOYwHknIJfLx6lUqheTkpK0EHQIOELkmKlDpJHxDnHHtjbMtunkMvwfzerpDHI6aY1OW0MIv7y83N/Y2PhgXl7eipycnBarTX/eQXIDmEAbJMCC3gadwk1iAi1FYPz48TGrV69+LDExcYbP51OgzjkJM8Q7VKQRSsfMm4rQUOIbnSNOQk7V5/R6vf/IkSNfdOnSZXR+fr6lpWzg+zIBJnBqAizo3DOYgMgIDB48OOXzzz9/w2g0DlSgTJxEEpiRo9AM7SnHf2P2TuF0XAPhxqwes3V8j8EARB3Jc5idFxYWfpWamjq9pKTk3yJDyuYygTZBgAW9TbiBG8EEWpWALDs7u8e6devmJycnD1cqlXI6Fx2twCwdL4g6wvB4QbzxM66DqNOsHdc2NDT4bDbbgQsuuGDcDz/88HMr16hvVXD8YUygLRNgQW/L3uG2MYEWIoDM9bFjx6bm5eXNkkqld6alpekcDkfgeYBENwg3Qu4UZqc1dIg6zcxxTWNjY2NkZOQXjY2Nc2w2G2bmrXngTAvR4dsygfZJgAW9ffqNW80EmotAlEqlGurz+e7VarVXKRQKNcLnVEUOQg4Bh7DTyWwNDQ04293j8/m+czqd765evfrt22+/vZ5n5s3lEr4PEzg7AizoZ8eN38UEBEPA7/fLLr744lSLxXKl1Wodgcqux/eQq5RKpUIqlcp9Pp/U6/V6lEqlRyqVOn0+378yMjK2X3rppVvvueee0qysLD5NTTC9gQ1pzwRY0Nuz97jtTKCZCWRnZ8vXrVuXcOutt3YsKiqK//777+O8Xq8sIiKiesqUKaU2m61MqVSWLl++3NnMH823YwJM4BwJsKCfI0B+OxMQMgEUpHnyySf9HE4XspfZNqEQYEEXiifZDibABJgAExA1ARZ0UbufjWcCTIAJMAGhEGBBF4on2Q4mwASYABMQNQEWdFG7n41nAkyACTABoRBgQReKJ9kOJsAEmAATEDUBFnRRu5+NZwJMgAkwAaEQYEEXiifZDibABJgAExA1ARZ0UbufjWcCTIAJMAGhEGBBF4on2Q4mwASYABMQNQEWdFG7n41nAkyACTABoRBgQReKJ9kOJsAEmAATEDUBFnRRu5+NZwJMgAkwAaEQYEEXiifZDibABJgAExA1ARZ0UbufjWcCTIAJMAGhEGBBF4on2Q4mwASYABMQNQEWdFG7n41nAkyACTABoRBgQReKJ9kOJsAEmAATEDUBFnRRu5+NZwJMgAkwAaEQYEEXiifZDibABJgAExA1ARZ0UbufjWcCTIAJMAGhEGBBF4on2Q4mwASYABMQNQEWdFG7n41nAkyACTABoRBgQReKJ9kOJsAEmAATEDUBFnRRu5+NZwJMgAkwAaEQYEEXiifZDibABJgAExA1ARZ0UbufjWcCTIAJMAGhEGBBF4on2Q4mwASYABMQNQEWdFG7n41nAkyACTABoRBgQReKJ9kOJsAEmAATEDUBFnRRu5+NZwJMgAkwAaEQYEEXiifZDibABJgAExA1ARZ0UbufjWcCTIAJMAGhEGBBF4on2Q4mwASYABMQNQEWdFG7n41nAkyACTABoRBgQReKJ9kOJsAEmAATEDUBFnRRu5+NZwJMgAkwAaEQYEEXiifZDibABJgAExA1ARZ0UbufjWcCTIAJMAGhEGBBF4on2Q4mwASYABMQNQEWdFG7n41nAkyACTABoRBgQReKJ9kOJsAEmAATEDUBFnRRu5+NZwJMgAkwAaEQYEEXiifZDibABJgAExA1ARZ0UbufjWcCTIAJMAGhEGBBF4on2Q4mwASYABMQNQEWdFG7n41nAkyACTABoRBgQReKJ9kOJsAEmAATEDUBFnRRu5+NZwJMgAkwAaEQYEEXiifZDibABJgAExA1ARZ0UbufjWcCTIAJMAGhEGBBF4on2Q4mwASYABMQNQEWdFG7n41nAkyACTABoRBgQReKJ9kOJsAEmAATEDUBFnRRu5+NZwJMgAkwAaEQYEEXiifZDibABJgAExA1ARZ0UbufjWcCTIAJMAGhEGBBF4on2Q4mwASYABMQNQEWdFG7n41nAkyACTABoRBgQReKJ9kOJsAEmAATEDUBFnRRu5+NZwJMgAkwAaEQYEEXiifZDibABJgAExA1ARZ0UbufjWcCTIAJMAGhEGBBF4on2Q4mwASYABMQNQEWdFG7n41nAkyACTABoRBgQReKJ9kOJsAEmAATEDUBFnRRu5+NZwJMgAkwAaEQYEEXiifZDibABJgAExA1ARZ0UbufjWcCTIAJMAGhEGBBF4on2Q4mwASYABMQNQEWdFG7n41nAkyACTABoRBgQReKJ9kOJsAEmAATEDUBFnRRu5+NZwJMgAkwAaEQYEEXiifZDibABJgAExA1ARZ0UbufjWcCTIAJMAGhEGBBF4on2Q4mwASYABMQNQEWdFG7n41nAkyACTABoRBgQReKJ9kOJsAEmAATEDUBFnRRu5+NZwJMgAkwAaEQYEEXiifZDibABJgAExA1ARZ0UbufjWcCTIAJMAGhEGBBF4on2Q4mwASYABMQNQEWdFG7n41nAkyACTABoRBgQReKJ9kOJsAEmAATEDUBFnRRu5+NZwJMgAkwAaEQYEEXiifZDibABJgAExA1ARZ0UbufjWcCTIAJMAGhEGBBF4on2Q4mwASYABMQNQEWdFG7n41nAkyACTABoRBgQReKJ9kOJsAEmAATEDUBFnRRu5+NZwJMgAkwAaEQYEEXiifZDibABJgAExA1ARZ0UbufjWcCTIAJMAGhEGBBF4on2Q4mwASYABMQNQEWdFG7n41nAkyACTABoRBgQReKJ9kOJsAEmAATEDUBFnRRu5+NZwJMgAkwAaEQYEEXiifZDibABJgAExA1ARZ0UbufjWcCTIAJMAGhEGBBF4on2Q4mwASYABMQNQEWdFG7n41nAkyACTABoRBgQReKJ9kOJsAEmAATEDUBFnRRu5+NZwJMgAkwAaEQYEEXiifZDibABJgAExA1ARZ0UbufjWcCTIAJMAGhEGBBF4on2Q4mwASYABMQNQEWdFG7n41nAkyACTABoRD4/7yhYPx7Lq18AAAAAElFTkSuQmCC;" vertex="1" parent="rL32pli-Os964ZMdKdvh-6">
          <mxGeometry width="200" height="200" as="geometry" />
        </mxCell>
        <mxCell id="rL32pli-Os964ZMdKdvh-5" value="Api Cariin" style="text;html=1;align=center;verticalAlign=middle;whiteSpace=wrap;rounded=0;" vertex="1" parent="rL32pli-Os964ZMdKdvh-6">
          <mxGeometry x="60" width="60" height="30" as="geometry" />
        </mxCell>
        <mxCell id="rL32pli-Os964ZMdKdvh-8" value="" style="group" vertex="1" connectable="0" parent="1">
          <mxGeometry x="570" y="40" width="290" height="210" as="geometry" />
        </mxCell>
        <mxCell id="rL32pli-Os964ZMdKdvh-23" value="apakah data &lt;br&gt;dari fastapi &lt;br&gt;ada update" style="rhombus;whiteSpace=wrap;html=1;" vertex="1" parent="rL32pli-Os964ZMdKdvh-8">
          <mxGeometry x="-100" y="40" width="140" height="140" as="geometry" />
        </mxCell>
        <mxCell id="rL32pli-Os964ZMdKdvh-29" value="Fastapi" style="text;html=1;align=center;verticalAlign=middle;whiteSpace=wrap;rounded=0;" vertex="1" parent="rL32pli-Os964ZMdKdvh-8">
          <mxGeometry x="160" y="10" width="60" height="30" as="geometry" />
        </mxCell>
        <mxCell id="rL32pli-Os964ZMdKdvh-2" value="" style="shape=image;verticalLabelPosition=bottom;labelBackgroundColor=default;verticalAlign=top;aspect=fixed;imageAspect=0;image=data:image/png,iVBORw0KGgoAAAANSUhEUgAAAfQAAAH0CAYAAADL1t+KAAAAAXNSR0IArs4c6QAAIABJREFUeF7svQl8k1X2//9kX9qkSdqmGztFZXEFRBaBigOiogzaooCsCiqKDqC4gMTBQUVG/LKpiILIZjvuAoIgdUAUKYMgIoMgpSxd0qRN0+zbn0/M4d/x5wwpdA3neb366vYs977vzfO599xzzxEJfDABJsAEmAATYALNnoCo2deAK8AEmAATYAJMgAkILOjcCZgAE2ACTIAJxAABFvQYaESuAhNgAkyACTABFnTuA0yACTABJsAEYoAAC3oMNCJXgQkwASbABJgACzr3ASbABJgAE2ACMUCABT0GGpGrwASYABNgAkyABZ37ABNgAkyACTCBGCDAgh4DjchVYAJMgAkwASbAgs59gAkwASbABJhADBBgQY+BRuQqMAEmwASYABNgQec+wASYABNgAkwgBgiwoMdAI3IVmAATYAJMgAmwoHMfYAJMgAkwASYQAwRY0GOgEbkKTIAJMAEmwARY0LkPMAEmwASYABOIAQIs6DHQiFwFJsAEmAATYAIs6NwHmAATYAJMgAnEAAEW9BhoRK4CE2ACTIAJMAEWdO4DTIAJMAEmwARigAALegw0IleBCTABJsAEmAALOvcBJsAEmAATYAIxQIAFPQYakavABJgAE2ACTIAFnfsAE2ACTIAJMIEYIMCCHgONyFVgAkyACTABJsCCzn2ACTABJsAEmEAMEGBBj4FG5CowASbABJgAE2BB5z7ABJgAE2ACTCAGCLCgx0AjchWYABNgAkyACbCgcx9gAkyACTABJhADBFjQY6ARuQpMgAkwASbABFjQuQ8wASbABJgAE4gBAizoMdCIXAUmwASYABNgAizo3AeYABNgAkyACcQAARb0GGhErgITYAJMgAkwARZ07gNMgAkwASbABGKAAAt6DDQiV4EJMAEmwASYAAs69wEmwASYABNgAjFAgAU9BhqRq8AEmAATYAJMgAWd+wATYAJMgAkwgRggwIIeA43IVWACTIAJMAEmwILOfYAJMAEmwASYQAwQYEGPgUbkKjABJsAEmAATYEHnPsAEmAATYAJMIAYIsKDHQCNyFZgAE2ACTIAJsKBzH2ACTIAJMAEmEAMEWNBjoBG5CkyACTABJsAEWNC5DzABJsAEmAATiAECLOgx0IhcBSbABJgAE2ACLOjcB5gAE2ACTIAJxAABFvQYaESuAhNgAkyACTABFnTuA0yACTABJsAEYoAAC3oMNCJXgQkwASbABJgACzr3ASbABJgAE2ACMUCABT0GGpGrwASYABNgAkyABZ37ABNgAkyACTCBGCDAgh4DjchVYAJMgAkwASbAgs59gAkwASbABJhADBBgQY+BRuQqMAEmwASYABNgQec+wASYABNgAkwgBgiwoMdAI3IVmAATYAJMgAmwoHMfYAJMgAkwASYQAwRY0GOgEbkKTIAJMAEmwARY0LkPMAEmwASYABOIAQIs6DHQiFwFJsAEmAATYAIs6NwHmAATYAJMgAnEAAEW9BhoRK4CE2ACTIAJMAEWdO4DTIAJMAEmwARigAALegw0IleBCTABJsAEmAALOvcBJsAEmAATYAIxQIAFPQYakavABJgAE2ACTIAFnfsAE2ACTIAJMIEYIMCCHgONyFVgAkyACTABJsCCzn2ACTABJsAEmEAMEGBBj4FG5CowASbABJgAE2BB5z7ABJgAE2ACTCAGCLCgx0AjchWYABNgAkyACbCgcx9gAkyACTABJhADBFjQY6ARuQpMgAkwASbABFjQuQ8wASbABJgAE4gBAizoMdCIXAUmwASYABNgAizo3AeYABNgAkyACcQAARb0GGhErgITYAJMgAkwARZ07gNMgAkwASbABGKAAAt6DDQiV4EJMAEmwASYAAs69wEmwASYABNgAjFAgAU9BhqRq8AEmAATYAJMgAWd+wATYAJMgAkwgRggwIIeA43IVWACTIAJMAEmwILOfYAJMAEmwASYQAwQYEGPgUbkKjABJsAEmAATYEHnPsAEmAATYAJMIAYIsKDHQCNyFZgAE2ACTIAJsKBzH2ACTIAJMAEmEAMEWNBjoBG5CkyACTABJsAEWNC5DzABJsAEmAATiAECLOgx0IhcBSbABJgAE2ACLOjcB5gAE2ACTIAJxAABFvQYaESuAhNgAkyACTABFnTuA0yACTABJsAEYoAAC3oMNCJXgQkwASbABJgACzr3ASbABJgAE2ACMUCABT0GGpGrwASYABNgAkyABZ37ABNgAkyACTCBGCDAgh4DjchVYAJMgAkwASbAgs59gAkwgQslQO+P871HQpEH0PcLfR5fxwSYwP8gcL4PIsNjAkyACdQkIBYEQXzbbbdpOnTooA8EAgnLli1L9Xg8MkEQ5IIgyCQSCd4rwUAg4JFIJF6tVls5cuRIy8qVKy3V1dWVgiD4GCkTYAJ1T4AFve6Z8h2ZQEwQCIVC4qysLO0PP/ygq6ysvFwmk7Xz+Xzt4+Pje/l8vjY+n08qlUrFXq9XFh8fL/L7/SKxWCzy+X7Ta4VCEfR4PCG5XB4QiUQBQRD8Xq/XIpPJdqtUqp80Gk2R0+k8/Prrrxe3atWqqlu3biz0MdFzuBKNRYAFvbHI83OZQBMlMH369Liqqqp2y5YtyxKLxT2kUml7nU53lVgsVrndbkEmkwk6nU7weDxCIBAI/47vfr8//HMoFBJEot9eLfgZX3SO1+sN/w9fDofD73a7j3k8niNKpfKHu++++6uWLVv+NHfuXItIJAo2UTxcLCbQZAmwoDfZpuGCMYGGI1BQUKBevHhxq02bNvWprq6+OxgMXh0fH6/TarXKYDAoQIhdLpeQkJAgYAbudDoFtVodLiCJtEKhCIs8DrFYfE7IIfT4HfeBkEulUkEul5+7Dn+rqKjweTyeKrfbXdSqVavPpFLpl7Nnz/559OjRFSzuDdcP+EnNmwALevNuPy49E7goAmPHjlWuXLmymyAI98nl8j46ne5yv98vIeHGzBuzcqVSGRZj/E4zcPwOsYawQ9Txs0QiCZ9bXV0tqFSqsMBDwPE/iDhEHQcGBfidZvg0k4/M3DFgsHq93p2CIHwwatSoL1evXl18URXli5nAJUCABf0SaGSuIhP4PYFrrrlG53K5rjtx4sT4UCg0ICEhwRgXFycmAcd3zLhJcMnUjpk2xBsmdIg0DpyHv0G4IdRkdqeZOf6O2T0JOAk8xB8CDpGvaabH7N9gMGAwELLb7XaHw1FqMBhecDgcO1atWlWUk5OD9Xg+mAAT+B0BFnTuEkzgEiJgMpnkn3766ZX79+9/QqFQDNRoNDqZTBZ+D0C0IawQaBwQc4gu/gahpnVx/A/ijANCjp8h9DifhB3n4m8QdQg27kn3waxdq9ViDT08CMCB5+BazO5r3hfX4v5VVVX4//cOh2OVIAjrBEGwXkLNxlVlAlERYEGPChOfxASaNwGTyST9/vvvM7Zs2TLF7/dnt2vXLsPn84lhGseMGuKLLwgrRJRM6xBh/BwXFxcWZDKh04waAowZNb7jetwL12NwALEm8bbZbOfW1cnsXnO2T7N2iDrKgAN/w0AAZaQ1d7FYXF1eXv6NWq2eM3/+/H2TJk1yNu+W4dIzgbojwIJedyz5TkygyREIhUKiBQsWKKdOnZotCMLjbdq0uQZbyyCSNPtFock8DpGFCOM7RBTCTevk+BtM5zgijnEOr9d7yu/3m+Pj4x3V1dXYdvabHV4QRFKpVB4IBKShUMio0+mMEokkGTqNwQGeQSZ93Isc5jAgINM8DR5o7R3nkcWgqqqqxG63r83MzFwwatSoMyaTib3im1zv4wI1NAEW9IYmzs9jAg1HQNS3b98WBQUFT4pEontbtGhhsFqtIlrjJkc0WgNHsSDaZC6nWbbX6/W7XK7qUCjk9Hq9u+Vy+bdJSUlFHo8Hjmtlt912m2XSpEke7Dv3er1hYUVwGblcLoaD3d133631+/06sVicLhaLW585c+bKUCjUPT4+voVcLo/T6XQKl8sV3r8OscdgAwc55tH6O1kQYBHQaDQhr9cbKC0t/SoYDP5t7dq132VnZ/tEIhFHo2u4/sVPamIEWNCbWINwcZhAXRCAiX39+vXdCwsLX01OTsZe8vCsnJzZYCLHGjZmvBBK8jonc7tUKoVDWrnb7d4nEon23XvvvZsUCsXh7t27WydNmnRRAWByc3MlW7dujReJRG0KCgr67t27t49Go+mhVCpbeb1eUUpKStiMjwEFPOhh8kcZYYKHSR5lhQc9zsFavMViKa6srPy7IAhvCYJQVRf8+B5MoDkSYEFvjq3GZWYC/4PAo48+qli0aNEohUIxzWAwXIEZNxzfIIAQcIhhZWUlZrlhcaQ94/heWVnpCQQCZTqd7h9Op3PT/PnzD2RkZFTeeuutv20wr+MjFApJ8vLy4h966KHLBEG43uVyjfB4PFe1bt1a5ff74XUP033YJI+ywqoQHx8f/hkHlgPw/6qqKnjDL8/Ozp6zdu3aijouJt+OCTQLAizozaKZuJBMIDoCY8eO1a1cufLh5OTkOQqFQox1aMxyMRuHORvma9peVtP5zGazuZ1O5z6NRrNuxIgRHy9ZsuRUY5ivR44cqf3666/7nDp16mG9Xt9LoVDoyROeos2RFYEiztHWuurqaq/NZvsoOzv7+fXr1x9ujPJH10p8FhOoHwIs6PXDle/KBBqcQO/evTXffvvtswkJCQ8aDIYEu91+zmudtpxhvRx/l8vlIfzscrm8DofjjMfjWfrAAw98mJOTU5SVlUWObQ1eBzwQjnyPPPKIYc2aNX3dbvdklUrVR6/XK7BkgDKTdzzOpQh0+I4jGAx6iouLv8rOzp6Sl5d3tFEqwA9lAo1EgAW9kcDzY5lAXRKYOHFi0rJly57S6/WPaTQaicPhEMG0jgPrzvgZgojZLmbsbrc7YLPZziQkJHzYr1+/v69fv/5kXZanru6FkLR33HHHnXa7/VmtVtsZ2dv8fr8cJvdIPc5tlUM9YYWAGd5qte4cOHDgwx9//PFBnqnXVWvwfZo6ARb0pt5CXD4mcB4C/fv3j8/Pz5+Vmpr6sFqtjoPHOMVfh4BT0BeIndfrhbNbUCwWH3Y4HE+tW7duW05Ozm970Zrogaxv06ZNu/rVV18dZzAYxsfHx4fX11FH1I+89fEzlhYiIWf95eXl+SNHjnxo9erVPFNvom3LxapbAizodcuT78YEGpTAfffdF7du3bpnEhMTEflN4na7xTCvU6IU+jkSBQ7bykqqqqrWPPfcc/NNJlNZgxb2Ih9mMpnEJpNp1FlfuJnt2rXLdLvdIvgEkJMcfAKwzo4lBWSDw//OnDnz9fDhwye8//77xy7y8Xw5E2jyBFjQm3wTcQGZwB8TyM7Olufl5U1KTk7+q0qlSoCZnUzqFAAGV1JiFLPZjD3iE++7777cd955x94cuW7fvl06Z86cXl999dU8vV5/tVqtVvh8PhG24VESGdQXJvnI/np3WVkZvN9n5uXl2ZpjnbnMTCBaAizo0ZLi85hAEyKAvdzPPPPMPRUVFauUSqUYZmeKnU7FrLG/PGQ2m7+/9tprn969e/f2JlSNCy7KTTfdlPH111+b9Hr98GAwqD4bClaCwQxtx4NlAgIPUbdarcGUlJRFjzzyyNNTp05t0ssLFwyEL2QCCM/IFJgAE2h+BK6++urOP/7446qUlJTrKMIaBAxhUjFDpXVl1MxsNu/t2bPngzt37kSQmJjJVNarVy/jnj17XtNoNHeEQiG1RqMJ+w6g7vhOkeWQT728vNyVlpb25Ny5c9/kbG3Nr79ziaMjwIIeHSc+qw4JYFvSiy++aJg7d+7Vfr8/MxQKIeVWuC/S3uhoH0fbliJ7kWFSDrhcLodYLD74ySefHK6vgCjRlq8+zrvqqqtaHDlyZHlSUlI/v98fTk9Gog4xx95zOIYFAgG/xWLZnJmZ+eShQ4cO1UdZGvuePXv2NOzevduUkJCAfO4aBKqhBDEoG3jgd/Qrm812LC4ublxxcfGOxi43P58J1AcBFvT6oMr3/K8EIOadO3e++tChQ7Pi4uJ6xsfHp0LMa+bDxsU1U3X+L5w4j0KDUlhTh8OBaGeH5XL55mHDhr389ttvx0yqzYkTJ8o++OCDv7jd7r8ZDAaJ3+8PO4Yh6hsYwssb68kQsJKSkoM33HDDqB07dvyIWWqsdkuIekFBwf/pdLphEolEKRKJwksQ5BgYCUgTwuCvoqJi24oVK+7Oycnh9fRY7RCXcL1Y0C/hxm+MqqekpNxkNptfv+yyyzrY7fb/p//hRVzz+P3vf1RmCDqEnTJxYVYWCXfqLy0t/Sw3N/fBYcOGNSuP7j+qJ9bNx40bN8Dj8byTlpaWitkoWTUQ1hUckNAEM/Ti4uJD119//aTdu3fvbIx2buhnDh48OHnTpk1zk5OTx8hkMikyysFqATHHUgT6A6wWNpvNdXa/uikxMXHRqVOneD29oRuKn1evBFjQ6xUv37wmgf79++u+++67zampqd3hkU2hO2k2Hu2svOY9yeT+RzN8sVgccjgcIaVS+dCZM2feau4BRtq0aZNaWFj4dtu2bQfD0mG1WsOzUMqOFlk3DrjdbleHDh0emjdv3vrGjvrWUJ8A8Ljpppsu++c///l2WlpaLyR5oZCx4FLDCz5YVlZWJJFIRtvtdja9N1QD8XMahAALeoNg5ofghatQKIbK5fLVSqVSjRcseWHXxsT+e5Ik5DWdwGhggBc5ZqxHjhzZP3fu3AHPPPOMpbm2BLKnvfjii5MUCsUChUIhg/MbWSUie8zD4Vy9Xq/VarXO/fOf//x/eXl5MeMAF027oY+1atVqYGVl5bsajSbZ6/WKKX49OQvCihMIBIJ2u/0fI0eOHLds2TJnNPfmc5hAcyDAgt4cWikGynjw4EH5VVdd9XJ8fPyjCIBC6S/xov0jE3s0pna6jgScxJ1+hwkaL/SSkpKi55577o6nnnpqf3NFedVVV7U9dOjQR8nJyVdjMITZOQKqINwp6os1dLPZHKiqqlr76KOPTlu0aJG5udb1YsptMpnkJpNpYnp6+t8UCoUWPgXUHygUrsfjCVZVVVU7HI4ck8n0pclkiln/gothydc2PwIs6M2vzZpliTdu3Ki49dZb30pPT78PL1Z60f5euMkMT7P2aIQd19AMvaao42c868SJE6dmzZr1Z5PJVNAc4fXs2VOFpCtGoxHR4OS037wmG5/PF7JYLEdGjBhx++rVqxEV7T+dEZpjxS+wzAsXLtROmzZtiVwuH2EwGEQSiUSEgQ/xIie5kpKSjQsXLrx/8uTJJRf4KL6MCTQpAizoTao5YrcwEPTbb7/9rczMzPssFks4BjfWfzGLjohxKPLCDa+tk6DDbP6/DnKIg8hRXm96cVPY01OnTp0ymUx/njlzZrMTdJiRDQZDF5vN9n7Lli07YiCEA4lJ4PRFA6DKykr3WXP7FJ/Pt/xSFnPqK61bt762urp6tUaj6YjY9ugnsGxQfwMjl8tVVV1d/eCsWbNyeZYeu++eS6lmLOiXUmtfRF0LCgpkfr9fJZVK5Xa73b9u3TrHsmXLfNHecvv27cqsrKy32rRpMwovVYgRvsPkju9+vz/k9/uLfT7fqWAwCHEP/k7Mfz/jRN8VwfFNIpGolErlZQqFQk3b2FAuCDxmY2VlZaeeffbZWgk6hPTbb79VSiQSdSAQCI0aNSrw66+/VmOfe7R1rovzsrOzJXl5eU8mJye/IJFIwnHawQxe7ZQfPBAI+Kqrqz9eunTp5PHjx1+Spvbfs87NzZXn5ORM0+v1s7RarcLj8YgxiERfQ7+KLPWESkpKvho3btwdvJZeF72V79HYBFjQG7sFmvjzIWxjx47ttG7dumyv19tREAStSCRyhkKh/XK5/B9erzeqgCUk6O3atRtF24giwWDOzZrKysqWBQKBGYIgeIClZ8+ewqBBg87bRwsLC9uvWrUKUdOuwZY1ypmN2SySdGCG/vTTT0dtcs/NzVWtXbt2yKeffvqnUCiUhsGFTCar8Pl825988skP5s2bB2Gvd5M22ItEogyxWPxFampqZ9QNTl1kiYj8HrBYLJXdu3cfunPnzm+auyd/HX8cMmQy2ZrExMQ+gUBAgn4BMUe/g7hjQFRaWurq3LnzrQUFBfl1/Gy+HRNocALnfVk2eIn4gU2GQP/+/ZV79+79UyAQmCuRSC5LSkqSUxQuq9Xqdblcx71e7/SWLVtuLSwsdP+vgpOgt2rVahReqhCjyMw87NCFw2w2L3W5XNMFQcC9ohVMUbt27ToUFRWtT0tLuxbmdlovxUsbX2az+dTzzz//5xkzZvxPkztmw0ePHkUUtuc8Hs+wjIyMBOxnhoBiEOJ2u+1Op/OrGTNmTBUEobC+zbT9+/eX5ufnj9Tr9UuQFpXMxZQOVSaTYVte0O12v/PUU089bDKZ/E2m8zSNgogFQRiZkJDwJlKu1gzAQ4lcpFIpLC9rlyxZ8vDkyZMxUOODCTRbAizozbbpGqTgdyckJLyi0WhaY6oIoaSwohFHNH9FRcVJn8/33KxZs9b/L0EZPHiwYvPmzcthcq+urg7PNCG2uCfWg/GyLSkpWdq/f/9p+fn5/3Nw8PuaDx8+/LKPP/74fZ1Odw2FjqVY3rh3UVHRqRtvvHHYtm3b9vw3apgNT5kyJWnp0qVrdTrdzRhkkHkWgwRaf62uroaH9PahQ4eO6dy5c/Hs2bMxjY528FGrRsvOzjbk5eW907JlyzsCgUA4TjnKFNl6BQ/+0JkzZ07B0bCwsPDrWt38Ejn52muvTd+3b99brVq1uiUYDIrRf2mgBwsOTO8VFRU/SaXSUQ6H44dLBAtXM0YJsKDHaMNeTLW6du0q+/nnnwfJZLIFcXFxbRFKMxgMnusreCFGEmCEFAqFz2q1lkml0ikajWbT2LFjvX8wcxW1adNGcfLkybfS0tJGYf2cRIlEHabxX3/9dWnLli2nnW+2//u6ffjhh5fde++976elpV2DlzRmsLReihc21tADgcAwn8/3h4KOmfm2bdvSg8Hgaz6fbxi2ulH2MhoY4H4QA7VaHXI6nf6qqqovvV7vo127dj05Y8aMYKdOnSRGo1E+btw4WVlZWXwgENCLRCJVMBhUiEQiaSiEyKPiAMZFfr/fGwwGXcFg0BYMBh3r1q3zSCQSX5cuXbw16ia5/PLLb/j1119Xp6amtkaK0Joe/BGzu+/MmTO5ubm5kzmU6R/3+IiV4/6EhISXZTKZlnKmUwyEiL+Gz2azTfN4PIsv5nPD1zKBxibAgt7YLdDEnh95Ad6h1+tfUalULUUikQwCjAMvQczMKbQqXo60jut0Ok9VVVU9KwjC2ojwnJu1YnaelpbWZtWqVf/XqlWrQbiGTJ4QSdwX65ulpaVLMjIyph09ejS8hh7tsXXr1stuvvnm99u1a3cNnMXogBhDiK1Wq/msuXyaIAifC4KAGN41XefFLVu2TD158uSSpKSkoTgf9cK1+KL98jUFPiLu2PO99b777nt9/fr1l7lcrgxBEFKUSmWy2+1O02g0LUOhkAZLFDhoW13kvnD6sweDwaJAIABHwGJBEBBv/sfx48cfeeedd4oEQUAQnAd0Ot0rSqVSAgsC7kFLHvheUVFR0bVr1xHbt2/fXF9WgmjboCmf17t371a7du3amp6e3oG2TFIfpj5dUlKy7ZZbbrlt06ZNtep7TbneXLZLjwAL+qXX5v+1xohGZjKZBsrl8gU6na6lQqFQIoQmhIREjmbWZNrGC9Hr9YZUKlXAbreXWq3WSYIgfBnxBo/v3r371adPnx5SUlJym8FggOleTTHXSSQhkHjBWiyWxR06dJh26NChmjPV87bQli1bOgwcOPD91NTUayllJgYKVEa32x1wOp1lgUDgiN/vX9m6deuvx40bdxpLBOnp6Rkej2eBw+G4C1HlIJRYBqCZOTnu0e81k8H4fD5/dXV1pVgs1qanp8vxP1gItFpt2AudzONUAdpOV3PPPCURwaDJ4XA4bTZbhUajsdnt9p/j4+MztVotMtKFByaUOYyS0VgslsOPPvpov/nz5zf7OPXnbeSLOAEx8EeMGDEnISHhqUgIWBG+k5Mh+kllZWX1kCFDrlu7du0vF/EovpQJNCoBFvRGxd+kHo6+cJdGo3kpOTm5lcvlCk8tKVY6xAoiCRM2iRtEiDyHIUxSqdRnNptP+/3+uYFAwKJUKoeLRKJhGo1GqtVqQzabTQTBJKcuElxy9jKbzYv3798/7Xem5/NC+uSTTzJHjhz5fmJi4nUoIw6UkbJtQQzxO0zpNpsNA4fDMpnsE5FItC0QCDysUqmG6vX6sABjLR/X4Qv1o9ziEAD8DxywLl9ZWRmO1Ia6QLxp+x2eQ9vJyIJBFfh90Bz8Hc9A+SgeO56Dv8HPAPckj3YKJhP5HVv8UKdpVqt1wXkB8QlCnz59euzZs+eLpKSksKMjDYrQdpEoe36n0zk+FAqtZmsHd5jmSoAFvbm2XB2WG2vm+/fvH6BUKhdBzJ1Op0wqlYadsGrOyCl7FYkQeatD/CAw2Euu0+lCxcXFVqlUGoqPj0+Sy+Xh9J4UdxwvUhJc3Jvu5fF4vE6nc86mTZteqm1CkXfffTdjzJgxa9u3b39jdXU1IoOFhRAzbTJR0+y4xtYlb2VlpVkulyfFxcVhn3K4rhBRCthClgnUjQLX4H+4LwYAEHWKqY760f5m2pZHlggyudecqVPwHJxDs3rclwLlwDQMbuSQh+80uECdHA6HNTEx8e5jx45tr8OuELO36tGjR0pBQcFao9F40++jCUZCBIeOHz++Jjc3d2JOTg5nYYvZnhDbFWNBj+32PW/tTCaTeP78+Xf5fL4XU1JS4HwlhTCRAOM7iZhUKvVLJBIJkluo1WoJZpHkgEbijAeSwJMjGf5HpmoSSVxHM34IWVVVVYlIJBrhcrnyL2D0QtI1AAAgAElEQVSGpJJIJK8mJydPwJo/ngGhJZEmsaXZM+pD5cbf8Hz6nSwRNGvG8jc8zDFzxmyO1uVp9o3zaABAlgDiRwxRDpp50zo4OFFgHQg67gduKAuEG+fjOtwLlgD8jTy0UdaSkpLNDz300NilS5dy2NLz9nJBiOQSmKvX66eqVKrwDD3i2BlmjZ9Pnjz5zQcffHDPXXfddSqKW/IpTKDJEWBBb3JN0nAF2r59u3T48OEDXC4X9ulmIL824l6TmT1i1oVJGGHb/C6Xy1xVVfWRXC6/PSkpKVUQBKwbh7ez0do1hBQzS5rV4ne8LDFrhWjBXF1VVRU2f0fENIT91BUVFXnjx4+/f+nSpRe0FzgrK6v37t27PzEajVqn0ylFuWpmXavpnIaXOb5qDjzIGmG328MZ2uC1FlnX/06lUlUHAoEBWq02HKkNf0edcT0JM1kFKLodeND/yFyP88EB38GI1uvxPArpSqZ3sgjgHngeWUciJn7wWrp9+/bpWVlZtdri13C9q2k9KRKk5y6dTvdmYmKiAYMzWsZASWERKSwsPN6tW7d7CgoKvm9apefSMIHoCLCgR8cp5s7CzHzOnDn3qFSqOUajsa3H4znXF8gsTmvBwWDQDfO0SCSacf/993+4Zs2a271e72tnX45pPp9PQmvpJJSARSIFAaPAMTRAoBl7JGCLq7Ky8uCkSZPGLVmy5KcLBY36mEym8SqVCklMWkW22YUd+vAFASUzds1Ichhg0HoqmeUjM+xARUXFnl69ev05Pz/fr1AoPoiPj79RoVCIIAbYZkdb5FDmmgJO4k4RycAHX7TmTjNw4kHlQ7nIqlEjxn14AEBmYjyrtLS0omPHjvf/+OOPH12ANeNCEcfCdR2kUulnSUlJl/n9fhEGlTRYivhbIFf6o4IgLI2FynIdLj0CLOiXXpsL8GZfunRplsPhWJaQkJARCASkiIsOASfHLZh3IRbBYNB39iVn0Wg0sxcuXPjeuHHj3JHMaaPObqeak5KSkobZKok6CRLNZDE7pQAeEVEKYq0d+389Hg+2kL3jcDjeDoVCv4hEootKY2kymdRz5szpj/CxOp3uBlgcDAaDBIMKxGPHlJ3KR17OJLokmBHRD5WXl38/derUSS+//DJSroqefvrpDvPmzXtLo9HcCJMtmWvJCkBWDVpSwAzf7XZXu91usVKptHm93kAgEEiQyWQK+CeAL2aNsIhIpVJxUlKSGAMF2k5FIk6e7RiQ4BkIJnP8+PEzf/3rX2977rnnmm062Mb42D3++OO611577cvMzMyuSNiCPot+UDNgz6lTp/56dplldmOUj5/JBC6WAAv6xRJsZtcjwIlcLh8pl8v/ptPpMvx+v5i2TtHea4hIZNbpdrvdZUql8unS0tK1Nasa2a8+RKVSLU5PT0+PhEYNr12TiZ1mQLTP3OFwhOx2+09ut3vv7bffvlalUhXk5uZW1PUs89FHH1WcOnWq9RdffHHL2WcNUSqVnZRKpVGtVksh6BBODEJQPvIRwN8jsd9DVqu14E9/+tOdH374IfaHnzuuuOKKxKNHj+YlJSX1j5hwz6XkpBSuOJm2mFVXV38vlUonZ2VlHf3hhx+E7t27i+Pi4uRutxtOh4pAIJC6c+fOpJKSkiyRSNQuEAikIJCP0WhMrKioEMGyQY5wEJ+EhISgxWJxV1VVbZs5c+YIk8l0QcsTzazL1llxMZB94YUXXomLi3u8ptWI/CHQ/y0Wy8pgMDiuzh7KN2ICDUiABb0BYTf2oyDmLVq06Ge1Wt81GAzpIpEIAUvOiQYF2YhE0/IWFxdXuN3umbm5uatycnL+n73hmZmZiqNHj953VihfSExMTEH9IOwk6jS7RLpUiURywOFw5HXq1OmjF198sejOO++01zeP7Oxs+b333qubMGECZmRDJBLJKIlEotRoNBKlUhmeEZO5OzExETO1UGFh4ffPPPPMg3Pnzv3DMKAzZ868/OWXX16u0+l6y2Syc85VZNnAd4pS53A4fA6HY/Mbb7wx5v7776/4o/j0GBisXLlSIZPJ5AcPHkx66aWX2guC0EskEt0UHx/fUxAEWVpaWnhZoLS0FNaNw0ajceKJEyd21fVAqL7boyncv1OnTuOtVuvbaCMcFN6XRN3hcHzdvXv3m7HM0hTKy2VgArUhwIJeG1rN+NxIGs5sg8EwT6vVprtcLgmZicnUTjN0sVjsQThXQRCmvfvuux/m5OT815ShkZn6LQqFYq5arb4MW8DoJQmTs81m29GnT58VN99886bGnlH27du3w3fffTfe7/f/OS0trUMgEBCj7nD6Ky8vt9rt9j3jxo0bvWLFiv+aghRr9StWrEgpKSlZHR8fnwVRrxl0Bl2E9tdHts2FSktLd/7tb397YMaMGf+OtgstXLhQ8cknn7Tfvn37rcFgcIBKpZLrdLpvu3Xr9vann35ayGIeLcn/PE+v19/u8/k+S09PDztnov0pFDEGoKWlpadHjhzZac2aNVUX9gS+igk0HgEW9MZj36BPTktL62uz2d7R6XStsLWrpjc2CTBmlzKZzF1WVlZ5NkLc8wsXLlwxZcqU84bChLf8mjVrOi1fvvwmmUx2HfKmh0KhUzKZ7MCaNWs2ZWdnlzYVAVqxYoVy9uzZnYuKim4Ti8UdgsEgMsiV+Hy+b6dNm7b173//e/n5GibigNdZIpEsSU5O7oNZNlk3yMGOIutFfAmQFQ33zp40aRL8BqI+wLawsBCx4cVardb2vwZXUd/0Ej6xR48eNxw9evRbcoaEmNMWR/ytoqJCyMrKSv30009LL2FMXPVmSoAFvZk2XLTFxgz6qquuuvr1119/r1WrVh3cbrcEHr60LQqmRzhc4YiLi/OWlpaaFQrF9Mceeyy3tulBIWxw+I6UDU5oF+XkFm0dL+S8iy0rRP3ll1+GpWNFSkrKADjcQcQxK4dA1Pwe2bbmt1qtiz755JOZQ4YM+f8Dzl9I4fmaCybQs2fPK3744YcDBoPh3KAWM3O0GQ4I+i233NLmww8/PHHBD+ELmUAjEWBBbyTwDfFYiNbzzz8vMZlMT7Zu3fp5v98vJS9q2pJGMxSXywVnq4qzTnJ/zc3NfeeP1swboszN6RmRZYxOgiDAMfBGxL2Hlzx5usPJjlLDRtK4Hho2bNi9H3zwwYHmVM9YKmufPn3a7dmzZwd8SGoGlqHtaxiIDRw4sENeXt7RWKo31+XSIMCCHsPtDEHv0KGD/Pjx4+8nJyffGUlMcS7OOV5ekdzQvuLi4jNnfdqeeuaZZz40mUy1So4SwwjPW7WIqLc8m2ntdaPR2A/LDRBvSqgCxjgiwh50Op0P2O32d857Yz6hXggg89r333//hV6v70gOjJEthOFwvoWFhWi7q5H57o+cGOulUHxTJlBHBFjQ6whkU73NkCFD1Bs3bvw8OTk5i8KtQlxoZg7hqaqqCvl8vmU33XTTY5w+svYtGRH16+Ry+XtpaWmXgy3N/igWPkWJq6qqesDtdi+v/VP4irog0KNHjxZ79+7dpNfru1CSINqVgfv7/f6gx+N5oaqqao0gCL9E4hOcSwVcF2XgezCB+iLAgl5fZJvIfbt27areu3fv+0lJSbdjNk7ruzC5U/Q0xGa3Wq12mUz2+NixY9ctWrTovI5wTaR6jV4M7G3+6aef0v/xj3/83WAwDJXL5VLKSAe+lLwl4kntdzgc46uqqt5r9IJfogXo2bNnRkFBwWa9Xg+nxnPLIxSTH7Nyu93u9Xq9rlAo9IpUKt2yYMGC/ZMmTfJdosi42s2IAAt6M2qsCyyq9OyM3KTT6Z6EdzvWdSkGOcSGUn8qFIpAaWlpqcvlmmkymd5DrvALfF6dXQbHM8RpsdlsErrp5s2b8bP30KFDeME2+sxp5MiRLdasWfNiixYtcsRisRwiTqFfKeMbdhQkJSUJhw8fRv7yexYtWsQR3uqsl9TuRjfccEObf/3rX9sNBkMbih1AeQfIaoWlKbSh2+0OVVVVHXO73e/379//zS1btpys3dP4bCbQsARY0BuWd4M/DaK4fPnyzqdOnXqnffv213g8HklVVZUoJSUlnBuc8n6jYIhN6nQ6EaZ0+rPPPrumIdfSc3NzVVOnTjWEQiHEYW9vsVhaBQKB8Jder2/jdrs1wWCwWiwWV7pcrkKxWHxaoVCccLlcJ+Vy+ZH09PQzK1asqK5t6tULbRBw/ec//5n2zTffvJaUlHRnKBQKZ3mLcDyXdjaS/x1hbgMymWxxXl7eM7169eL0nBcK/iKvwxr63r17t+r1+g7UXrglDcIo0BK2H6pUKoQohiULlpXDWq32+ccffzz/6aeftjaVbZgXiYMvjzECLOgx1qB/VJ3c3FzJ3Llzhxw4cODddu3aadxutwi5vJFghKK51YiY5TebzWav1zuzoKDgvW7dutWrqdFkMiVt2LCh2549e+6QyWSdZDLZ5RqNxigSicS0pxuOZVj3p5CyMI9SUBwIpdPpPBQIBH4OBoPfZ2VlbX3ooYd+rm8vfYPB0OLsgMik1+vvUyqVcrz4McPDgbKizJHEMNi+5y8vL//i/vvvv/+NN95AwB4+GolAjx49tAcOHFil0+kGBoNBFTnGoe0ovS7ajaL94f+UjyAQCFRardadY8aMmfn2228fYFFvpEbkx/5XAizol0jnQICS++67b0xJSYmpdevWECPycD8X/hIvL8zY7Xa7PxQKVXTp0mXKP//5zzyRSPRfI8VdAD5RmzZtFCKRqHVFRcVgl8t1fzAYTM/IyEgIBoNiclSiAQbdHy9YvGjhkYytYRRvnv6Pl255ebnL7/fbQqHQl3K5fH1ubu53gwYNqqzL/fBwgPvxxx91v/zyC/Kv3y2VShFEJ5xsBeVC6FsacETq4KmsrPz48ssvf+bHH3/89QJ48SV1SACD2yeeeOKesrKy+cnJyUmwWCHZTnV1ddjfAaJOg1w8lpL2wNKChDv4m9ls/jkuLu7lDRs2fHzDDTdwRLk6bB++1cURYEG/OH7N5mqIzoIFC5RvvPHGnSdOnHgjLS0tAevplKQELzPKWY5KVVZW+v1+f1HPnj1vy8/PP1yHFTUIgjBeEIRRLVq0uBoCTmZOvEjJUQmiSJnMSLwp+hqlKiXxx8sWZUd6UtQH4hoIBByVlZUb+/btu/KXX37ZfurUKeQNr4s1d6VKpZqoUCjmxMfHxyF9LMqFL/CEqOPnSLAeWDs+79Gjx6O7d+8+VYcM+VYXQeCXX35RDBw48P4TJ048mJKS0snpdCIjXrjdKMgM+iTloMd3tCv6FfqXXq9HmlWHTCZbcXZb6Nzdu3dzVLmLaA++tO4IsKDXHcsmf6dIdDRJ27Ztx59N9PFcRkYGIp2di0VOMa3x8sLPbrfbYzabXzo7u3/hYtemX3nllbgnnnii79n0oS8mJCR0UKvV4ZktRVSjGTlFsCPnMoh6zfzpZNqmgQCJPuBjUIL7oOzIpGaxWII+n69coVCslslkb5jN5uNwFbgYYYep3Wq1rm7RosWNiIqHF3/NZ0IQnE5nUKVSuS0Wy+arrrpqekFBAc/Mm9inAxarnTt3tly6dOk1FotlrCAIXRMSEtI1Gk24T8KCpdVqzw020d8wcKw5e3e73Q6r1bqpX79+s7du3Xq4Li1BTQwXF6eZEGBBbyYNVZfFPHjwoHz48OF3HTt2bElSUpKehJxmwLR2DfP7iRMnVu7bt++Rq6++2nEhZUDoWY1Go/vss89MBoNhuMFg0FdVVUkiAW3CM2u8JLHuDI97HBhQ4GfKCQ6hRhkpd3kk5nz4byToOBfJNjDTwvl2uz38M8ykXq8X3sr7kDkuOzv7y7y8vItZQuhxdq0/Nz09vRXKTmZZMtdGdg74zGbzhh49evzlu+++K7wQbnxNwxFArIbPPvuss1gsniQSiW5PT09PiXi5h/sc+hZtQUQ/hXkeA0u5XB5EfuHq6up/9ezZc1b//v13NoXdIQ1Hjp/U1AiwoDe1Fmm48sjEYvFEtVo9JyEhQY8ZCJm2KXELXmTFxcW5O3bseOBC1wrj4+M7+3y+5/V6/Z0Id457Y2YOsSXRrrEfPvyipPVymg3RHmGaJdEsHd8jyU/CTnIYCFBkNlxD9UA2tUAg4K+oqDit1Wpfe/vtt1fceuutF7L2ic9Lf0EQ1rZq1SoVJlgwwjMhABFTP6LBfXX55Zc/sn///iPsONVwHfpinoQ+uXTp0rjXXnuts91un1xSUjI4OTk5EX/HIA3tjP5IUeUodDJE3eFwhKqrq4vj4+OnTZky5cPZs2cHuN0vpjX42gslwIJ+oeSa/3Vo+xyNRvNGQkKCjmbAeHFBJMn0XVRUtHznzp1TarvVCgFXNm3a1Gn37t1vpqSkXKvRaORWq1WE++NlaLVaw172eBZmQRB3imAHIcZ5eHmiHGRyh0jjpYr/43/Y2033wmxZo9GExZWc+2oKLuqHe+I5IpFo8WOPPfb07NmzHbV98crl8i5erzcvIyPjCpSDZnIwvaM+TqczZLFYvhw7duzY9PT00tomuGn+3ar51wBr7EOGDLnh9OnTJqVS2S8YDHrPLhUpKPlOxPIT7muR7W34jnav7Nmz54TLL7/88zfffNNf277V/MlxDRqbAAt6Y7dA4z1fpVKp3k9ISLgdmcLItEjhYSGc1dXVNrfb/XgoFFp1AeuDNwiC8NLll1/eu7q6WuLxeMJr9XBcg/NYQkJCWJwxOyeTpkKhCNlsNqdCoXBUVFQcbNGixXfBYNAskUgsfr8/EAqFJIFAQKRWqzMKCwtbqNXqO91ut0qr1WqSkpKk1dXVIggrra+T1YG8zjHTwrNdLpdHr9cvrqys/FtlZSW84KN2llu8eHHiY489tjwjI+POs5aHcJ1owEEOVWaz2eV2u8cIgvCBIAhNNuNc43W9ZvFkkU6na+3xeLLj4uL+4vP5UuENTxYkitVP2QrFYnEI/bekpKS0a9euDw8aNOhznqk3i3aOqUKyoMdUc0ZfGZlM1lUul+80Go0KCBO9oGgvNUSqtLR02/XXXz/m22+/PR39nQX0qTZKpTIvJSXlGq/XK5bJZCLMoDGbxoEZdMT0Hl7nxqy5urr6lNvtLoiLi/vonnvu+eaKK644M3Xq1P8agAWBXWw2m27Dhg3tf/311yGBQODG+Pj4G41GowQOTbSmTbHUaV8xnouAIaWlpTDDv5qenj6rsLDwt8XwKI5QKCS+8sor7/zll1/eS01NVWNPPwYk2NeP7xhEKJXKUHFx8cdXXnnlqL1793Kq1Ci4NtVTYHLPzs6+6aOPPpqZmJjYW61Wi7GzAdYf6lPo1zXSEIccDoelS5cuw2+99dZ/8pp6U23Z2CwXC3pstuv/rFX//v2V+fn5LxmNxofkcrmczNG0RqjVakMVFRU+u90+dt26dbk5OTlROZHh5RcXF5fqdDrnp6en3y2RSKDg4cEChJRmszWSYngdDgecirZ27NjxzcWLF+/p06ePrTbWADwzLy9Ptn79+rQdO3bcabPZxsXFxXXGjB0R8SLOS2FvZbJC4GWMw2azVSQlJT1666235i5btizqADozZsxImDdv3kcpKSn9JRKJCAMSDExw4GeDwRAsLS0tS0hIuK24uHjfxXjVX4Lds8lVGYO4e+65J/OTTz6ZFR8fP0QikWhUKpUYbY1+RbnU0dfggCkWi72VlZXf3nDDDY/t2LGDU+U2uRaN3QKxoMdu2/63mklHjx7dLjc3d63RaLzK7XbLMMOAyOE7pVgtKyv7ukuXLiP3798f9ez81VdfRfjWeUlJSQ8plUoJzOkUaQvf8fLDuqNCoQgiq1V5efn+O+6447nhw4dvrYvIbhD3q6++OuPAgQNT5HL5qLS0tJSz+d3FeNGSmMMTHuZ+/C6TyTCTPqrVau83m83/rE1XgMd+IBB4KykpKd5ut4soch2eBV8Ai8XidrlcL40ePfrlNm3anEtH26lTp/Bn7tChQ6HZs2eHTf21MfnXpox8bt0SGD16dOKqVaumJCYmPq5UKuMlEomYdjpQ/ITINkv0badYLP6n0+mcKAhC1J+hui0x3+1SI8CCHiMtDhP0jh079IIgdD9z5kz3o0ePJmC9WSKRwLQcNgX7/X4ID2YQ7VNSUv4UDAbjKEEL1rYh6hFHMkQ3e2HBggUvR5tlCmKqUqmyfD4fMrslkQNbjSxWYdJSqdRXUVHhDgQCH48fP37e66+/fqg2M/Jomgt73mfPnn2zx+NZmpSUlAYfAVwHBnCcg6jjRZyQkIBdbZhN7503b96fpkyZErXn++LFi1tPmzZtTXJycu+auwNoOQF1cjgcR71e79ZAIODB+ir5C0ilUpHD4YD3NLJ6YW/8tszMzKKjR49ylrtoGrgRz9m8eXPchAkTnvB4PE9JpVI5LDS07RPFwoAO/UwqlQZtNlu1zWZ7+5VXXpn1xBNPXNC2z0asKj+6GRJgQW+Gjfb7IkPMTSYTzL9zDQbD9RCLyEuFvLrD67tk9qZtOJHZYVjE8TfMLCPeukeeeuqpIbNmzfqlFnjaCYKw7oorrrgegklZ3GhmHtl37nW5XFVms/mtGTNmvPzyyy/banH/Wp96++239/z8889XtG7d+nJYBiCotI6PoCHYTxwZeHhKS0tnbdy4ceGtt94alagiMElWVtZTer1+Fjz4yYwP7uRxj7qbzeZza+tksaCtdmgTPN/pdFZ4vd7cpUuXzpg0aVK9Mqk1RL7g/yEAL/i77rrrweLi4r/K5XINLStFwsOei74I87vVarX6fL7pfr//XbbEcGeqbwIs6PVNuAHu37Jly+5Wq/UNbA8LBoNhT2+IFcSFgrJQikjaDgbxxt8oVjUFY4l46r772muvPThlypSoxA1rjBKJ5C/JycnP+3y+OJjtKVxmjS1mwaKiIo/D4Xh98uTJc5csWWKpbzQoV3Z2dt+PP/54XQrSywlhh71ze9fJqQnlLSoqKujRo8e4Xbt2HYy2XHfddddVGzZs2JaRkZEE3rCEkOmVXu60rQ3fawbPoX3N+DtYYbubzWZb0qNHj2d3794dtaUg2rLyeXVLYOzYscr169c/oVarZ2q1WqnL5QpHDaQdD5HBc0gmk3nLy8uPd+vWbeg333zz77otBd+NCfwnARb0Zt4j3nnnneRHH3307ZSUlNsxM6ewp5gxUmxqEhlUFTNVmNcRSQ0HzdYxq4xs9wq1bdv29t27d2+MFs3AgQPb5ufnb09NTW2NazBDh1iSp3kkAIzbarWuffbZZ/9iMpkaVLCys7P75OfnvyeVSlsGAgEJbWej/cSwJiD4TEVFxTy/3/90tE5s06dPj5s/f/7qjIyMobTdj/bQU5IPzMZh5sd2ObQNRJ3OJedAsEJQnBMnTtiDweAUns1F2/Ma97xdu3apevXq9YRWq30MwZmwxIXPXcTSFf784QgGg8i2t3Hq1Knj586dy6lXG7fZYvrpLOjNvHk7dep0Y2Fh4edaTBOk0rBJGaZd2hONWSPlfSZhx99wUGQ1mr3j+srKyl+vvPLKftEmE4G5/913351gtVrfVCqV4RcanM4wcKC15eTk5OChQ4d+HjNmzPCVK1dizTzqfd910Tzbt29XZmVlPaDRaOZoNBosnIcHGxEhDwssuJ08efLEiBEjrn/vvfeiTnGanp7+qN1uX4ggN6gvJbihvfDkXV8zQA7YUOAeSixDXvJFRUWrJk6ceH9tvO7rghHf48IIZGdnGz7++OOFer3+Xq1WK8ZAuWYcBLQ/tjGWlZVZAoHAYy6Xa11D9/8Lqxlf1RwJsKA3x1arUeb09PThPp9vPcQZs0Hsh8aMEAftKScPbAgOhIOiqZGzXA0zob20tHTRwYMHn+/Spcs5z+z/hejNN99Me/DBBz9q3bp1DwgknkVZqnAdTMtWqxURtO7asmXLV42F+7PPPlPfc889uVqt9tYID/KVCxcJf/ttudP35JYtWxZHm4xmyJAhnb/88sv1RqPxCik8/n5LahO+Hw5aL8cAoqaQk9MgzqNoeWgPi8Xyr0GDBmVt2rSpQa0YjdUusfDczMzMFsePH19pNBoRFjgc3pjCF5M1CE6SFRUVR9xud5YgCCWxUG+uQ9MjwILe9NqkViVq1arVfXa7fRWyi0XMe+eSmFAGM4o3TmKL8/DCqXH4AoFA0GKxHBs1atSfV61adSSaQsCz/frrr7/98OHDb8fFxSVjtkmm5hrXB6xW6wdr1qyZkJOTUx3NfevrnCuuuKJXYWFhXkJCQho8zSmYDjmxQYzPnDmz6YMPPrhv2LBhUa3xI9FNly5dRickJLyUlpams9lsYTsrpVMlsz6xryng+B/aiMKHwrJSWlr686BBg/ps3rzZWl8c+L51SyDilHqrXq9/Q61WG/x+v4oys1EYZZlMBkEPnm1jU69evf7ev39/L4cFrtt24LtFnIQYRPMl0L59+zE2m20lZuhk3qWsZPgO0aD1dIg4xaOumdiktLT01NktZ1/37t37ma1btxZFS6NTp07yY8eO/V2v109WKBTYinXOmx5iidjmJ0+e/LVDhw6jfvzxx2+jvW99nYc1zz59+ryo0Wgm63Q6KfjQNjOaVZnN5mKJRDLa4XBsrUU5pBKJZGggEHhWr9d3UqvVcgywIoFGwqZ4DKrQFpWVlQgRGvZ1oOQz5DgYSYbzcygU6iMIAgt6LRqgsU+FqL/88suPSaXSv+t0uvDSEw4M4Ci0MT6jp06dOhoIBKaaTKZts2fPdrH5vbFbLraezzP0Zt6eHTt2nGCxWJbX3JZGEdkia7pHq6qqPouLiwtAcMViMba0BSP7ZUPBYNB+7bXXfj9hwoQ9Dz/8cEVtcAwYMCBx27Ztn7Zv374XzMnw9IaQ4SVGGdSKioo+W7Fixehx48ZV1ube9XXu3XffPXDz5s3v6XQ6I8qIQRDKTC9g7NsvKSmZFgwGF9SmDHctGBoAACAASURBVEhGYzKZ2ioUiptFIlFLBOyhdfKIjwKi1oVUKlWqVCodhWURygaHFz3KAoZ2u/1Q27Zt+x05cqS8Ns/ncxufQPfu3Vvu2bNnndFo7CaVShXkx4LPHXwssL4ul8uxnl7odru3Z2VlbWzduvW2lStXYqtig/qVND4tLkF9EGBBrw+qDXjPTp06jS8vL3+btknh0ZSgBAJRUVGxcdSoUXetWLHiv4U2DV1oYJdBgwZdvXv37oLExEQkRgmb8SmwBr7jBaZQKO6yWCwfNiCS//mov/zlL6rFixdvTE1NRRatcBz2ioqKsIMgOQ+Wl5ev9nq9oy9k9oRlCEzM/qgQ+fn5ojlz5ly3f//+3fQ8yumO9kN7lZWV/TxkyJC+n332GQt6U+k0tShHp06dBvz8888r27dvn1pVVSWlZSjcAm0OHxdYaqRSqb+kpAQJh4pEItGqzMzMj5YvX/5rbbMa1qJofOolQIAFvZk3MgS9rKzsbYonXSNSWXjWabVaNzzwwAN/rg+v6V69et155MiRj9RqtQhihBcWefmiPGaz2T5gwIArN27ceKIpYe7QocMTZ86cmWcwGMKMaHcAZlRw7HM6nUfOZsvq9umnn/62t68Oj1tuuaXntm3bdmHGhuUPCktLj7BYLD/36dOnb35+Pgt6HXJvqFsh/PH06dP/T6PRjNfpdOEkLhB1DHjx+SAfCtreiEBOOMdmsx3w+Xybx4wZ89aoUaMKo3XKbKh68XOaBwEW9ObRTv+1lBB0s9kcnqHTQaZcOHvZbLYNd99997C8vLyovNajxYE1w5deeulJuVz+ItbKKXc5zdBxn5KSki8eeeSRoYsWLYoqQE20z77Y8zIzMwfabLZNcIyDIzoEHQMS1AEib7FYPD179rziiy++KLzYZ/3+egj6999/vwsmd7zk0W7kQIXZemVl5c+DBw/mGXpdg2/A+91www3X7du3b4NWq00KBAJS7EtHGyM+A31OKRYBRB4meYPBgNDA/jNnzpxWq9XvXnXVVe+/+OKLv7CwN2DDxcCjWNCbeSOSoGNGTCZj2mcOgbLb7RsmTJhQ5zN0k8kknzNnznK9Xn8fRYYj5y/y6C4tLV0QCoWmX6hJv76aJjEx8QqHw7E9KSkplSLloeyYMUf24vvOCn4PQRCQKa1ODwh6fn7+ruTk5PDsvGa6WnA7ffr0z/379+cZep1Sb9ibrVixQjlu3LiF6enp+GworVZrONgMDXZr9jWKAYESoi8gJLHD4QiUlJTsDYVC7/bp02fdzTffbGOP+IZtw+b6NBb05tpykXL/XtAhUOTBjlmn1Wr9fOLEicPq2uRuMBi0VVVVmzIyMnpRjHR6NoXAPHPmzFOhUGjehaxF12ez7Nq1y9C7d+/3MzIybqb49liqoFCwVVVVfpfLdUcgENhU1+UYMGBAeIYOSwC40UCMdiJYrdbDvXv3vpFN7nVNvmHvl5mZeW1RUdEbGo2mS1xcnJoCDtFWSep36HP4HxwzKRQzHOdQWqfT6cLA0+12/3379u3fns0d4G7YWvDTmhsBFvTm1mK/K+/ZLF3jXS7X2zX/DCGHaQ+mvOrq6s8nTJhQ54IuCIJOqVRuSU9P7x7xng8XAWJOTnnFxcWPCIKwpKkhPnbsWMJll132Xlpa2hCaGdWMwW42m/1er/fuQCDwSV2XvV+/fj0PHDiwC+F3KdAMPQMvdIvFcrhv374s6HUNvhHul5mZ2a+wsPA5iUTSMyEhQRVJUHQuVTHFiSC/FwpCg1k6zPPoI9jmCMc5qVS67pprrpm/bds2/CHY1AbJjYCXH/kHBFjQm3m3UKvV4xUKxdsUOpReDrRmZ7PZ6mWGrtVqDVVVVZvbtWvXDY5klFWNRB0vp+Li4ocFQXi9qSH+5ZdftB07dlxhNBqHUbkprjq42Ww2v81mu0cQhA/quuyYoe/cuXOXXq8/lziHBb2uKTeN+2HHw7JlyxLfeOONTvv27btZKpUOVigUmYmJiTq32x2KpCw+lzAIVhr4VlCO9Ui4YGwtxcAcaYe/NBqNf3v44Yf3/vTTT4G8vLzfYjjzwQQiBFjQm39XmKDT6ZYjfjrW4GiGDFMutmM5nc76mqEbzs48Nrdq1aobTMc1hZzWpYuLiycLgrC0qSE+fPiwpkuXLisNBsMwvDRphwAsDZHsdEimkS0Iwsd1XXYI+p49e8Jr6Dab7ZyTFJ7DM/S6pt107gdxf/7555NNJtNAQRAGGgyGAX6/PzUuLk6MwTjlX6gRWS5ceMqHIJFIgoIgBMrKyo5dd911r/j9/vV79+51Np0ackmaAgEW9KbQChdXhglGo3E5RvZ4KdTMeY4tZPU1QxcEIUEul29JSUm5nhy7aO2cvOxLSkqapMl9x44d+r59+65v27btQMyKUH5yiINZtKSkBCb3ellDh1McZujwbsYXsWNBv7gPQXO5Gil9J0yYELd9+/Zr7Hb7nQ6H416lUmlUKpVSyrOAfkH9EvWiSHMymQzm95Db7a6wWq2L9Xr9goqKCsT856A0zaUD1HM5WdDrGXAD3H5CUlLScnjRUtIVCilKXu5jx46tcy93QRDiBUHIS01NvYVm5BQ+Fd/xt9LS0udCodALTW29r2vXrmkHDhz4ND4+vhtm5DCzU0hcvFRPnz7tCwaDg/1+P5LJ1OnLEjP0vXv3htfQaQ889RGeoTfAp6UJPSI3N1fy+eefX7969ep7JRLJSKPRaEDxyMmUgtJQciWygjkcDp9UKnXa7fb3Ro8ePX/58uUITlOn/bQJYeKi1IIAC3otYDXRUycYDIawoFMMd9oTjtmfy+X67Mknnxxa19teEHHt7Pacl6RS6aPYz00ZwyhaHGYS5eXly/x+/2SRSNSk1vo6dux43alTp75JTExUeL1ehMINswO3lJQURGvzejyertXV1Qfrus0h6N99990u7N2n/e8s6HVNufncD6b4CRMmxOfn5/cwm82PBYPBG1u0aKF2Op0yygWAGTv8VGCFw0A5YlEKVFVVeSsrK/OvvPLKRw4cOHCcRb35tHt9lZQFvb7INtx9JyQnJy8n8y3l14ZIRbatfZGZmTn06NGjdRrcBfvQTSbTOIPB8AZMgvQ8mlXg5VJZWfnvQYMG9fz444+bRBx3apLU1NRsn8+XS7NkvCTBj/aFWyyWyhEjRnRcuXJlnae5vOKKK3qWl5fvwgAIX7AMsKA33IelKT9p48aN2mHDhmWHQqEn9Hr9ZYj9r1arxZixU8ZECDsGgxiAwtsd4YtLSkoOyGSyCT6fb29Trh+Xrf4JsKDXP+P6fkJY0CmrGgSV1oQjCVM2ejyeYYIg1LWgS1944YV+Wq32SzwbU3Q8r2YeaLvd7heJRL1sNltBU5k9wMw5fvz41yQSyWS9Xh9OoUq80FB4UVZWVu7s16/fLVu2bHHUYePRZ+0GlUr1jdFohMMTErb8XtB/7tu3LweWqUPwzelWBQUFstdff73LypUrn9Tr9XeKRCIVBn20G4Nm6zQQjCRCClkslkPJyclD4TTXVD5rzYl7rJSVBb35t+SEtLS05RAGrAdTKk78DIEtLy/f2rt370dgTr7nnntEarU6vNaG//3yyy8hBK9o3bq12WQy1SpoRSQHdCulUvmd0Wg0OhwOEZ4JQccsAjOKyDr6C+vXrzfl5OQ0CbP7kCFD2m7atGlzmzZtMt1u938IKtgplcpQcXHxfI/HM6O26+fZ2dmS9u3ba41Go/6s74AUDHBAuF9//XXh3//+N37tFB8f/wH2GiPsLBhRzADwQyz3Xr16saA3/8/lRdVg4sSJScuWLRsrl8un6vX6ZDGUO5L0B30mshsjLPQQeexosVqt+wVBuF8QhIKLejhf3GwJsKA326Y7V/AJer1+OczH5IxGaRsh2m632+52u08hbSr9H+vtCFyBVKHBYNAnEol2d+jQYcXq1asLunXr9t+ysv0Hqcg2nLjnn39+ZYsWLWABEGH/LF40lHQEQlVUVPR9hw4dhh8+fLjO46LXtungYSwSicYajcYFKpVKCz6UQ562/VVUVPj9fv+DTqfzP4L1nO9Z2dnZhn/96193HDt2bIxSqUz2+/3iiFlUSEhIEGGLmlQqDSmVSkV8fHw78jXAC5nMqDinoqLi5379+rGgnw/4JfD/gwcPyocPHz7oyJEjs5OSkjoiYRsGh4gqhy2WNGiugQKpf7eq1eoRdrudk/tcAn3k91VkQW/mja5UKieoVKrwtjUIKgbytH0MgoIPPUzKWHfD/2nWSFHKKM2pzWZzhEKhWUOHDn0jLy/vt43l5zlCoZBEqVQ+LhKJXkhISFBGZqPhq/AcmOIrKyur7Xb701u2bHmjsRNNzJs3L/XJJ598r23btjdbLJZw3GwIKg68IDHQKS8vL8jKyrpn06ZNx85X/xr/b33W639+QkLCMKVSKcZ9KYwsBldoB7BAu1DQEArzSY6MuBfayWw2HxoyZEg/Tp9aC/oxfCoGzj169Ojwr3/962W9Xn+LSqVSwBpG+RMwaEYfijilBn0+X6iqqurN0aNHm1asWAFRZ+/3GO4fLOgx1rg6nW6sSqVaQU5ptN5G8dxRXXz4kdkLIktrxpjRU2IIiDuus1gsxV6vd1IoFPq8FutwvRQKxaqWLVu2x753PAuiReFfVSpV6Pjx44f79+8/MD8//1Rj4ceL8corrxx1+vTpN1UqlYoi6lFCmciSBWY46/Py8u4fMmRIVEE7tm/frsvKynrxsssuG+NwOFQ1Xq7hwRWYgwsGCxBsapeace9hHYis3WMp5Mdu3br127lzZ0VjseLnNj0CnTp1yjx+/Pjf5XL5n9RqtTIQCIRFHf0GTnMYRELcKyoqYHWrqKysXBgMBl+AW0jTqw2XqL4I8Ay9vsg23H2HGI3GTyJJPkTk4EWZnWo6qkFcKD8zJQOh8/AywIvBYrFsuvHGG8fs2LHDHE0VcnNzVTk5OYt1Ot14vGDofljXwyCCco0XFRW9+Oqrr86ZOnVqVLP/aJ5dm3Nuu+22jlu2bNlgNBpbR9Yjw34ENAABG7PZ7LrrrrtuXr169a5o763VagerVKoPg8GgkgZTqDsNamrG6UbbwFyK7/g7no+fwZ72Glut1m0zZ868vbY+DdGWl89rvgQ+/PDDxMmTJ78aCoWGBwIBRJkR43OPL3ye6bOuVqt9paWlAafT+cjgwYNXb9q0qU4dYpsvwdgvOQt6M29juVzeMRAIfJ6SktJWIpGIKHwpVYu83inxA/5O5mBax8UsFV+JiYlwrKlu3bp1n3379sHB5rwHZr4ikWjA2YhxGxUKhQyzUTLzk5jBGmC1Wi2XXXbZ5L179+bWYvZ/3udHc0LXrl0Tfvjhh5eSkpImxMfHyyorK8MWCRJSiGpkprPjjjvuuHPt2rVRzY7hBPfJJ5/8VavVPkOBfcjLH+Ui4aYtR3jpQuzx4sVLGM+kbGu4zuPxeIqLixeGQqGnm9re/Wg48zn1T+DNN99MmzJlyiKDwXCrVCpVYk2dgiKhb8HyA58MlUoVLC4uPtqpU6fRBw4c2F3/JeMnNAUCLOhNoRUuogzZ2dnyvLy86QkJCdPi4uI0fr9fRltaaqZopLSN+B+EhWbrEHoy1+Nv8Jb1+XzTZ86cuSCaYDQRQUfUuJUtW7YcRo5gqBIEHc/CLBhhK4uKigo7deqUc/DgwQbzwh04cGDct99++7xEInlMKpVizT8cBAc8KBgOymexWGzV1dVIJrM22uYYOHCg8Ztvvvleq9W2xuAA9yTHQwh0ZEtRWLR/n1GLBlPURpEIdT/DOvL111/vibYMfN6lR+DLL79MGDFixAKXyzVKo9Gc+7yjT8EqhiOyvBYsKyvLHzp0aM5HH31kufRIXXo1ZkGPjTY3ymSyFwwGw9i4uDgZOWJRSFZUkRzlKCwsZo9k5iUhgijhpXD69On8v/3tb3c/88wzUb0EIOpxcXG3+f3+ZSkpKWk0M4W4YwCB72KxOIT7FxcXf9W5c+fH9u/f/1N9ox88eLBi06ZNf1Gr1bNatGihrK6uFtPAhtb4I0sEAbPZvHX27Nnjnn322eJoytW/f39pfn5+lkKhyE1NTdXhRYoZEh2oMw7M3GF+R91xRFicCyiD5/v9/pDVag107NhxzJtvvpkX7U6DaMrJ58QmgS5durQsLCx8S61W3yyXyyX0GaZlr8igPYhltLOWu+c3btz4Iver2OwLNWvFgh4jbYxQrIsXLx7r8/nuVigULXw+nwyj9Mi+9PBWFwhLIBAIKpXK+MTExCRsrYKo0+yRopfZ7fYyp9P5gN/v/yxa83hmZqbC6XS+IpFIMMsNv2AgmjUFjjKbWa3Wnw0Gw+OrVq36qr483wcNGmTYtm3bMzqd7lGZTCavGWYVM2aaoZ/17A9UVlaWGo3GISdOnPhXtN1h586dmqysrDdTU1NzPB6PBOzIhE9bipxOp7OystKsUCgCeMHiIOsJnJqQQSsQCDjFYvGerl27LtqzZ88P0T6fz2MC1113XeaBAwfeNBgMvRXoZIHAuWUc8pGRy+Wh0tLS0263+6FQKLQh2s8z022eBFjQm2e7/WGpt2/fLj18+LDhoYceyoBzO52EmSNG6hA1CJlarb7G6/XO0uv1aTWjUFFwGolEEjh58uSyqVOnPjF//vyoo6XddNNNrXft2vWZXq+/EuvEWDuHuEHoKNIVlcFutx9t0aLF//3pT396a9GiRXXmtINIcG+99Va7L7/8EuEzR0qlUjVmLdh3j0ENLTlEwq4Gz26p8/j9/v979913Z9Ym+M3QoUO7btiwYW1GRsZlqCv5KtASA/b4nzx5clsoFHpJEISwHTRyDkY5Ivx8/fXXByZPnlzt9/tPjh49OmrOMdRluSoXQQCWsczMzP4nT578R2JiogF9mvo6WYbwmT5roQoUFxfn9+7d++78/PwmFYb5IqrPl/4BARb02O0WouzsbLHZbP6PNs7Pzw+9++67ugceeOAdzEp9Pl84OQm+aBaJLTAlJSVn0tLSco4dO/ZNLRH9WaVSYeaaVFVVFd5aQ+bASCS2sNXgt1WAEPKOfyKVSt+YM2fOd0888cQFixoc1Fq1atVi2bJlN7vd7lfOBo9BetdwcBcMZshCQaZ2TGhsNluwoqJi3fz586dNnz496kAc8C5OTU19XiwWPxPxIQiHkEW9MIjBi/X06dNVIpHofq/Xm1dLfnw6E4iaACISKpXKhyOxINQKhUJCM3UaSGMrm1wuD9pstmeWLFmyYNKkSVEFj4q6EHxikyHAgt5kmqJhCgLh69y5c+jLL798YN++fUv0en34BUDr6Vj/hqk+EAiE7Hb7SwsWLJhdmxfA2QxsysWLF48/fvz4gri4OJHH45FB4DBjgAc8fiaP+4SEhBAGETab7aTT6dzWvn37hSqV6pcDBw5A2NE3owqKMWDAgJT8/Pz+wWDw4bi4uGu1Wq0Gz6C99/Q8zM5RN3gBn7VQBBwOxw9+v/8+k8n072gcAKmFJk6c2Oqtt976KiMjoz2WMSjTXcT6ER4YWa3WUzfccMON+fn5jR4hr2F6Fj+lsQiMGDFC//7777+CmBRYT6fIgxQJEf0+Li4uePTo0Z+6du167/fff3+ITe+N1Vr1+1wW9Prl21TvLu7Vq1fSwYMHf9BoNGnkmV5zGxdEsLy8vHDMmDF3LVu2LOq1ZVQYg4YPPvjgOYPB8KBarU50OBwSmi3QLB1CSOKOa5A2ym63u/x+/w8ej2ezRCLZJ5FIjovFYvvgwYMdEyZMCBYUFEjmz58vnjFjRty8efPSA4HAlaFQqGMoFBobCoUUqampcoS4rXlv2ndPAV/IOdBsNhcOGDBg3BdffJFfm0Zq06aN8syZM08nJSU9FQwG8bzwzJy2odHe8rN/M91zzz1zly1bxrOh2gDmcy+IwIABA9rt3r37y4SEhJYqlSq8fZQyH6LvR3ZhuJHSeO3atU/k5OR4L+hBfFGTJsCC3qSbp94Kh0QPmP2+qtfrJysUinBCc0oUQgEq3G63x2KxvFhQUDC3th6yEyZMMLz99tuPpqSkPAXPe4h6Ta96zBrod3IUg1kce8Qj+cmrLRbLr4IgYE94dcSxDK7iErlcrvX7/Wl6vR5BYgSDwRB2BkIsdDogsDgo8UkkVGbQ7/cHKioqzIMGDZq0YcOGTbXd761UKtu43e617dq16+F2u8NOheSfQPWwWq2n5XL53YMGDdqTm5sb5NlQvfVjvnGEAHxHcnJyENzpBb1eb6QYB+SzEgkxHCwvLz+jVqv/ZLFYDjO82CPAgh57bRptjdD2A+Lj49+Jj49vCQGEMP2W1Ok3IcTe8RMnTqzat2/f5KuvvrrW69uRnOlPxMfHP46ZOgYN5GFOwTDwHFq7x0AiKSnpnGkeAo8D10CsYdrGQXHoKXwqWRhq5jVHXXBEBgcQ/YDVarUjzeTgwYOf3LhxI3KSR2XSrwnUaDT2LCsrez81NbUlnocXJg5KSANnuNOnT39oNBofPH36tOVCnhFtA17IeVjz/+mnn2Rms1mLzHtOpzOg0WgctR2wXcizY+UaOJ+azeZQbZwoG6LuS5cu1T/88MNvpKWlDVUoFHJ8rrCEViOYUQhLaWfOnFmUmZk54+jRo3XmjNoQ9eNnnJ8AC/r5GcXkGZdffrnmyJEja/V6/UCpVCrHh562utCaM9abT548ue6nn36adMUVV9gvBMT06dPj5s+fP/xs/PSXjUZjUs0ZLYSYoqaR+Z3indeMuAaTNsoCj3mUk/Z4U9jUmuUij/OIF3v4Xzjf5/P5LRbLp4MHD561cePGny9UaKVSaZZEIllrNBpTKdkNBg+0jo7nWa3WIrVa/cSAAQM+yMvLa1KxtOGd/+mnn+aEQqHOiA2ANPZ+v3/vww8//N7SpUtPXkgbX+g1EYdCnSAILTFui8Qd/21EWbsjoFAoqj0ej61Nmzb2wsJCCFWtB2vne6TJZErdsGFDrz179nRRq9XlTqdzqyAIR853XUP+v1OnTteWlJTsUiqV4BlmSYNa/KxUKgNFRUXHe/XqNXzHjh21WkpryHrwsy6MAAv6hXFr1lc99dRTbRYuXLhIqVTeqtFoxHAeQ7Y2ymMOAYwkLQmePHlyyfHjx59s27ZtrfKl1wRkMpmk7733Xo9ff/11WnJy8v/H3nfAN1mt/2fv2XSmE5kyVAQHcvUWRBG9IsPiYqsgIFxRkQuIRGWKoqKCIEtFgSJblKWAUvQiGxzs1ZU2XWmSZufPN+bhn9sfdI+0Pe/n00/a9B3nPOe853ue9X0eUSqVImi3AGhabAjQ8TeAmkhxyOeN+wV/R9oxPoMjzHFPbAZIK3G73Q6TyWSMi4tLvfPOO99Zu3ZthTjqbzTAbdu2bffXX3+t0uv1HfBcIs4hFwI2FFKp1INCNzab7dX4+PhNFy9erLLsamqiderUSfjnn3/25HA4n6lUqnC1Wi2ArNDu/Px8J5/PP/HCCy88P2vWrKNV3exUsq1CtVrdx+FwTODxeDcFBUH616RgDgOqIIjvyRJCMRGBc1GW1mu325Hvf5zP5++PjIw8yufzT8bFxWX+8ssv1aofgI3HkCFDblu9evXnYrE4ic/nS5xOp5vD4cC18pZGo1kbCmMMWQSsYnP1ev0o8L3TxpaKAkF+JSUlyC6Zd/Lkyant27dnvvRKTtxQPp0BeiiPTi20rUePHuqff/55LY/HewDc7cH84mT+xid8zpmZmfklJSUgpPiGy+X6c82qc9xzzz2R+/fvf1EsFj8ll8ubIwqeqFJxX/LdUz13Kg1JGw0ANfmr0T58D3M8NGUAeIB1zd9EfMfn821ms3mXRqOZt2fPnl9qYvFCRPE333yzLDEx8TGLxeJPVwP4wIJAufb4DgCTnZ2dJZPJXi0oKFhdHbnV0LV3cDic5YmJia1dLpcfzOHegDwhS6vV6jUajZsNBsMQg8FgrqFn3ug2fA6Hc7dEIlkLZkEiNAr+pAsBQJAvNnm0gaIASyIHwrjjPJxD5zkcDntRURGIen677777lnfv3v0EYi8rk81Abdi/f3/YPffc81lUVFRfmUzGxWYiAJAes9l8pXXr1n0OHDhQodoHtSxXuv1dAoHg86SkpFYOh4NL1RSJJRGWGaPReGb69On3T5w4sd4qINaRLJrUYxigN6nh5kTxeLz5CoVigFar9S/mRDoTACG/6Rjf5+fn+5BD/eqrr46YM2fO/482q6a8UlNTRTNmzEg6derU0zwe7xmZTKaXoR6kROLfXAT7wwNFJvyLNRYlMr3jk6rK4RNBcQAoKiOZlZWVw+Fwjrdu3XrB0KFDf37llVdq0pcNPvguYrH4a7lcDlPxtQIrRF5DwIR2Z2ZmZsjl8pc+/fTTzfUYWcwVi8XvabXacTwej08bHwqChNw0Gg2qzdlbtmw55NixY6nVHOYyL0f9gXXr1r2l1+sneDweXrA2Hvw7ce7ThonIe4i2mNwyBOxUkwCfmE+BeA2QquQ6nc5PsaFJTk7O3L17t6cyVojWrVt3vnTp0jqNRpOAtiC2g1LC8FlYWDjS6XR+Vpl71qZ8582bJ3355ZcnqVSq11Ga1263c/GeUxEisMdhzCMjI4f8+eefX9ZmW9i961YCDNDrVt719rSUlJSwtWvXrlEqlffrdDouosmxMAFEAeJYPAkk8Z3FYkkbN27c4NmzZyPSvMYPmOH5fH7ie++917uoqKgbj8frHhYWJkcbsAgRIQ3aQqZ2Ctgj8zwBO7RxHCUlJUdKSkoOJyYmrlOr1YeOHTuWWxuLrMFg4L333nuDfT7fzLCwsBgsjmg3QJHcBURgA9CBFme321+z2WxraqM95Q1Oq1atYq9cufKbTqfztxXAGFyPnSiCsQHJyMjYPGHChIHvvPNOlWImymsL/v/zzz9roTU3a9bsMQKZYEsNgTrGGW1Dm/F/ajf9nyK5gwviyHhXyAAAIABJREFU0IYwQF7kB3VQ7CKGwmg07n366affaNmy5YHKaOoikaiPTCZbo9FoRADwgFvFv/nEc7Kzs9+4WsQQtcdr3G9fEXle75xbb7211aVLl46oVCppMHkU2o4DsszJyfl28uTJTxkMhr8rurCjwUuAAXqDH8IKdUDN4/E+1ul0z6hUKi4qqoHRDC83FkxEkENjBzAGXvi9r7322qiJEyf+WaG7V+MkRAzv3btXs379+ptdLleHU6dOdRYKhfchx9vtdotFIpFIKBSCGx7mbV/Ah+r0+XxOsVjs8Pl8KCCzrXnz5sdatWp1dNKkSRmdOnUqqW3gRD56fn5+X4fD8W5iYqIeoAMAwicAB5ukIBMnFv0MsVg8uLCwcE9NuC8qKvJFixYJR40a9aJUKn0vPDycS/nJZEUIlG31gxM2UQUFBUaFQjHIaDTuqi0ZHj9+XHvLLbfA/P8/gE51BdA32rSRG4Yq4+F/VL2Ocv4pRZFM8vgbQEumZqpD73Q6fUVFRahoN0ylUh2qaMCiTqfr43a71yDQjDYZiDvBxjM/Px+b3zeuujGm15a8KjrWweeBC2Lt2rXLoqKiBsFNgPZCLhSjgvcoOzv7ol6vT7ly5UqdVT+sSl/YNRWXAAP0isuqoZ6JIiApQqHwo9jY2AjQsRLnMwCcCFEIjCwWyy8vvfTSoLlz556rjw7Pnz9ffOnSJaVIJAoXi8WRy5cv1126dEmNdVwikbjtdru7Y8eOud27dzcJBAKjVCrNnzZtmrU+FlNsRnr37j3QZrNNj4mJiaVKdsGpeOTfFQgESAHcNWrUqMELFizIrivZpqSkNFu/fv3q6OjoOzHWsMxgE0c+50B+8jVqXMyDrKys5TNnzhz/n//8p8ZcLcH9hYberVu35XFxcY9BZhSHULrsL206yDJD9yArCPpB/yPqYsie0i+DUyOxycKPUql0pqennxo+fPjAhQsXHq/IOCiVyj5XCYzWqFQqfzAn2gvrFlxCeEZWVtbUq0rvjFDS0AP9GiAUCj/W6/XhTqfTv9ZTECfmJQoDmUymGQcPHpzL0hYrMhNC/xwG6KE/RlVuIaJz27VrJ/zjjz8WxMXFDUeFL8pLDWZQQ+603W4Ht3rasGHDXnjvvfegmYeM+RDc6UFCQKpVyLTNYDDIPvroo8ddLtcssO4F3BZ+kh4sngGTOwf8+GazucDj8Qw0m83fVXlQK3FhIC1sVFhY2HsikUhCNLW0eSNXC24J/z/ai3ZeuXIlKyEhoc+FCxcOVOJxFT4VGvqtt966PCoq6jGqI4+LiWgI0epOpzMTlQGJiphAH75g/O5wOBDZjgA1BFaCbAgWHWV0dLQY4EX+dIA+5WOjvwETP2iNl7/77rujx40bV24uNjR0l8u1Jjw8XBQItvRbsygws6CgYOrViPIZoTQvIc/o6OikoqKi5Wq1OpliZTD2OAIWGRQQ2vLwww8P3bp1Kwic2NHAJcAAvYEPYHnN79Kli/Tw4cObNRpND5xLkeNUdSyQNuYtLCz873PPPfd0Xl7elYqaIst7dhP5P7dTp06Co0ePorIbcu0jACiQL8kYvnViwCsoKHjBbrcvrovFv1evXqoffvjhe61W28Xr9SIw7pqPnwLMaIzIjx5wHQDw3pw8efIsg8FQ42lNAPTbb799eUJCwmMARvJ3k/ZotVrzi4uLb+dwOKgM5uvVqxfnrrvu4uTlwbvC4SA7w2azIbCLq1AohF6vV37p0qWYDRs2/MPhcNwvFov/ERsbK3M6nf4yvgAvgHkQ0Qo4CUo6duw4KC0tDSWCy8zgkMlkfUQi0Rq5XO4nawnUOvB/wpQNQPd6vSGnocOCNGrUqMlXSXCmIT0VFgXKECC+hry8vNzWrVv3PHbs2JEm8r426m4yQG/Uw8vhANAPHDiwJTIy8n7KRQ3WXvA7qjGVlJRsSkpKGnfu3LnMAMFHI5dMjXUP7xD/as7z40qlciGfz9dAG6JUK2KSI5Ow1Wp93mazLamxp9/4Rtz777///v37929TqVR+YCMfaiCYy1FYWGjR6XRaLpfLo7Kvgch3sN398eKLL/b+4IMPajwokjR0ADqRCwFoAO7Y/GRkZOQLhcLWxcXFQPAKW2NgyVmxYkXkyy+/3P1qnIghKSmpRSD2wi8lClQMcJx709PTN3799dcjn3766TIr7cHkzuVy1ygUCj+fMLlRoO0CJAsLC9/wer0hFRRH02LQoEHt169f/1/UObBarQhE9W9sAkyQYGVENssQq9XKot3r4KWs7UcwQK9tCdfz/UEocujQocVJSUlDsSunFB/4AGFmxXdxcXHIQYaW/o1QKJxst9svYd2q56Y3hMfj/cEi31+hUHyoUqnCYDkm0hNocERTi864XC6zxWJ50mazfV/bnVu0aJF65MiRn0ZGRj6JzQTaQpkNeHZmZuZuDofzCY/Hg6asQGoTRY8HwN+SlZU1JTU19ZOapjgNBnQ8C2ZwbDbwfIBNSUlJ/gsvvND6vffeqxSgB8t0+PDhnZctW7YsNja2PVwPlMFB1MMulwtuJiM4EUwmU5kFeioI6G/X9phW5f4pKSnSTZs27ZPJZLdT4CtcBZijpLEbjcalH3zwwZiKuB+q0gZ2Td1JgAF63cm6vp4E8+8gAI5arVbbbDYuWOFocaeoV5BNoOCZ0Wjc7vV6x2PNr4x2VF+dq+fngiCln0aj+UAsFkdxuVw+5UYHp2EBRJD7e/bs2R/nz58/dNy4cbVO5tGuXbtuf/3117KkpKQk5OgHR9wDzGw227NCoXCD3W7fpVAobhcKhX7CFPxgs+dyuVDIY2+vXr0Gbt68GXOhxo5gQKfUQ7o5fPjnz5/P//e//w1Ar3CN+tKNg7au0WiSi4qKPk9MTIyBn50oegHu2DjI5XL4kP991Yr/UVmdKwvQcc+CggJo6CEJ6OiXVCqdrdPpXuPz+f4sBwJ0yg7Iyck5+vLLL/eYNWvW3z4NdjRYCTBAb7BDV6mGhyNPNjo6eqhAIAAdpJ/Mg0zwWNyQguN0OhGEhIV809WSpRO2bNlyoaJPgb/ujz/+CD906FDcsmXLJEuWLCn0eDzZI0eOrPKiXNFnV/Y8pHK5XC79vHnzIs6fPy8eNmxYwYULF0A4UlQJ3zY0c4D5ApVKpXK5XPzSdLXQzimjIDMz09KmTZsnT5w4gQpvtWr9+O6778QPP/zwfARC+nw+AUzZ2LhRTXqLxXJWr9ffe/HixWwUkQlo6v7KcUH8+P5a9RwOZ0heXl6NmmNLm9zJ3E8panl5efl9+/ZtvWrVqmrNHYzz22+/Pb2wsPA1bGKpABHGhLI7jEbj1/fee++QPXv2gMr1ukcjAPQBYrF4qVQqVcDkjv7D94+NGzagmZmZV3w+3+NOp/O3Ssz/yr527Pw6kAAD9DoQcig8okuXLrG//fbb4rCwsAe5XK6AguMoyphY4wIkHCWFhYXfdujQ4aXffvut3BSr8ePHS99///2xAdNzOKhFvV4v+LMLlUrltE8//TQtJSXFVttAVp6cDx48KOzfv3/cpUuXnhaLxf1cLpfG5/PxZTKZzWq1nujYseMnLVq0SKtAUCCPz+f3k8lk76vVaj20wQD3vd/EHtD+/M0BSF6+fNkRERHx1u7du9+tCfrZ8vqZnJzc5siRI3vkcnkkzM200UAbeTyeJzc3d85zzz1nWLRokTsmJubm7Ozs1TBNI2Ic7aVoeCz6TqczbezYsY/UJFtgaZM75YxDc8TvBQUF+WPGjKmWhk4yatOmzYPnz5//LiIiAtYUvwUCIEa+e5vNdjw5OfnO77///obR7g0d0GfMmNF+xowZq3U6XTsqhhSYC34xZWZmFgoEgpf69OmzsgJzv7zpx/5fjxJggF6Pwq/LR2Nh79y5c/zRo0ffiIiIGBYg7uBBIyMOckptEYvF3pKSEp/FYlnbs2fP1zp27JhxI2atQYMGNfvyyy8nJyQkDL9aqIJH2iB8tvDRWSwWj91u/4nD4XwzaNCgzZ999llGXWsBc+fOlU+ePLmdz+frzePxnkZNc/CYg0ELWqvFYkEqHGIKSsxm82gOh7MGdPA3GB9o5v+SSCTLdTqdHBsCnEfWDmI0AzAiRqGoqKioU6dOrw8ePPiz/Px8V2UYyqoyP6CVjhw5curVqlpTIyMjr/nwyQpjNBpP33LLLU/GxcUdDyzeCg6H83pUVNR4oVAownygjQi02rNnzxYkJyc/88MPP2yrqXErDeiQPdwCmDMIijt16lT+888/33rx4sXV0tDRj3HjxiUsX758i0aj6QBec0olBKDhyM3NLXa73UkoktdYNfTvvvsu4uGHH/68ZcuWDyLyH3OBaiAQSU9WVtZ7v/766ySWj16Vty50rmGAHjpjUSctuffee2N++eWXpVqt9gG5XC4gEys0dKLNREPgyywsLHRYLJave/XqNen222/PDQaj1NRUPhjePv300w8jIiL6+Xw+Ka4HCGBxpoUC2hBy3C0Wi7W4uPiPq7mxK9q3b79n586dZ68CibumQKK08EDPevr0aXVxcfEte/fuHWY2m7vodLpmIpFIEGAk8y/u6D82IQGXA6qkGa/ShL7u8XhWBMcQBHK6kQ/fRygUzouLi4tzuVz+ADiqAEYpTbSZKSkp8chksv+kpKR8NH/+fGdt9TW4761bt2526tSpDTfddNOtVKwEGnqABQ6bjMVdu3Z9NS0tDXSfiCDn9uzZ8w6kb4WFhelsNhsf8qG0NoFAAI1+8bfffjuhZ8+e1pqYpMGATsVUqIZAIOsif/DgwTUC6KdOnQpv06ZNqlar7YbNAnzIODDeeHZRUZGlsLCwJYfDuaElqqFr6KmpqdKnnnpqeURERIpUKuWRHx2bT3Kz5ObmLtm3b9+4e+65p1qV6WpifrB7VF0CDNCrLrsGeyXM7//9739nRkZGDoRWTfzexMyFhY7SrWCiy8/PT01JSXnV4/FktmvXzjdt2jTf1QUicf369TPUavVTgQhlv2kXiwT+Js2ftH9i9UIuMc6xWCwbuFzuf6OionZ9+OGHR6sbSR0AXN/KlStVY8eO/afFYunucrnAW98e1HhUjIYiqSl4DZ9UfhWLG0qfQpO2Wq2jPR7PqiBNXcTn8/soFIrPFAqFAmZ2WhBJO8eEQD+xYFqtVmt8fPykZ555ZtG0adNcdQHm2GQ9/fTTLysUijcVCoUUGwz0iUrUgozlpptu6nrkyJFfgifv0KFDJV9++eVClUo1RCQScYnpjjYqFoslA+OclZX1c01M+htp6Nh0QH4mkyn/6aefrhFAX7ZsWcSzzz6bmpSUlExAhjmAeY1NhNFotNjt9ps5HM4NAxUbOqBjzJo3b/58Tk7OJ1qtFnn7/neQNqOYH1lZWd+3bNly0F9//cUC42piktfTPRig15Pg6/uxXbt21R84cOALrVZ7f3ApUjIZY/GDCR6LOmqK5+TkfHX33XdPevDBB02nTp2KWLVq1eyYmJgnEERL5jv0Cfci6s1Avq9/8SDmNMqFBq82NHdo7fHx8Z+sWrVqaTXNfdyuXbvG/Prrr6/zeLz+Op0uAmQq6ANZHij4Cp9EM0rMWcE84GAoKy4uNlqt1kkej+fzQK3u/lKpdF5MTIze7XbzKaiIUq5wH2IRy8vL88lksikHDhyY17Jly3KZyGpqLiQnJ2vS0tLW6vX6HuQjJrIWyN9sNv/cuXPnR9LS0v5P4RWdTtfX7XanKpVKfxAdNjpE+IK+FRUVzbhqcZhaExuT0ho6AQvGIACy+YMGDaoRQIfF4syZM5siIyM7ED88jRmeazabC61WKzT0G5r3NRqNn/oVxDIYK5rL+L0hRLmjncOHD++Rmpq6RavVSgjMiTYXm6gLFy4cbdu27WN//PHH5Zqaj+w+dS8BBuh1L/OQeSLM7wcPHpwjl8tRnxzmY79PHS88TJLQpimXGn9fuHBhvVAonCsSiV6SyWQpYrEYWvm1HF8i3KCFAosd1QkPBk4spGTWxfeFhYU+qVQ61Gg0fllVwBgxYoT6iy+++Co8PPwBh8MhlEql/nZhUwHwpWIpeDb1KThPnACMKnjJ5XLPmTNn3G63exRiqVQq1SIU5/B6vTwi5aDAIrgYSLvMzs62JCYmThkzZsyisWPH1omZnSZUhw4d+mRnZ68P5Fr7322AT8AKYcnJyUGK1vLrpSO+++674RMnTlwRHh7+CK7BRggxEOgXjuzsbOODDz54z9atW6tNNBMM6ERDS5s+RF5nZmbmDxs2rEYAPSkp6SFQ7aI/2ODRHCWed6PRuH/s2LHdP/rooxtuvBoDoD/77LPt16xZ81+tVivD+BJXAn3abLbc+Pj4B37//fdQquseMmtlQ2kIA/SGMlK11E6Y33/99delkZGRDwgEAr8ZmbQ6Su3BdwAFm83mNJlM5yMiIuIlEokMLFw4Fws/FmIsDjhI28V3AFOANy0iOD+YRISiwwsLCw+99tprjxsMhotV6WqbNm2GnD59elFkZKQQ+VdUjINcAMSpDoAKbgv5EIlUBe0j14FWq3VnZGQUIjpfLpdHCAQCLhW0QR+o30TWk5GRwYmJiZm8Z8+eOtXMIa9BgwbJV61atSIhIaG/1Wr1jwvVE0cA4O+///7bqFGjnly4cOGNAFl4NeB5hE6ne0ckEsnoWhp7LpfrzMrKmvPdd9/NePjhh6tldQgGdMgQsoQJHBUAsQmDyb0motxRcWzdunUocfsaNmHkCqKNDp7t8XiWFBcXjyhrI9kYAP25556LW7NmzZ8ajQbuomvvKm14nU6nu0WLFslHjx5Nq8r7x64JDQkwQA+NcajXVjzwwAP6vXv3vhMeHv6ESCTiUxEXigQmPzMVt0AVF4A5LZDQfnAAvLEo48BiSZo+1bOGRoyDapzjbywo0HBtNluxw+EY53Q6v6hsettVNrOIAQMGrGzevPkDFovF7wOm0rDkR6bNBnGWk9k02A9OrgP0Fy4HBPh5vV5016/dAeTIr0xAR/Wlc3NzC9u0afPaypUrV1TTdVClucDn83vJZLJler0+GqRBGBNym+Tm5nL0ev2IOXPmLCsrVmHChAnR77///o7o6Gi/eZoi3tEgyK+oqOiXGTNmPDNhwoQK8xNcrzPBgE6c4lRnHJtAAHpJSUkbBKFXSRgcDgcMiSdOnHiYx+N9Gh4eHgGegGD+esxlm80GdsQXHQ7HwrKe0xgAffTo0YoVK1ac12g0ERhbivvAGCMA1mQyIcPgX5cuXdpaVZmz6+pfAgzQ638MQqIF3bt3j/3xxx8/0+v1DwU0bH9KF6UTYcENjmIPBjfih8Z3QcF0XmwMoNWShk5c2sFlMsn8zuPxvJmZme/u3r17Srdu3W5I8nE9YW3fvr1Zz549VyUmJt6F+9EGAgBNHOFoF35HWwL51abi4uKfZTLZXTKZLNrtdvOgvVOwHGmoeB61n9wG5FumIh1Go5ETERHxnx07drxfF3nmpWWAoLYvvvjivbi4uBdsNpvfykJBiGh7cXFxUXJy8m0bN24s0/qBQD+dTjdNJBK9ESw3PA9/I62Pz+ePzsvLQwZAlY/SQXEE5ii6Ahlfvnw53+VyVQvQVSrVXXa7fZlWq20tlUr55Eoi7RxzIycn54xCoXjSZDIdbuyAHqCA/VWj0dxC1hv0meIW8E7Exsb2P3bs2PoqDyy7sN4lwAC93ocgdBqQnJwcl5aWNken06XI5XJhUVGR30wJgABIQmOlmt9YhLFIQiOHGRpgjd+xAQAomkymP5xO57tcLneoXC6PlUqliTwez58yRgsKBauRn/3ChQsfHTx48JXKarjffPNNyyFDhqyJiIjoSPW1A6lp/mdBUw1sNIrhMpDL5VskEsnKF1988cpXX33V5+zZs7NatGiRgD7CshCIdvdbEnAd+eIBNqRR4r6BPPPipKSkN3bu3LmwLgPggmdNq1atbr18+fKPMTExYeTuwJgEAvVA8zrf4XC8VJGZdu+9996yf//+LUlJSQlUqQyLPcYIf5eUlOwbMWLEox988AEqoVXpuF5QHOYZnoM5lpOTk2+329v4fD5TZWMqWrRoEZGenv6Az+d7RyKR6BHnQRs5jB3FBIAfobCwcPHGjRtfffTRR22NHdBHjBghXLZs2S6VSnUfBaZSn8kiVVBQ8AyHw/m6SoPKLgoJCTBAD4lhCJ1G3HXXXXFHjhxZGB4e/i+86FRRinifaZGnCHjKOSe/Mz4DPtv/cjicAbNnzy7aunVr659//rmfWCx+PCoqqnmgnvW1MpToPe6fnZ39yZEjR16urJbbt2/fVhs2bFjTvHnz2/Lz8/0gTIF5uLfD4bCVlJRsVyqV2956661dUqk0c9iwYSgAz/3999+F/fr1e+r06dPIp1dTcByle+GTKFzJVInv0Af0PTEx8bXNmzfPry8wNxgMgtmzZ0+6GtT4FuWbU9Q4ZGo0GjNKSkqe5XA42ysyy1599VX5+++//1FYWNjQQHS/33xPPm5Q2MbExAw4e/ZslYlmSmvotLGDfLFxyM3NBclLB5vNhtzwG9LkgmsgMzMTleQkVqs1cs2aNbdyOJxnJBJJsk6nU/N4PH9OPc1NbNgA6LAGmc3m4g4dOty/b9++Q+XJpTGY3BFPsGHDho0qlepfwYAeXEY5Ly9viMvl+qI8ebD/h64EGKCH7tjUW8vuu++++LS0NPjU+yK1mszQ5FPFokgpWpQKRBHfFL2enZ194N133x2wd+/e9LVr14LARCYSiRaFh4c/TYCI+waC7fygcenSpU9OnjxZaUBXKpVtiouLVycmJt5KOcYUFBfYKGRMmDAhpWPHjgeu50MGu9oHH3zw5NmzZ2fExMTEBzYB/k0BBdURqAdMz9gkFEdERLz5448/flxfYI52jh49usWCBQs2JCQktIOLo3QZ1IsXL6796quvXnjmmWcKKjihuL179773p59+StVoNFFkfQniE0Bp1bXvvvvuyPHjx1dJSy+toZM/lyLy7Xa7w2QybRGJRFaAvVAo9AF4Atzjfo55bMaKi4sRAKlxOp0tJBJJlM/nE0VFRSGgwy8HOohfIUCBCxbEooKCgrkpKSnvVITqtBEB+nqVStWbLGIUCErvo9FoxCYOaZrsaKASYIDeQAeutpsdML+/q9VqB4BsBIsuRaRTnnLQAnyt2AW+Q4rbmTNnfl21atWAp5566kpA0xPzeLxFcXFxg4lPG/chfy+A/eLFiwvPnDkzvrIAqVAo2losllWtWrW6BVozmcohI2wU0tPTr7z11lt9J02aBF/pdetrnzx5UvTEE088ee7cuY8iIyNVBOp0D5ji0TfEFVy5csVx0003/ef777+vNzM72pWcnCzYs2fPmKioqBk8Hg80tP42AsCwkcnPz3e3bt26z8GDB7+rpOlazuVyUyMjIx/G4h8cWIj7Wq3W7JKSkmfsdvuPVZmHpYuzYF7RXMInNo6UTkXpZZQqSL5wisPAeRiT4I0lxT/gGhxwuQTOAZh78/LyUkePHv2fBQsWYG6WezQGYhlo6GvXrt0UHR39CDocnJOPDTrem8LCQrybNVqIp1zhshNqVAIM0GtUnI3rZnq9Ph6FPHQ63WNCoRD5qyCDAUj6QRHc2P7Qbw7H76ummtPwg545c+a/qampAwYMGEBEFRIej7c4Li5uEOUcU044+XsLCgoWxsTEvHzx4sUb8ajfSMBtlUrlKp1Od0tBQYHfrEoR+NhcnDt3Lt1gMPR9/fXXD5Y1Qije0rt378GZmZlTEhMTmxHJDu6JPgEgLl68aGzRosWsdevWLaysa6CmZ0enTp1ijh07lhoeHt4VazS5GUjjNZlMR3v06PHP77//3lzZZ0ul0gESiWSpTCZDeiKPYinwDPD8+3y+Rd98883YygYwoh3X86Hje4p7oPlBoEMATRtBKixEBDFUpY3Ow6aAzsG9AOYejwckRna327152LBhL3/88ccVLgkbAPTVCoXCn6ZBqZ2UQx/q5VPRZgD6xo0btysUCj+RFGWu4JPiTAoLCwd6PJ6vKjtX2PmhIwEG6KEzFiHXEpg1H3rooejt27ePl8vlT6pUqrhA0Bk0HbtarUbJUAkWBMrfpkj3ixcvHvnqq6+eeOaZZ84EaeiLExISBmFhxmJMlKTk08vOzl7ocDhexl6hMrXYRSJRW5/Ptyo6OvoWWnCxSQiim02fOHFiX4PBUCag41po6oMHD+5++PDh/0RGRt4Nl0MAKBxms/k3vV4/b9euXd9V1opQ04OLsYmMjBzgdrtXB+qX+8eAzKcAsIKCgrdfeumlTyrzbAQ2Ijht6dKlSH9bFhUVdTvxDRBQYg6YzebcgQMH/uOzzz47XZn7lwZ0iskg8y9lEtA9YR2AlYXmCqXTkWWHsiTwPc4FeJMGSi6iwDMs+fn5C8aOHfvRRx99lFGZ+dUYAB1BcStXrvxJJBLdDXlSaidkg/mDTZFSqXzy9OnTKEzEjgYqAQboDXTg6rLZ+/fvl44cOTJRKBS2dDgcYdnZ2UVCoVCQn58/V6/XJwE8SUvHAosFIycn54+FCxc+MXjw4JPBgH7TTTcNwvlYSCiCHAsKtL6srKwtYrF4AahXw8LCfJTTXlZfMzMz4c9HFP3kmJiYVlS+FIs5adWXL19Of/311ysE6HgW0reWLFkSMX/+/Nu5XK6Gw+G4BAKBcezYsWeGDh2aU9k8+doYq9mzZ6snTZq0IS4urhuBGWm0AQ3Xa7PZCtxutz+COzhuAX/DxArwwxgAwCn6m9j9BAKBT61Wq3w+nxqbB1xD0f7YgBUUFLiv0vdO27dv39zKZiVcr3xqaa08MA5+0zAO4hEgLZ76SuVAic6UeAKCAuzMdrv9WGxs7EcRERFbDx06hOIj13W73GicGgOgp6SkKL799tsjGo2mBcWFUEYI5gEyWuLj4/ucOHFiU23MV3bPupEAA/S6kXOje0q3bt3apaWqZGl8AAAgAElEQVSlrYuJiWkN/zKZ7khLMhqNFx599NEn165de4AAncPhLEYBCABI8AYAQKFWq6FR+s34FFVNdavLEh4WeDoP1wUHhQXui7zm9KlTp5Zrcm8ogxSwnPT84YcfVuj1+igs0BS0R1HdpNFSiiCZoMlXDZlR1De+A8AHiHSugScWeVg5qOQoNmK0YcP9rly58lvv3r2fXL9+faXoYK8H6KU1dIoHID84ATWlDaJ/RE1LACWTybAphLuF63Q6rYWFhT9otdot48aN2zxt2rTcSsYRXJsOjQHQX3jhhcjPP//8bHR0tJIyU4jmGB1FdkhsbGzPv/76a0dDeQ9YO/+vBBigs1lRJQnAv56dnf1tbGzsLbTIYmEFiGLHD8pUt9s9kMPhgHkK8wz+x8WJiYl+DZ00LTwcoAFylqioKL/mTiQ2+J4W+vJAHYsTNHoEQOEeRC+Lz4yMjAr50KskiHq4aPfu3Ypu3bp9kJCQMMTpdApKN4G0WsqbJ0pVCpgDkEMuVOaVUhKpQh6NCQVCkjzxPUWPoxSp2WyGG+Jlh8OxoDJiKB0Uh7ELZuxzOp1el8tl9lP0odxdIKeexhTfIfIdAG23270KhQJlb50SicTpdDp/UygU/73pppsO9unT58/MzMzixYsX/13kvYpHYwiKGzRoUMK6det+j4mJUWBDjY0SZaaADdFut7sSEhJ6HD9+vEYq6lVR1OyyakqAAXo1BdhUL0dlrwMHDmyPioq6EwCMxYHKrhJf+pUrV8ZxOJyPAoAuEYlEizUazUDK9aZ0ItKwKOWMorQpurosGZPPHm0gszLxxQcC+KB9XOncuXOfH3/8sUxGsIYylm3btr3z8uXLG9RqdQz822g3xTAQaNMn5c7j70DlvGtaN0V/k9wxLpAjXCDQ2MhlgQ0AWWAoCp0057y8vEP/+te/kteuXfu32aUCRzCg0yYwuH3FxcXFJSUlYxCgDvO4WCwG1fC1cp8B8zvA3vnaa685hUJhidfrzXc6nflKpdJsMBicFWhGhU9pDIDeqVOn20+dOvVzRESEjDbU5KbAe5OXl3eudevWj548efLPCguGnRhyEmCAHnJD0jAaZDAYZG+++eZXUVFRfYgKFYCBhR6m2kDVrLevalnTAqZOoVqtfuVqVPybarVaBLAO1iQpMjugffnNwcS7XpZESIPHgo+NBO5JCxYB+4ULF85GRUU9CDdAw5DujVtpMBhE06dPfzs8PHxCIKrd/w7TZoaAkeRJIB7I576W1kasaTgPY0HWELqegs1wb4rqpkBG2ogFYiVcMpns8ezs7C0VNWkToCcmJj6Ge5K7AOOHcSwqKsq3Wq0dOByOMUAsUymfd02PcWMAdD6fj+qIX0ZGRorJAkaR7rDgXLx48ed77713wJ49e0Dmw44GKgEG6A104Oq72WAoe+utt95WKpX/wcJOvlmKLAawZ2RkLE9NTX0+QObCHTly5C0rVqzYo9PplF6vFxHy/m7gXArsovrlpF1TahJAByZXAh9ch4WJfKsAAyqUgvsFbwhycnLWTpkyZajBYCiT4rO+ZVqR5ycnJ7f59ddfwXoXK5PJ+PCHUmQ6bWgoHfB6Fo6KuDCC20HnQ86UOYBnhoWF+alvEbx4+vTpnYMGDXr6iy++yKtIH66noRMjHzaCRqMR1K/tUbW1sgFsFXl+Zc8pC9DhxzebzW+43e63K3vfujp/9+7dggceeGCGSqUaLxaL/cn5wRYdvHPnzp375syZM8+2bNmy0imOddUP9pzyJcAAvXwZsTNuIIEOHToMTU9PX061xglcacHIyso62rt3724bN270M4qNHz9e+uGHH86Oiooa6nK5FGKxmIfvyXdLBUHofvTY4KjcQB60fxMQXFWNTP5UUEYul/srwmVlZZm7dOnySFpa2r6GPpBYmLt164Zo/ilCoRC12f2aNerWa7VaxA94i4qKTKA2JUKYoDSw/9FyKwrstDkSiUQKrVarpNgHbJgABBg7o9F4WSQSjXA4HBWilw0GdLLUkA8dgH7p0qV8sVjcxmKxVLnaWk2OdUMH9E8++UQxZsyYLxISEv7l8XiElK9PljW4Vi5cuLDw3LlzLzdr1qyyHBA1KWp2r2pKgAF6NQXYlC9PTk7+x5EjR35C+UWn0/k/vlxoVtDg7r///ps3b958iuQUFRUVaTQaJ0dGRo602+0SiqKGdonFnYJ1CMQpVYpAH4BCZU4pgpu0dvyPSrMGqred7dat25tvvPFGalUIUEJtbOfOndtswoQJa5KSku6AfACqlJ6FwKb8/PzzzZo1ewhBy1f77R8PkUhEgWVVMlt//fXXnLZt23LPnj070Ol0fhAREYE0Nz+1KsA3cPgyMzOXvvHGGyMNBsMNudfp5BuVTyXLQnZ2dv7V/PpqVVurybFr6IDO4XCSZDLZV+Hh4Xd6PB5BMONjoOiOIysra5rP50MxJU9Nyo7dq24lwAC9buXdqJ7WpUuXFseOHfspLCwMwVn+oCUAciCn2B/IdOuttz72448/bgnu+NChQzXbtm17zGKxPMrlcru63W4R/k+pVrgHRVNTCVRsDvA9FZOAhkmc1GR6J9BXKBSXCgsLd3Xt2jV1+vTpRxsDmEM+8fHxw91u90Kv1wsty5/eB5lZrVYEhPucTue8/Pz8ibWRJ3/HHXe0O3z48Ma4uLjmJSUl/nWDatnDOpCTk1PI5/PvNJvNIBIq8ygd5U6+eVyEDYrVas0vKipigF6eICv4/4iIiH/k5eWtio+P11utVh7mDd5Nst7k5eUZBQLBM1ar9YcK3pKdFqISYIAeogPTEJrVo0cPNYp46HS6B8mMF5w7jgU/Nzd34ZdffvnSgAED/k/kMUzIS5YskZ04cUKSlZXFi4qK8l24cIHTu3dvTmRkpF8E8NeWPlatWvV/vr/nnnt87du3J+3Qptfr7RXRFhuCnNHGSZMm6ebNm7dOq9Xehzx0WDQoQhxyNplMWX379u3z9ddfI++/xo9AzfW5YWFhY2QyGRebN2y6iFMdAXH5+fkz3n333enjxo37/5VRrtOSYEDHvxFtjz4QY2DAhx5KgN6Xy+WC+tW/8Qymfm0IPnSpVPpSRETEPGwCaeONTRQsLNgUp6enn5s8eXLPqVOnnqvxicNuWKcSYIBep+JuXA9LSUkRrVu3bk54ePhLWIwpMprKYUITuHjx4n9btGjx+NmzZ9MbV+/rrjcA8FatWj2SlZX1hU6n0/B4PC5VQYPcYSa9cuVK6v79+1+4++67ayWoCW2QSqX3XzXfroiOjo6lXHayjsC0f/ny5SOtWrV66q+//iqTDvZGeeiwupAP3ev1MkCvgSmGErMGg+FzvV4Pnnb/ZgRBlBS7gHlkNpv3TJky5TGDwVArc6cGusFuUUEJMECvoKDYaf9XAljkuVzuc1qt9gMU8aDcZ8pvDRDGZHO53OEOh+N7JsOqSWDWrFnaSZMmLY6Ojoam6K/xTdSniBW4dOlSUdu2bR/9/fff06r2hIpdNXfuXPnUqVOXRkdHPwFND9opABhWlEAMhC8vL+8Nn883o6wUttJBcVRUBpsDxGOYTKZ8s9nMAL1iw1LmWQMHDozZsGHDWblcLpFIJDxo5lRECcCOFFMejzdx9OjR7zYmi1YNiK5B3oIBeoMctpBqdEeVSoUCIa2CiWKIq53H46F+9szk5GTDnj173CHV8gbSGL1e38Nqta6WSqVhf7uZuX5AxwbK7XajUM6PsbGx/U6dOgUillo92rdv/8iFCxc2R0RE8KDlQeujojBoT35+/qEHHnjgoS1btphu1JDSJncwl8Gag40gfoqLi5GHHmqAvkahUPhTvhqSyf2JJ57o9d13320KCwvjO51OHtG9wjWGuBSBQOCJjIzsdfLkyZ21OnHYzetEAgzQ60TMjfch8+fPV40bN+6LqKiox6CRUy1raG5YqLHYZ2dnH+zZs2fP7du35zdeSdROz5DvP2PGjLkymewlyJQCB4NKzzpEItHI9PT0LypK7FKdloIhcO/eveuio6O7E3kNNhdUcc9kMnFuvvnmBw4ePLirLEC/5ZZbVrRo0aI3tPvggir4PS8vL3/AgAFtli9fHhJpaygfbLPZECviTxWknHlYJQCKFoslJPPQV65cqRo4cODy2NjYvlRgh6xo5B4zmUyHhg0b9ujixYuzqjMv2LWhIQEG6KExDg22FampqfwBAwY8Fx4e/ikCmygojqhYiY2qQ4cO9/3www+MJ7qSIz127FjxRx99tDE8PPwh5AvDdx2cumc0Gn+bNm3a0xwO53xdmEwD4z0+Pj5+usvlEgdvMNA+UMbGxcU9/fvvv68qC9A7d+68TKfT9SGGOzK7Y3MAprihQ4e2+uSTTypEVFNJkVb6dLVa/SCfz193Na1LQbz4uAlldPB4vKlXrlyZXukb1/IF99xzz22HDx9eGRYW1q40JTAejXfUZDIty8zMHKvX6xs86VIti7NB3J4BeoMYptBu5IMPPtjsp59+OqJWq9VUJIXoV7FoYDExm81ffPDBB2PGjBlTYc7v0O51nbWOKxQK54eFhY2GrR35/mq12i9Tq9VqDQ8Pny2TyeYcOnSoWgVIKtObBQsW3DR69Oj1KMwD8h4E5gU0Vz/3wL333nvft99+e0MinwsXLkiaNWs2KyYm5kXkRRPToMvlQlAGUuA29u3bF5X6apSTvTJ9DD5XqVS2hsujRYsW7XJzc4VoL1kVkDKo1WqfuHDhwtqq3r+2rrsaPPlmWFjYFJFIxAvEu/jnDTZPAf52U4sWLYYfP378f9JKa6s97L61LwEG6LUv40b/hAcffFC+Y8eOr/V6fW9o5AiWolKm0GJgmjx//vxfHTt2fOLw4cPHG71AariDSqXyUQ6H80VYWJhaqVRyi4uLfQ6Hw2MymYxjxoy5/8MPP0RUeZWIY6rS1OXLl0teeOGFkSqVah6IZmw2Gy+gaXuMRuOvvXr1+hexA17v/tDyBw8e3JXL5a6KjY2NAdgE0ql8RqOxwOVyjeRwOOvqsk9lycFgMEgMBsNEnU73qkqlknA4HAEVvTEajWlTpkx56vXXX79SFVnW1jXz5s2TTpgw4WRMTEyS1+v1MzIGUy3j96ysrFPTpk17hKWr1dYo1P19GaDXvcwb3ROxIAsEgmcjIyPf53K5CmKiQkeJNEQkEnkvXrz4/nfffTfl4YcfLjNPudEJqJodOnnypKhnz569TSbTWI/HE4W4LD6f/2dkZOTsy5cvH6wL33lwFzDenTt3Fhw6dGiMSCR66iqDnAYWXB6Pd/Qq6c0MDofzV1ldxvWLFy8WzJw589709PQ3PR6PDrxCUqk0F3PolVde2VpeLns1RVrpyw0Gg2LmzJkver3ex91utxJTOyws7IRGo3nj3LlzZ+t6DMrZgPBmzpz5lFQqXYmsAVjNiCcClgXEusB1c7X07vT33ntvxrBhwxjda6VnRGhewAA9NMelwbVqyJAhzT///PO1LVu27GC32wVYMIKjn6ERlJSUXLrtttu6/fTTTw2+6ll9DNDSpUv1Xq83PC8vz7dz587Me++9t6Au/OY36mtqaqqoqKgoUiAQhEulUseTTz6ZweFwKpTLDFB/8803kV8f5nA4YqBFWq3WvPz8/Mz67FNZ45qamiq1Wq1REolEW1JS4rBYLOn5+fmWUGvvunXrYvr377+8ZcuWD4KmN7g0LSxo+CkoKLC1adOmx4EDB36pj7nMnlk7EmCAXjtybXJ3TU5Oluzbt2+yRCJ5XavVXltEoB3ABI/qXDk5OaCDnf7aa69Nr+ma1U1O4KzDTALXkQA2Skql8nmFQjGXz+crEeOA06i6WqCcri8nJ2fNc88998LixYuLmCAbjwQYoDeesaz3nnTs2LHtn3/+eTw6OppP0djQDhA0RWU+MzIyztxxxx1P/PLLL0fqvcGsAUwCjUwCffr00WzdujUtJiamtd1u95MQ4SAyogBXfl5BQcEog8GwLtSsC41sOOq8OwzQ61zkjfeByJk2GAzzY2NjR0Ezh2kP0c/kU4c/XSAQOIxG4xd33nnnK2lpabVOhNJ4pc16xiTwvxKYP3++eOLEiaPkcvm8QGqjn4QI7x9+4E+32Wy+7Ozs7+bNmzdw/Pjx/rLG7Gg8EmCA3njGMiR6IhaLH+Dz+ctUKlUcFhHUJ0fqGuWnB9KSClq2bPnEn3/+ydipQmLUWCMaiQQ6cziclS1btmxZXFzMIxIc4shHSiGfz/dpNJq+p06d2tRI+sy6ESQBBuhsOtSoBF599VX5559/Pl8kEg1VKBQ8LCLBua9IZ8vPz3fn5eUd0mg0TxQWFl6q0QawmzEJNEEJoCTx6tWrPw0LC+t3lUtfCAsZ0kVhFcM7B9ZGoVDoyczMRFnhp37++efCUIrMb4JDVitdZoBeK2JtujdNSUnhu93u5rt27drH4/EiQFdK2jk0dgTlwKdus9ls+fn5H7z++utvGwwGljbTdKcM63k1JYBAuBYtWgzOz89fqtPpuNnZ2ShF7C+8gncNnPsajQZBqdnFxcXjfT7fGgbm1RR6iF7OAD1EB6ahNgvlGv/5z3/yunXrNi0+Pn6C1+sVoy8wtYNkBhHv0BqEQqHPYrEUu1yuZydPnryeBec01BFn7a5PCWADvXfv3jtzcnIW6/X6m91uNx+aOWrMg6YWh9vt9kFjt1gs6xcvXjx84MCBFUotrM9+sWdXTQIM0KsmN3ZVORLo06dP8y1btnwVHx/fGYsMtAQAOpX9xKKDyPe8vLzDDodjIIfD+ZMJlUmASaDSEojhcDjrExISOoNGF+8XYlZAHgP65UC6ms9ut2fccccdD+/atetEpZ/ALmgwEmCA3mCGqmE1FKQjI0aMeNjtdn+h1WoVCLeFyZ2KRGChCbDI2Y1G47dJSUkvnzt3LqToMxuWxFlrm5gEwOmvsdlsb8jl8peocA82ykFA7heJx+OxFBUVvffrr7/O6Ny5c51x/jex8QiJ7jJAD4lhaJyN2L17t6BHjx6f6nS6YUKhkHu1WAQXQI4FB8COCHiHwwFzoNNkMn0xderUlw0GAyve0jinA+tVDUoARE5paWkvSKXS1yMiInR4p2AFQ7wK/Ob4GwesYkajceP9998/evv27axEag2OQSjeigF6KI5KI2lToMJTG4FAsFCv1//D6XTyAeIwtWPRgV8PB1JpzGazQygUfrRx48a3//GPf7D89EYyB1g3al4Cbdu2FWVlZfX3er0fisXiMLFYzMdGGfEp2ChTVLtMJnPl5eXhXeo1ceLEgyxOpebHItTuyAA91Eak8bWHz+Fw7lar1dtVKpXU7XbzyNyOhQdmeGgRAPmSkhLL1bJdb3322WcfDhgwICRKZza+4WA9asgSAHnT22+/3U8sFr8nl8v1arWahxr08J3jQDR7bm6u/9NkMuVfBXmDwWD4hIF5Qx71iredAXrFZcXOrKIERowYIVyxYsUbarV6rEAgUKIQB3x9MBFSbWbS1i0Wi0kmk7115513Lt2yZYutio9klzEJNCoJAMhXrlzJz8zMfJDP5y+QSCRRMplMCPIYxKJQsClM7VKp1AfqZYfDsWT27NmTXnzxxbxGJQzWmRtKgAE6mxx1IgGlUqkrLi6ertfrh8pkMgk0cmjqdBD5DD6Li4vNRUVFczp16vTBoUOHGKjXyQixh4SyBLApXrx48RNKpfJdqVQa7vP5+ABxbIThvgpihfPxeDzQK5/o16/fI2vXrs0N5X6xttWsBBig16w82d1uIAH407VabaLD4fhCIpHci6hcaBYwuYN8hmo2Q7OA9p6Xl2e22+0L77rrrnfi4uKK1q5d+7fDnR1MAk1IAsnJyYI9e/YIOBzOo3K5/AOtVhtltVr5cFeRmR3vDr0/XC7XW1RUdEQoFL700EMP/cLemyY0WcD30bS6y3pbnxIAqPfr1+/uDRs2rIiLi2uJ+QeTO0zv0NaxKMGfTiBfWFjoKygo+Nrr9f6Hw+Fkcjgcb322nz2bSaCuJRAbG6szGo1jxGLxKwpwKfN4fo525JkjCA7vC94bvD88Hs9XVFSUHR0d/dSZM2d+BrjXdXvZ8+pXAgzQ61f+Te7pMBX279//vk2bNoF0JsrlcvGQagMyDIp8h9kdIK9UKuELtBcUFHzv9XrfnjJlynEW3NPkpkxT7TC3e/fuCceOHZvucrke0+v1yoKCgmvkTLBk0fsSKI0KMDcJBII3Pvvss88GDBjALFpNcOYwQG+Cgx4CXQaI/1MsFi+NjIxMstvtXIA6DgT1EEkGTIpIaYNGYjabwUM9eeLEiRvmzJlTFAJ9YE1gEqgtCUg4HE53qVQ6SyqVdhCLxX5SJrwP2OxCK8c7QTEocF0VFRUVx8XFvbpp06YV7du3ZxkitTUyIX5fBughPkCNtXm9evUSC4XCHnv27Fmm0+kiA6xxfs0cmgcOWrQo4Af1XEwm05revXt/ePvtt59h2npjnR1Nt1+PPPKIduvWrS+LRKJB0dHRsR6PBznmXGx08V5QRDuAHZtgmNnz8vKsAoFgzvTp0+eOGzfO0XSlx3rOAJ3NgfqUAOZfN5lM5tfUA0Vb/DnpWKwQHAc/IRYyioKHvzAjI+OcWCyet3jx4jWDBw8uYL7C+hxC9uyakIBGo9EUFhYm8/n8iREREXdJpVIu3gPMe2ji+CGedip0BK29oKAgMz4+furGjRtXMs28JkaiYd+DAXrDHr/G0Hohn89/iMvlLo2IiIigAi4Ad2jmiOaF1g4gD4qG92VlZVm8Xu/me+6555MxY8YcYD7DxjAVml4ffD4f76mnnkpITU2dKhQKe8XExERjEysQCLjYyBLxEqqn4W8EwwHoZTKZPTs722S326cmJyev3LNnj7vpSY/1uLQEGKCzORESEhg6dGibr7/+ek5YWFh3kUgkh5mRgBxlIElrB8jTIZFIfFeuXEGk/EKHw5Gampp6cMCAAYwLPiRGlDWiLAls375d/uabbzbbv3//8yqV6gm5XB4J8zmfz+cB0LGRReAbABxzHtYqbHLxHsjlcld6evpvN91000vnzp07xCxUbK6RBBigs7kQEhJAStvjjz/eYvPmzRN0Ot2zXC7Xn55DaW2gsoSWDl+iWq1GbWf/3wE/oruwsDDDarXuufXWW5cnJycfeP/990sCaZm+kOggawSTAIfDSUlJEYnF4mYrV65EKlp3pVJ5MzasLpcLBQm5AHEEhQLUAeLI/oDZHe8CvrdYLPCZ/6TVal82mUyHmVCZBIIlwACdzYeQksDw4cOVy5Yte5bH442NjY29CWZGKjoB8CYNHZ8wz2MBxIKH8wQCAVJ33FardZ9AINgaHx+/bf78+Vfeeecd2+7duz1cLpeBe0iNduNvDDaqv/zyi2TLli2Js2bNuksoFA6TSCRdxGKxQCAQ8CgAFNo3NqjQzKGFA8xpw4p5X1JSAiDPkUqlS8aMGfO+WCwuYEGhjX/+VLaHDNArKzF2fq1LAFrMwYMH787KynqHy+XeFRYW5l/caJGDlk5meHyazWY/oAfINfwgj7KsxcXFJ7hc7kW5XL46ISHhgN1uTz979iyLAq71EWQPAFWry+WKPnPmzK379+9/jMfjddJqtW2EQqEUoI05C40bcxmbU6JvxeYVsSL4G35zYoPLz88/cxX0DXPnzt00YcIEK5Mwk8D1JMAAnc2LkJQANJsePXpEHjly5AWv1ztSIpFEw4ROoI1gIWjmFDREv9PCCO2dIoOzs7MdAoHA4XQ6j/H5/D1isfiU2+0+P2vWrMzY2NiiqKgoh8PhcO3du9fLtJ6QnA4h2SiDwcBr27atWKvVilatWiXftGlTnM1mS+Lz+a3cbncXgUBwp9frVcjlctHVgkM8bEoxX/ED3zjNXUrZJEsTAN7pdPowl4uKigqKi4vXpqSkvJ+amnqaWZlCciqETKMYoIfMULCGXE8CXbp0kf7yyy89BALBcLlc3gcaORZD+BaxEGIRxAGzJLQb1Fsn7Qa/Y3GEloNroPHg8Hq9LpPJlMHn8zM9Hk8un8+3+Hy+U16v97JMJsvr2rVrSevWre1Op7PkKvPW/9BnIljP6/X6f/A7G7XGLwFKp8SnQCCQrVmzRmUymeQcDqeFUCi82efzyT0ej1ooFMYrFAq9SCSSYTOJOYn5ietwYB4SQQxp3th40rzFebgOczUnJweESidtNtu7vXv33rB58+a/Jy87mATKkABbkNj0aAgS4CUnJ6uuXLmSkpmZOUQqlXaRy+U8NBzmdZgo4XckMzwWRvyOhZI0IQTXYXGF2R6/k58SCyq0Ia/XC9+722azecViMbQjn81mQ9TxNb87gpYqIizaZFTk3PLOud4jg+9fwSb9z2Oqc33pvpX3fIp5KH0e/V2WrPC/8u5f3v/Lk295/wcAU+wGNGytVsvNzc1F+V+eTCYTcLlcgUQi8VuOKHiNUi7xHcV6wLROJU4JxIm6FX/jGcjqgKXIZrNdEggEizp16rRm7969GSyKvbxRYv8nCVRogWLiYhIIBQmkpqbyBwwYkCQQCEa63e4n9Hp9vFKp5MIfCY09EPF+jSITCypVbwOIB2tHVJ2KNCgAPX5wDjHU3QhsKgKINQXqoQDoZfWlPEAlC8mN5k9t9K8yc7W8caJNIMA2uMRvwNJzbd6hn0EVz/xNwJyjeYlr8X9sMIntDX0nFxGsR0KhMDsvL++r3r17rx4/fvzRbt26sdzyygwmO5dVW2NzoGFJAL71Q4cOCZYtW5b46aefDvB6vSkqlaqlVquV06KKxZdY5gDyVMEN/6cFHN+R1h5Ureoa6ON/wTnvlZFSMEiVBxiVuW99nEvtvx7wErd4XbTrRhuHupLvdeqO+7uNOYI5RiVMaVOJjSG+g9sH1iAC7mAXEOagxWJxFBYWXnY4HOsSExPX7tq16/eWLVuywM26mFSN8BlMQ2+Eg9pUuoRIYhB4qCsAACAASURBVLPZHL1hw4b+DofjPoVC8QiXyxXFxMT4o4fJ9Em+diyu0NoB+KUBgsCdNCt8YlHG9zjK00RrS+blWQMqawIv3c6KmLXL6lt5cikPcMtrf3nXl/f86o4LzRcANZ4FkCZ+BJobAGa0E9p48FzBteBLQFQ7AB3/hysoPz8fc8thNpsPc7ncjY888sjWTp06nTMYDPbqtpdd37QlwAC9aY9/o+h9amqqaObMmTKfz9fRaDTeZzQaH+dwOJFJSUnhCF6DVo8FFyBPJlAstgBs8nNCEMFaO5lXr6elB4PI9XzB5YFQdYVeGRC7UVsq4sMuvZEJvldF+1h6Q3I92ZWWR/A55cm/vHaUJ6vyricAR5wG5g5Zbuiz9DyhqoGkiVOMBuaa0+ksstlsOR6PZ3+7du2+mjp16smUlJRcLpfLSp1W96Vg1/+9mWRyYBJoTBJAKhHAfNeuXbft27evh0Qiaefz+e5Wq9UaLO5YcJH/Cy2dApUomAn/Jy2MAD4YUMoDx2A5VhQwKyv70qBKJTRxH/pfeSBVEfN1Re9R3nnl9Y+Cyei88jT20puM8twi5QF6edejfQB1IjGiOYRPSouk+YNzAgDuj90IpJ+ZbTbbcYFA8IfD4fhp+vTpP0VERGSPHDny79B3djAJ1KAEGKDXoDDZrUJLAidPnhR99dVX6p07dzY7d+5cC4vFciefz7+bx+NF2+12iVwul8hkMrlEIuHzeDx/zekbAYvv/yONX9ungzQx2gwgT9jP4RnYHJQHGBWVGJ6JNgSefa0NwRuHwDl+YKc2AmBKg2BZGw96AKwaOA9gRtcH9dG/8SkPLIOfG9Q2/yPo/tdrf/DmhEzd12tzRWRXXhupfze6F0AbLhuYzKGVU9wAABumdBx2u91rgTPc4bD7fD6kOlqVSuXeiIiIQxwO54xEIjm7efPmgri4ODvLI6/IqLFzqioBBuhVlRy7rsFJwGAwCDgcjsLtdmu5XK5+yZIlSQUFBW2cTidM82oOh4MVWszn80UCgUDicDjESEmCqRVpbE6nU6hUKtvLZDI+BUJhExAUHW/Py8s763a7iwP+Vbxf+PnbEV/5w/9+BrREH+7J5/O1CoUiCelSMAMDWNAWtBHtyMnJKXI4HGDHQxqef+cRyIe+tguhaGzcz+MBIy732gZALkddHH5LkUikIHIe8gPjXk6n01NQUPCnQCCwYbNCmQNCoRDy8QMeabUE2mRF8Hg8PrRFJpM1UyqVkcFgCsBEX3BuTk5OpkgkyggQsfg3AHTPIHlUaEMR7FpBf2CVEQqFIqlU2kqj0ciIK514CmC98Xq9XqPReMXn82WjDfR8Ho/ndblczqslTks8Ho+Dx+NBBlapVFpYUlJy7Nlnn70cHx+fXlJSktepUycLqwBY+QnPrqieBBigV09+7OoGLAGUrtyzZw/vzTffFHTo0EH0/PPP83fs2MH/+OOPBQBvnU4nLCoq8oNATk6OVyAQJEgkku9jYmJkSJUjjQ2LPsCopKTkfEJCwnP//Oc/T4WHh3O+/vprLjYEXq/3/wC6WCyu8LtXWFjIycrKAiBzZTJZL4/HMycyMlKFVCcEWQEkoUVCY0xPT//J4/H8WyAQmDA0qKut0Wi46AOl5uF3OvAd/Y1nlJSUxCkUiiUqlaotbRYA0rg3nlFUVFTM5/OfMJvNJ9EeXK/X6wGuPtJYEfQFul6bzeb/P46srCy/jOx2O3K4ZwkEgidRZAcHFeABqKItubm5c6VS6Uc4P9AHX2xsLM7zb0oQF5GRkeG/X2UP3OeBBx7QrlixYmXz5s1vwfPIZI7n457FxcXYREyx2+2rUdGvWbNmqBHgVSgUXmxorpYs9YSFhXmcTqd79OjRrvvuu8/dqVMnN9O+Kzsa7PyalkCFF5WafjC7H5NAA5RAG5VKdVClUsnJpA0tFaAKLTYrK+u0QqHoY7FY/qylvqFGdl/UjtdqtZpAla5rDHiI7v/99993KhSKgRaLJacqbUAKoNlsTk1MTLwNAI5YA1gCsIEJgL+5sLDwfg6Hc7Aq9//b4MBfqFKpnqfSoPjEpoGixAsLC1+32+0zg+5f00V1dBKJZFt0dHRn9AuV/KjID9UMyMjIGOX1ehchNKGK/WSXMQnUuQQYoNe5yNkDG6oE+vfv32bnzp0H9Xq9HFozmYGh5QGUCgoKTicmJvY5c+ZMrQA6TNgCgaCvQCBYGh4ergHYYkMBQMIBMMrMzNw5f/78gaNGjaoSoOv1+tYFBQVrFArFrZQBQMx76OPZs2fNTz755P2rV6+uEqAjaPGdd95ZyOPxRsCKQfzmFHiGZ+Xn509xu93BgF6jU2bMmDG6xYsXb0tMTOwMNkHKfICFAb/D8uFwOEY5HI5Pa/TB7GZMArUsAQbotSxgdvvGI4GhQ4e2Wbt27cGYmBg5NDv4ZCnqGcCQm5t7ul27dn1OnjxZK4AOSYpEon4AdLlcrgEAwYdNXOHIs8/KytqxZcuWQT179qwSoLdt27bFmTNnvomIiLiVGPPITx7w0ZtHjhx5//vvv19lQJ89e/ZCmUw2gtqP58AKQJXGjEbjFJvNVmuA/vHHH+vGjx/v19BJdhSHgE/0NycnZxSHw2GA3nhe3ybREwboTWKYWSdrQgIvvvhim+XLlx/UaDSIjPcDEDGFgQ3MZrOdat++fd/Dhw/XGqBLpdJ+TqdzqV6v11DAFlGKqlQqmNx3bN++vVqA/scff3yj1+tvhbaK/qGvcDFgA5OTk2MeMmTI/YsWLaoWoAuFwhFoL5G0wMoBUA+kE04pKiqqVUB/8cUXt7Vq1aozYiQodxxzhOqSFxQUwOTOAL0mXhx2jzqTAAP0OhM1e1BDlwA09PXr1x+Mi4uTm0wmfzAXUX0CCLKysk61atWqz+nTp/+qrb7y+fx+QqFwSUJCgjYvL89PLUo0owgyO3PmTLUAvXnz5i3OnTv3TWJi4q1UmAR9A7jjWQUFBeann366WoD+1ltvLZTL5SPId00bBmxMAoGGUzIyMmoV0KGhx8XFdYbvnEhisGFBX/HDAL22ZjC7b21KgAF6bUqX3btRSQCAvnnz5oNyuVwOTZJMxoFUKI7JZDp188039zlx4kStATqHw+knk8mWqNVqLYRLaXMAXAD6+fPnd2zdurXKGjoAPT09/RudTncr8ZNTWh42L0VFRX4N/eOPP66yhv72228vjIiIGEHUqZSjDvdFAFSnZGVl1SqgQ0Nv0aKF34ceXBGOivgYjUZmcm9Ub2/T6AwD9KYxzqyXNSCBESNGtFm1atXB8PBwP6DjIOpP/F1YWFjrgA4fOo/HWxIZGanFM4M56JFDff78+Z3ffffdwKr60AHoFy5c+CYmJsYP6JSDjY0DNjC5ubnm4cOHVwvQZ82atVAqlY6AiT246h36gh+XyzXFaDTWKqD/+9//9gfFITsBGwnkwaOv+B3fQUNnPvQaeGnYLepUAgzQ61Tc7GENWQIM0BsfoFMOPlXqow1SUVERi3JvyC9rE207A/QmOvCs25WXAAP0xgPo48aN256UlNQJwYw4kKJHke4ww5vNZqahV/4VYVfUswQYoNfzALDHNxwJMEBvPIBOJncilAnQ41JBFRYU13BeS9bSIAkwQGfTgUmgghIIFUAHU1xUVJSGuNOJtY750Cs2kMhDJ0CHNk7ZCtDW4UvHkZWVxTT0iomTnRVCEmCAHkKDwZoS2hJggN44NXRiqaOceGjt+fn5DNBD+3VkrbuOBBigs2nBJFBBCTBAb3yADisHIvjxA2pbgDu+s9vto20228IKTg12GpNASEiAAXpIDANrREOQAAP0xgfo4ORH/j5M78iBB7DDhWE0Gsf4fL6FrIJaQ3gzWRtJAgzQ2VxgEqigBB588ME2v/3220GdTidHAQ8KpMLlAf7vUx06dKhVYhnictfpdBowmgF80A6Yi8HkdunSpZ1bt26tch46uNxPnz69Lioq6hbcM5jPvQbz0D+VSqXP12ce+sSJE7fpdDo/Uxxp5oH68H76WYvFMmrKlCmLDQaDt4LTg53GJFDvEmCAXu9DwBrQUCQgEonaCIXCg5GRkXLkLweTugDQc3NzweVep4AO2RF1KQD34sWLO7dt28YAvYxJhaC4sWPHbmvevLmfKQ6bImyOAOzQ0gHyRqNxLIfDgcnd01DmJ2snkwADdDYHGrwEtm/fLheJRFJEeeOA9lxTx+nTpzkjR47kBmqet5LJZDv0er2M0p2IXQy+15ycnDoHdGjn0CiRR43+Z2Rk7NiwYUOVqV+bioYO6lcAOuYKItvBEIdNGWQJM7vT6ZzYqlWrlTNnzvRg7D0ejw8Mcvi9pg4+n891Op22vXv32pgloKak2rTvwwC9aY9/g+59SkoK/2plsPaXL19+pbi4OAydocpZRFuKhbqGDq7P51PHxsbe7fP5+NDoiOMcz8DzAuVTH6tNLvfSJncAOUAI/YYJG1zu27ZtY4BexqDPnDlTN3369G0xMTGdYWkhvzlkiR8ej+e7fPky+PjTxWKxF2COc4h8hmh/qV58ZeYX8dfjGi6Xy/V6vXlcLnfDbbfdtunQoUOuytyLncskUFoCNbbaMdEyCdS1BPh8fn+JRPK2Wq1uo1arAbjXtFWYTgGyWIirc8CHDFM26p9jAcc9AZ74JM2Yvs/JyTndvn373sePHz9VnWeWdW1pQMdmgp5PGnp0dPSgc+fOVbkeelPwoVO1NXKdUB304I0alcjFJ7k1AkDsN9NjbpS3YQz+//V+t9vtsAZYTCbTS506dfqSgXptvTlN474M0JvGODeqXvp8Pig3SoFAkBYVFdUGGrPX6+WSVg4TKhZg0lzL6jyRstzoHPwfmwJsELCAw8+KsqU6nQ6pTX4wJUA1mUyn27Vr9+ixY8dO15bASwM61WOnjceFCxd2NG/enAF6GQPw+eef64YPH+4vzgIfevCmCHKkaHd8T4GPVEIWYw2Ax0HjX5mxLr0BwDyFGf/06dN/dOvWbcDu3bt/r8z92LlMAsESYIDO5kODlIBIJGovkUiOh4WFcUnLAtgCfLH4BpXirFb/sIDjnhQBTQs8gB4LP3KWyfSKoLhWrVr9648//jhbrYeWcXFpQA9UJ7tmcr948eIOnU43yGg0Mg39BnKcN29e2JQpU7bHxsb6feg4KMAR84b86fik0q4Yd9LiqW57cFBkVccbG4hA3XlXYWHhK3a7/WOWKldVabLrGKCzOdBQJXCPSqVKU6lUfgCng8ygAFkKWKuuhk4aOC38tODTgk5pY7m5uX/cfPPNj544ceJ8bQm1NKDj2eg/2oi0tXPnzu2IjIxkgF7GAPTo0UO9Z88eyOlOOo3Am+IhKB0Q/6f5RWZ3Av3yrDsVmQNUnjYQVDnJ5/O9A9d6Ra5l5zAJlJYAA3Q2JxqkBB555JF79u7dmxYREeGvX42FERo6AB0LMICOFmkKRArOqya6T3xW56A64W6325ednb2lQ4cOzx8/frxK2nFF2gFAD+Zyp00G+hbgct8RHh7OAL0MYY4dO1a8YMGC95RK5WhsCJ1OJxfWFpo3xJEfHMB2o9uVB+q4ByxICFiEeZ9M9vgueGOAeWgymRigV+QlYOfcUAIM0NnkaJASeOyxx/yATixf5AcFwJIflPzbpMGS2RyaLBZXnEfFOKq6YGNBl0gk3vT09CKfz/fvwYMHr168eHGtRSvfCNABCAAnRLk3AkCfbDQaZ9XWxAzEYNwil8s3aTQaPY/HE5ImThtBzCdyp1SnHZiDdB/Mv6KiIv/GE354xHiQlYcBenWkzK69ZmliomASaIgSePzxx+/ZuXNnmkaj4aBKFhZOLMKkZbn/PmyUckTmdwoiI62JUpBuJIPyoph9Pp+Xx+NZ7Hb7bA6H8zmHw/m7wHYtHQB0Ho+3JDIyUgugIA2dAXrlBJ6amsofMGDAYwKBYJJMJmvmdrv5PB6P53Q6/Slq2OiR/7xyd/7fszEfcS+Xy8VVq9USlUololQ5WAVw4DkBQP+Pz+eby0zu1ZF4076WaehNe/wbbO8B6Nu2bUuLjIz0az0E6BSJbjKZfg+AbDFp6gSA6DQW2eC/byQIXHudA+8Nfjx6vd7ev3//sxqN5mJdkIMwQK/ZKTtp0qSIo0ePtt2xY4fa4/EIAuPt92GX4Y7xVaAV/rWV5plIJJI4nc4JMTExt1PcA20ygwCdmdwrIFh2yo0lwACdzY4GKQEA+vbt2/0+dMoRJ20H5syMjIyfPR7PYxwOp6BBdvAGjW4kgL5QKpWOKIPLvVZN7vU0HzRCoXBDQkJCMiLrwW1APnUG6PU0Io3wsQzQG+GgNoUuBZvcqVIWtHNoVfBRZmVl7YuJiXksPT2dAL0iWlXIi44BesgP0Y0aqBIIBBuio6O7UwQ9LERk1mc+9AY7riHVcAboITUcrDEVlQAAfceOHX4fOnjVKXWM8sOzs7P3denSpfe+ffuajIaOKPcGkrbW5DT01157TTlv3ryNcXFx3TFfKYKeAXpF33h2XkUkwAC9IlJi54ScBMjkHh4e7k9boxQ1IgBJT09P69q166MM0Cs3dHVUnKXJAfrSpUuVzz777MbY2Nju5EOHRYncRExDr9w8ZWdfXwIM0NnMaJASIA0dFKzBtckbu4bO5/P7iUSiJRqNRosALoqihvkW1gpQv86YMWPQhAkTqpQLXxrQg/OsEeBlMpnMgwYNun/RokUHqzJxDAYD7+23316oUqlGIH2QaHUptRDuEovFMjk3N7fW0taq0u7qXgNAf+655/yAHswDT6AOObA89OpKmV3PAJ3NgQYpgaYK6BwOp69CoViqVCq10OooCh+AoNVqUQ99x+rVqwf169cv1AH9eZlMhmpj/j5gQwJQRyqXQqGYfP78eQboDfLNZI2uTwkwQK9P6bNnV1kCKSkpXbZv376/qWnoUqm0r8PhWIo8dERKAwgB7PiBhn727Nkd+/btG9S1a9cGA+joAzITKMXLbDZPLi4ubvSATuZ2fAbK77K0tSqvCOxCSIABOpsHDVICTRnQPR7P0tjYWG1BQYE//YkOBMWdPn16R1paWq0C+pAhQ7ovXLjwUFUmTmmTO+5BlLzkLnG73Y0uba20yR0ATnEfDNCrMpPYNdeTAAN0Ni8apASaKqAjbc3tdi9JSEjQAgiD6UNBg3vq1Kkd27dvH9SzZ89a09BrEtDBmgbtnNINXS6Xr6ioaJLVap3TICfmDRodAPRNsbGx3SjvvHRBmJycnMk+n28OY4prTCNft31hgF638mZPqyEJNFFA54pEor58Pn+JXq/Xoi47yFkAEDBbh4WF+bnct27dGuqAvkClUo1EUBwFiKH9VDkvIyNjKofDmePz+dyNpZQoA/QaevHZbcqUAAN0NkEapASaKqDDhw5Al8lkWmi2ZK5GQBn50Ldt29ZgAJ0C+xDUR6VEc3Nzp7jdbmjoIAOinwY5T6nRK1euVA0aNAhR7tfV0DGORqORaegNepTrv/EM0Ot/DFgLqiCBhgDou3fvlly8eDF67NixikCFL6/T6eSJRCKfQqHwWSwWvH9lMthBcw0Ei/n5471eb8+rJtk34uPjlci/B0EJVexqQD70axo6ATlVvUOfrFbrfJfLtSxQ0tQnl8v9cqIoeEyX4N/Lmj44b8CAAbacnJysHTt21GrhnLLawQC9Ci85u6TSEmCAXmmRsQtCQQJ9+/btsnPnzv3gcke1NfgjSdsDEGRkZOzr2rVrvTHF9e3bN3LTpk2juVzuQ1wuVx0IQAWTCM/r9XqJIax0ze3S9bWpgAcVmBEKhSqxWBwtEon4IChBnwGK6D8AHVHuoR4UN2PGjAVKpXIkcs5xUIAY+oi+WK3WPKfTaYK5HX+XFbwbLK/gynil8uetDofj6NX7vMnhcC7Xx/wFoA8cOHBjQkJCN2wycATno6Pt8KF7PB7mQ6+PAWokz2SA3kgGsql1A4D+888/74cPGVod1bEmjRVc7vVF/frUU0+Fb9myZaFcLu8jlUoFpccGbcQCjp9gtrDrjSEFTpFpHZ/BZT3xf9oUIOIdgB7qJvcZM2YsVCgUI9BekgH1gwLGIIsbVLr7HzEFU6gSSAafQNYLkUhkzcjIOCwSiZ4rLi4+Xdfvy40AHX2kTZnJZGIm97oemEb2PAbojWxAm0p3YHL/9ttv90dFRfkBncqn+tU5LtdfnOUf//hHnWvoSMuaM2dOfx6P92lUVFQYotAJgK8H3jcCLdIwgzX462mgVN8doIAgs0uXLoV0UFxKyv9r70zAm6y2vZ856ZCkaTqXtgxlUBFlOFdxpCBeEBDE04qKCCIockBBURHRKBVQGeQgDoifiqJYBhGUQUFwwqOCHI9QB1qL0KZz0jHz8PGPWdxcLtgAbWnfd+V5eNrSN2/2+q3d97/32muvnS3fsGHDKwaD4W7M0IkJ9Vsa6NCg5y+OMA28JfT9xIfuga8UvUBIH5GcqqqqhyQSyeLW/jsJln798OQZOrWZ19Bb2yPC/DwWdGH6VfBWYYa+c+fOvVTLHQKAhyIekJitQ9CvvfbaEXv27KlpTRgdO3bUHD16dEF8fPx0pVIpI0EhkaEBx8mh9dA2hv6OwtGh76drQ8P2CONi2xpm6G152xoEffPmzS9pNJrJyGpHjgAGNeQ/2ESzavjz5CWJU0U7aGZOPEIjGFh+wWdg8IAtclardYPH4xkjkUgCsfzWep1O0OFftBH+LSkp4Rl6azlEoJ/Dgi5QxwrdLDo+FSKG06sodAkBQPa32Wz+6qKLLhrx73//u1UFvX///hHffffdooyMjPvo0BgS8VP5JHTWHfp7+n/YRQJ/KsGizHC8Fyx++eWXrZ9++um46667rvps+kA4tdzPdR/6ggULFhuNxgcovA5Bg5002yabIXZ/NfAhIQ+dmdP/ke00IKIli4aGhp2XX345BnqOs+Fztu85naCHDmDKyspY0M8WML8vQIAFnTtCuyQwduzYK9avX/81kuIw86IEMTzcKSnukksuaXVBHzBggGbPnj2LunbtOhXtIlEKFeXQ2fapQsahDjk55BwaTsZ1JFhBIfM2NDS8vGHDhoduuOEG59k4tqUFPfjMuTM2NvY1tVqtoETG0KppFG4PHayczpZQPqcb+GApAhGM2tpaLM/sGj9+/PA333yzzQg62VZZWclJcWfTafk9JwiwoHNnaJcExowZc8X27du/xoEkJ5+2FswYPi8h98OHD6t79eq1ODExcSraRWv7lKxHIWSaVWLwcaqZOf1faMg5NJRMv6dZrsfj8Vut1oN9+vQZ8+WXX+afrVNbQdAl48eP7/jmm2+uNhqNV2Pv/KlyA2jg0tQaOvjR7BvLG7ieEgfBAPxramoCRXcQeq+urt51++23ny9BR5b7wNAsd9rFgLZaLJY5TqdzIVeKO9vey+9jQec+0C4J0HnoSUlJeBAGHtyhYduGhobPBw8ePGrTpk2tGnIfOnSoetu2bYsvuOCCqRCSQBgsmIlO4ut0OrGNqhoiHBSzE3vRTw7Bn7wtK/Tn4Pf4G/Yolcr92L9tMpm+MZlMfx60fRav1hB07MnPzc3t+Oyzzz7gcDiG+v1+hVwul8pkssDziKIWp1iOOHnPfuC0thDGfoVCEa1SqeIojA+RR/QGr7q6OizP7LzjjjtGtJUZOg3YIPKVlZVz8/LyFuTk5HjPwnX8FibAIXfuA+2TQHZ29lUff/zxl5jhQcgpm5xmxKWlpV8vWLBgxOzZs62taWFmZqa6qKhocUZGRiDkTmJOW5PUarW/tLR0y9///neTXC6HEEu6du3q93q9/0us6OSx07VdoVBgj7ZULpfLfT5fo9frLTGZTOccRiZBT0pK6hXcA36iCXQe+rmsoYfak5eXpzp06FDSypUro0pLS+UqlUrar18//7Bhw8IuHLNgwYLALge8F1u7PR7P6Li4uKcQZoeAUyY9+gWy3Ovq6nbeeeed50XQ77777g9TUlICleIogROCHuwb/rq6urkjR45cuG7dOhb01vyjFdBn8QxdQM4UuimY2X399dfR06ZN611QUDBMrVY/jGIqmAnjwY2ZGEQ0Ojoa27dKdDpdblJS0t5XXnnlt6ysrHMWu3D4kqB36dIlEHLHi9bRg+Fhv8VieSc9PX1SQUGBJzs7W7Ju3TqaUf9l1bhwPv9cr2lNQT9NW6Umkyns55LJZDr5NncZDIbXkCCIwRT6A525fj4Efd++fcoZM2bEFRQUXIeStgkJCd0po58ajv6BvltSUrI5IyPj1auvvvrA22+/Xc6h93PtzeJ7f9h/OOJDwxa3JQKvvvqqcseOHUM/+uijW6Kjo0c6HI4ozM4hkpQUh7AlHo6YSWIWFHyYF9bV1a0fMGDAqt27d//e0g/JadOmqV966aXFaWlpU2mtFDNdPMQx6MBssqqqas3kyZMnrFy5ElunzruIh/oZgv7LL79sSElJafEZekv0r9jY2IlKpXIVDaRojf18zNBNJlPS008/PU4qlY6OjY29jPyPAScGG4gqoW/gZ/RVrPErFIo6u93+pVarfevee+/dZjKZGlqCE99TmARY0IXpV8FYZTKZFB9++GFqUVHRXVKp9D65XG7UaDRYbw2IN174Hg9H/EwPRzwwUUUOs7KIiAj3ERRVT0p6Si6XbywuLra3FCAkxfXo0WNxamrqVKpTTtXQaM91dXX1mt69e0/Yv3//nzVA29ArKOjrk5OTLzk5Ia25Q+4tYXZKSspEv9+Pw2tOlARu7Rk6ojROp/O/jh079lR0dPRlCQkJkRBsvLClkr7HYAP/bDZbQNjBF3kVyCewWq0Wp9O5adSoUQvXr19fIJRT51rC53zP/yHAgs69oU0TyMjI6FRWVva6Uqm8Rq/XSz0ej4y2OFEmNGbjCFniKyVBYXaM7/EAxe9kMpnfbrdby8vLnzk+c3rFZDLZWsJwCHr37t0XI+SONVxqERD58AAAIABJREFUA8SRogclJSVrdu/ePT4rK6tVi5uEY297F/QOHTpMlEgkqzCQg+/xak1BP3jwoCo7O/uOn3/++Ynu3bsnW61WJQaciBDQgTL4SoPN0L6L71EOFwM/tDkqKspfWFj4+ZAhQ+Zu27Ztb0tHl8LpH3xN2ybAgt62/SPq1mVmZnYpKir6Z3x8/MCoqCg1TiejSnC0NYkelHTQB9at6YxwOuwDhWeC28O8Ho+nxul0PrdgwYJl06dPP6u92n/lFAh6165dF3fu3DmQFAdRQZgdD3FsscNeaMzQ24OgU5U7src9zNATExMn+ny+VcitAH9KQGuNkDvWy2+55ZZbS0tLn4mJiUkFv4iICCn6JNihL0Cs6QQ9/B79FgM9qmRHleOCy0jI2vdVVVX9NGDAgIk7duz4QdQPBDa+SQIs6E0i4gvOB4GLL77Y8NNPP60yGAxD9Xp9BGZceGG2A8GGSOMFocaDkcp70kydRJzC3XiYIrSpUql8drvd0rNnz1n19fV5+/btszdnOJNm6LSGTklZCQkJOE0rUG+9rKxsza5du9r8DL09CnqnTp0m1tXVrYJAok+05hp6UlLStRaL5W2DwdABYXP0PfRDzLopn4IKH1ENfvRhCD7ai74dKvK0pQ33qK+v/2TQoEETt23bVnw+/h75M9sHARb09uEnUbUSB5y88MILd7rd7hWxsbERWB/HAxDr4xRKx4Oa1nhDq8RRiBUPSFwbWomNvlcoFN7y8vJfDAbDHZWVlQeaE+7WrVvVw4cPX9ytW7ep1dXVJ+p0Q9gpWQ+CzjP05qT+P/fKyMiY6HA4AklxwTXpVgm5Z2dnJ23evPm9uLi4a1B6ADsy0G8RGaDZN/op1UqgSBP6KAQfok1iTkmeodnwCoXCeezYsRf27t371BVXXNFiOSAt4xW+a2sRYEFvLdL8OWERwOEd69at665QKDZ26NAh0+l0YqoTCJ3Snu5gNjD+z+/z+aQWi+WI2+2ukUqlSq1Wm6rHYrtUKsV1eA8eqJjhU6IUHqp42Nvt9nf/8Y9/TDCZTFjLPutiLKGGISHqjz/+CGS50+wcD3KE3fH5wSp2az755JM2OUPv0qVLZlFR0f9KiiP2GERVV1fXNdc+9LA6xBlehKQ4hUKxCkJJ7aZ+Y7VaEYbfOXfu3BHNsWefmmYymVQmk2mWXq+fo9PpIhAJoll5aElb9Dv8Ljo62mU2mw9LJBKHSqVKNBgMSV6vV4F+GowinYhG0fo/xN5ut5fJZLIcq9X65Rli4ctFQoAFXSSObi9mjh8/XrN69eoHtFrt4waDIQrhSApThh7aYbPZfF6v9zen0/nO8RKiKOdpefXVVxGaT9Pr9SMbGhrGpKSkRDqdTmi7FA9Yyi6GmONeZWVl1QkJCYMnTJjw47lUVztZ0AsKChanp6cHstwxqMBnY7YGQYTQVFRUtNkZensXdMzQa2trsVQTCGXjRTNjzILr6up2jR07tllLv/bo0aPj4cOH3+/QocN/QYDJ71QcCH1Nq9X6a2trHRaL5X2VSvXZoEGD9vl8PteePXsS/X7/hQ6HY0J8fHzfuLg4VUlJiRTijvdjlo4+g58R8XG73S/Pnj37AZPJ5Govf9PcztYjwILeeqz5k8IgcMUVVyR888037ycnJw+gg0eodCeJYkNDg9Nms+3weDz3SCSSspDbSrOzs2WPPPKIbOLEiZfl5+cvTkhI6CeTyWR40ELQKWEO4lpXV+euqqp6/uDBg0/17NmzWR6Qffv2jdy/f/+Snj17Ti4vLw88mClrOVjFzo+1+9GjR098++23/0wMaEOv9iroWKa58MILpVOmTLlXqVS+iL4DX2MwiMJDVK+grq7uy2nTpg1fvnx5XXNh79at2x3V1dVvIQEutJY8HTKDqn5Wq/WY3W5/fO7cue8FI0InPj47O1tVWVmp++KLL2YYDIaZERERKvRZDEDQbzEgpK9ms7l0yJAhAz744IPfmqv9fB/hEGBBF44vBWFJr169Li8sLNyRkJCgQ/iRzsaGKOIB7Xa7/WVlZXslEsldEokEYcvTFWZBVdQhMplsRWpqagZC3rSeSQl0KMN6+PDhrYMHD77rk08+qTgXgBdeeKHK5XJlVlVV5Xi93olIjCIhx0yLsvKVSqW/srKyzOl0vpmUlPTWmjVrCtvS9rX2KOhYrx43blzHvXv3Di8pKZlkMBh6qtXqwJILRBEJiZWVlYG+dLyWQYVKpdrQv3//d6655pr906ZNc51LUiTK106bNu1lv99/FwaedFAMJWMGi8nYa2pq7jGZTO+fbmYdXGrSSiSS51JTU+/CUhP6DQYiGMhSXXur1VrvcDim+v3+NbyN7Vz+YoX5XhZ0Yfq13VrVs2fPu8xm8+sImSLESNt6MEvBXvKamhpHZGRkX7PZ/EtTD2IclLJr167HIiMjH9VqtSo6HIX2r+Pev//+++HExMRx5eXl/zpTaBCSrl27qrp3797z448/nmw0Gm/3+/1RyKinvcd4wNOaP62p4+QvrOf6fL6axsbGtW63+wWJRFKIQ1bOtA3NfX17E3STyZRpMpnGaLXaRzweTzTY4kVFffA9bQuDL9CHIJAOh8PT2Ni4Sa1Wr9q/f/+es43QPPbYY4nz58//Ij09vRs+h7ak4Su1o6Gh4a05c+bcffLM/FS+U6lUF0il0jWxsbG9qXYB+j76bHD2jwHtyt27dz/QWuWMm7uP8f1ajgALesux5TufBYFevXrllpeXzwnN8CVRxyzb7/fvqq2tHdyUmNNHDx8+/JIdO3bsSEtLS6Q1dNqfHjzUxenz+cZUV1dvOovm4u/npuNZzU917NjxArvdjoNSAtn4VHoWszY83PEzCT3WdjHzgl0ej8dtNptx3OnzEonkveZKzjsLWwJvaS+CjsGUVCrtJZFIXk5NTe0rlUoRpg6sl6OgD52BToegUMEhsI+Pjz8hvBUVFUf0ev3yLVu2vNKvX78zLjY0e/bsbitWrNiZmpqaVlVVdSKiROF2t9vd4Ha7sa6fF45PlixZEjFr1qxlqampE202mwx9hvoS+gzs+v3339cfOHBgUu/evVv1JMFw2s/XnF8CLOjnlz9/+v8moJDJZC+qVKp7MNOiQ03wUKZTs2pra5+22WxPhgvutttuM2zYsOFAYmJiBq3Bh2xfC6yr19TUjHW5XGvCvWdeXp583759kUuXLr07MjLyCZ1Op/d6vVLaPoe2ItRLs3QKmWIAgf9HKDUuLi4QBsbDOpiF7+vUqdPU+++//+1x48adt7X19iDoWN7Iz88frdPpFqCAi8PhUNLWMNrPDc5UpIVm6RB1SpaDbyikbbFYUJvgnb17907v169fbbj9AIMKlUrVx+12b+7cuXMKBpzoA1gqogqFxcXFh6Kjo3MaGhrCOqM+OFDJjoyMfD0hISEagxPckwaGKJhz5MiRHXFxceOxdBNuW/k6cRBgQReHn9uLlajV+YrBYLgT4oeHGK1FUqZycXHx4z6f75kzMEinVqv3x8XFZdJZ4vSgx894sNfX10+oqal58wzuiRn25OPr4U8aDAaj1+tVUyY+MpJp3R8zKqrfjq/0/5hlYaaIhz7aEhR+X3V1ddnxAYbpvffe+3/n60zsti7ofr9f1qlTp6stFsvq46KXFizGIg09pIf2elOGOL5SkRYKYyMfA4M5XBsREeFDgmRsbOySd999NzfcmXpQfPvrdLr1CQkJyRB0DCRw0hsN4srKyvbp9foxtbW1WFIJ6yWXy0eo1ep3kEeCNlLbafB35MiRnZmZmRMKCgq4yExYRMVzEQu6eHzdHixVREVFLZbJZNNxkhoVkQmGpgPtP54NvMTn8z0YrjGzZs1KWrZs2XcdOnRIw8yJ9qVTGDwoqLeUlZWFFRJFNrXJZEL1ujejo6ORxKSm/c60Xk77zUOz2ynMj2sg5LANM0QaAEAANBqNz2KxuDwez42zZ8/e1Vxb6cJldbqQO/6fCqFgH/ptt902cNWqVfvP5L7Nda1Sqfwb9pkbjcYeHo8nEGYHQxoAUr4CJSHSHnRcQ7slMFMn0cdXvCe4rcyDCJDX651/Bglnl2q12o+MRmMqfIi+gK/oA2iD1Wr9QyqV3mq3278JhwEGLCqVamJUVNQLer0e2y4Db6P2BkPuHyUmJt5VVlZWGc49+RrxEGBBF4+v24Ol6I+PxcfH5+LhSweb4GFMD2S73Z5/7bXX/m3Lli1NrndiBnXppZdeefjw4Q9iYmLiKFOYtsPhnk6ns16j0eRUVlZuDwfQjTfemLJ169Z34uPjr1YqlQo8cPEPMz5aFqBZFYSbTtei6l9UaITEHw9qOnELAo9XaWnpJ6+//vrdd91117Fw2tSc15xqht5WBL1Dhw4RxcXFKxMTE8doNBq5y+XCYT0nKq2BNbjCv+CKF+1ooIS1UCEHb/iFygdjmaeoqKh46NChV2/atOlIOFzVanU3p9P5aY8ePdKxhk7VAOHn4LG5nrKysvumTZu2evny5U2eHbB79+7orKysFUlJSWMVCoUsdMCHvwks1eTn5+ctXLhw8qOPPhr28kA4tvA17Z8AC3r796FgLIAAKxSKm3Q63QasdeJhS6FLPCh1Op2ksLDQc/XVV4+75pprNjRVXEOv1xtqa2tfSU5OHoW9vVReEw9GZA7ja1FR0Q/R0dF3Wq3Wg2GAxJrpI9HR0bkQlNDSs3gv1ZvHQ7eiosJTX1//u9/vt8rlcrdarZa73e64+Pj4dLlcrg7uSQ98JN5HRUQgQA6Hw+twOJ6y2+2YKf55RmwrvdqqoE+ePFn5ww8/XFdYWLhZr9fL6+rqpLROTbPy4MzbB6GvrKw8JpVKy1QqlcvpdGLWGxMdHZ2u0+miqa46IjboA2APX1IJ1oqKipVr1659MCcnp8mzyB9++GHtK6+88tnxWXo/3Au+xCydBmderxfbFL+Ojo4eVV9fDwH+y50MSUlJWQ6H462oqKgOKIqECAQdPAQ7nU6nx+FwLN63b98TZ5uZ30pdiT/mPBBgQT8P0PkjT0sA/fFSnU73iVarjcODl0Lk2OYFQQ9uNcsfNmzYpI8//hj70f/PKxgWx7nS46OiohZFR0fHUpU2WuvGYAEPcYvF8qFGo7m3sbGxyQSjiRMnxq5evfpLnU53gUKhCBy+QbP+kKNcHVartdrpdL53ww03vHe8gMwxv9/vOC7Oqq+++qrT2rVrb9Tr9VhS0AfPaj9Rbx73wNo6suRramq+z8nJGfbGG2+0ali1rQr6O++8o5swYcJLOp3udoqEUBQHs3KEooOn2lnr6+s3paenv9WrV69fvvrqK3tubq68oqIi2WQyDYqKipqt1+uTwZqq+OEEPDDHC/c5fPjw4aysrDt27979bVN/qyaTSZGbmztfp9PNoiJCFB0IlhjGNjlHWVnZEuwxl0gkpy1o06tXrw7/+c9/3o6Pj78S0R8kWqI9aB/6LwYcR44cqVGr1Xc6HI4t4e70aMoG/r1wCLCgC8eX7d4SzNCfffZZ3aOPProyISEhG4qJhzWdmEWnUWGt+ejRo8fi4uKmqtXqfxUXF1vo4YYjLL/44ouMxx577BaVSvVAXFxcbH19vYzWWEMPa7HZbHatVjvr8ssvf23dunV/WSkObRsxYsTQXbt2bUhKSlLjYYsZPyW44StmZlar9VBMTMwDL7zwwhc5OTnuoFNOFL/Bedl///vfr//999/nx8XFXUzhYcpiRujeYrFgicHTrVu34T/88MOO1nQsBB3bolJSUi6hCAQ+/3yvoev1+n4ej2eN0WjsBuFG4hkywCmyERygmWtqamZPnjx5/cqVK//Pkgx2J2zYsKHnxo0bV+j1+is0Go2Uar5TARfwl8lk3qKionmTJ0+ev3LlSvLhad3QqVOn68vKypAYF93Y2BgY6EF8EQHAC5XiXC6XDWVfr7rqqmefe+65Y/3793egz2LwedNNN0UMHDjwMovFMjctLe1K1HUHckSnKHJAiX0WiyV/3Lhxg1566aUmB6Ct2W/4s9oGARb0tuEHbkWQQN++fZWHDh0a6/f7l6SlpcVgFkXHS1ImMyWT1dXVWZ1O55cpKSlbx44daz5y5Ijy/fff76tQKLISEhL+5vP55DKZLLCdjNYiKTyLcG1xcXHFpZde2u/7779vcq36jTfe0Nx9992LjEbjFKxt0rp56EEcNputTqfTTTl27Njav0qqgrA888wzNxYUFKw3Go2Bk7lgI7Yk0X5ptLOysnLeE088YWrN5Li2KOjgI5fLp8bGxi4yGAxqsAInqsAH8bRYLA2NjY3PeDyexRKJ5LQiDAE9cODAwG3btr2RnJzcgRIvaVZNA6yysrIPR4wYccfmzZv/LAj/F68VK1YkzZgx4/XIyMjrIyMjFRjY0e4G9DO8vF6vD0VtSkpK/u3z+b7p1KnTFxEREQ2FhYXpTqfzMo1Gc31iYmIS9p7bbDYpolE0mKWCSLAZNQ8qKyufPoOkvaaaz78XEAEWdAE5UyCmoE8mKJXKd9PT0wfSuefBh9mJM6MxI6aHZllZmV2pVHpw8pper9dIpVLMcAICiVkcwqlU+pVOWqusrHS5XK4nHnvssefDEczt27fHDhky5O309PQbcG+0i5YDMDvE91VVVe+tXbt2Sk5OTpPJSjiha8GCBe9qtdrRmNKhrXiA031hX1FR0ZcvvvjiDVOnTm1yLbe5fB8q6KHnoZ/PGToyv5VK5eL4+Pj7g1vFTlROw8wVonn06NFvtVrtLTU1NX80xQIDqkmTJj2kVCoX0vo5rX8jbI6BY2VlZenAgQMv2bZtW5NLHmifVCq9OTIy8uW4uDiD1+sNDPjQNvQNiDO+4t7B3Q7eiooKu0qlwgl/yri4OOyUQPn2EwM6DCzo+F+0B/xLSkr233zzzbdu2LABJY/5xQT+DwEWdO4UbZJAamrqoJqamvexzxszFNpqRGdGY2ZMa5YQQzxA6Ro8/KiIC21VwgMyZKburK2t/e6OO+64c9WqVUXhABg9enTG5s2b3+3cufMVyGbGZ1IpVzywzWZzg91un+n3+1eFu7Ypk8nuPX7U69LIyEhNaJlPOl3LbDb/uHDhwmEzZ84sCaeNzXFNWxR0rFPPmzdvbXp6+mgkisHXJMQQQQzWGhoanjheV31+uPv3r7zyyn4HDx78nvxIuw3AEANF+OCKK67o8vHHH/8eDtehQ4fqduzYsSwuLg5r/Er0xdA+R7sd6Ix2hPZpkEozcUrSo6N+qWRtcPtjXVVV1cPffffd/+vXr1+TywDhtJmvER4BFnTh+bTdW4RZ2NKlSzUzZ86cFR8f/7BWq43E2iQdfEFFZihbmRLeIPC0xQ0iiwdjaEERCG1ERASyjn8zGAx3l5SU7A1XfLVabff6+vr3MzIyLkE76OGLhzIO/ygsLCyePHnyTS+++OK+M3DAtcerrb7drVu3NIhS6HYrPPALCwt/Xrp06cj777+/1WZkEPTCwsL1nTt3viQ0YxuRA7Spqqqq1c9DRzRj3rx52+Pj47NoFouv4AWhhMCnpaXdtH///rDL9w4cODD1s88++9poNGaQyFKSHSWiXXXVVZd+9NFHP4brz2HDhl2wa9euVXFxcZd5vd5AGWC8qDgSrYNTMaHQvknX0ZILBhi0vRLlga1W6yu5ublzHnnkkSaXAMJtL18nPAIs6MLzqSAsCmaqRyoUirkxMTGzsBZOtdAhplTMBWKO7/HwpL3qlGCGhyLVhA+GZr1lZWVH5HL5jCFDhmzNy8vzhSvoKpXqIp/P915KSsrFVOKTMubxEG5oaDg2e/bsUXPmzPkhXAcolcrL3W73u2lpaZ2oih3aDvFE2ysrK/OfeeaZUQ8//HCrCnp5efn6yMjISyhzn/ZUY+misrKybsyYMa1aWObVV19V3nfffbv0ev3VJL5oE4QXoodISe/evUd++umnm8Nl37dv3+SffvrpC61Wm0mlVYOHtwQiOThyNSsr67JNmzZ9F+49MRAdMmTIVV9//fXLer3+Isr5oL3xaDv6LqICaHfoLJ6S8kjkaduby+VyV1RUfJSZmTmdK8OF6wnxXseCLl7ftxfLY7H32+/3363X6wPbz2htl46rxAMdD3f8TAewUJlVCCWV4jSbzT8ZDIZHtm3btvNMw5Y6na5rXV3d2x07drwMgk7RAHwOPru4uLgmOjr63urq6rxwBwkSieROvV7/olKpjEZiF4XdcW/8fPTo0f8sWLBgxAMPPHC0tZyVmZnZpaCgYENqauqJLHcMMCBC4Hv06NG6qVOnDli+fPmB1moTQu6LFi1ap9FoRoEN/qEOPiIGeAXrFcy02WwvhMveYDD0UqlU++RyeaAOfHl5eaBoC3wAMcU2yWuuueaSzZs3/+dM7MRa+MCBA/+2e/fueUlJSddIpVI1hdSpiA1Vk8OgDYPUk/fDU3U7l8tVX19f/1bXrl2f/fHHH0vCte1M2svXCosAC7qw/Ck4a/Aw//bbb+Xbtm0botPp5srl8j6RkZHIDD9xVjStjdO+YiqzClGE+FdVVWF9e3tOTk7u+++/H3YI9SSYSVKp9K3OnTtfD0GnMD/uj5krhKC0tHTl888//8DMmTPtTTkCs84pU6YsNxgMqAkvpbZSNn4wCWrfkiVL/nvmzJmWpu7XHL9HVKS2trbP0qVL30lNTe2Oe1JZVdgJUS8uLq7v27fvTWq1+vM9e/a0ynGvwaSzZQaD4R9oA2bPqOpGOwOwNFBTU/OZ2+2+XSKRNLmdC0lxjz766OTa2tqXwD20dC98m5iYCDutQ4cO7bVx48Yzrpce3OKYtnXr1qkajWacXq9PooEf2goBR//BgIRKEIMz9QGwrqmp+dHtdq9cuHDhGq4I1xy9Wxz3YEEXh5/bvZV4qD///POdFixYMNhms01TKpXxCoXCcLxqm4IqadGaJR6aDQ0NDqVSWeNyufYlJiauuuWWW/YsXLiw7hxmOdEajebVuLi4Wz0eT2A9n6q9QQRQ2a60tLSmQ4cO2YWFhbv+6nMgnIsXL0a4fatWq9VFRUUF9kNTJjke8rinx+N5OTc398FwBgjn4uABAwZobDZb98OHDw+BKMbGxnZtbGzUQHToGFCsU8NeuVzuKy8vP+r1ej/o06fPGofD8Wt+fn6LZuEHM9sfTktLw7Y0OZ11TiFto9GIpMQam832MHISMGk/HQ+wl8vlXebNm/dWXFxc/9CwOISdEizNZvOn1113XfbOnTub3LFwus/asmVL5K233vo3t9t9q1KpHHF8S53WaDRGY/kIfRZMKeJQXl6OyoINer3e3NDQsG7QoEFrn3zyycIzjSSdSz/g97Z/Aizo7d+HorIAM9uDBw/G7N69u2t+fv5IhUKR6nK59JGRkSqbzeZTqVQOl8uFGW3+pEmTtqemphaaTKbTPuDDhRdc079Jr9eviY+PV2OWiMgAnYCF+2Cvsdls3jNgwIDpn332Wf6pRB3idOedd16+evXqpcnJyZdR8hOFeqk2Oe6vVCpHV1RUfBBuG8/muhkzZqQuW7bsDrlcfq9Op8vQaDR+OgqWZq507CzaSmvACB+73e5Kq9W6pV+/frnffvvtkXMYLIXT9CyJRPJWp06d0mj9GQMfGnSgrXV1dYWpqamT5XL5V/n5+acsFPTII4+kP/fccy/FxsYORT0BSrKjNWsMBhFxKSsre+amm256uqmCQ+E0/J///Kd6y5Yt6Z9++ullarX6Kr/fH+dyuaLVarXC5XI5/H5/o0wm+8Pn8+297777/pWQkFARzlbKcD6brxEXARZ0cflbUNai6lplZaXqt99+08yZM0fZp08f79y5c91yudxRXFzsCncL0xlASVGr1QcyMjISILiUvUzHsR4/ThWbib0lJSX7evfuvXjMmDF7Ro4cWe90Ov1qtRoJU/ojR45cJpFI/omjPxMSEuQQENqmBnHCz/haXl5eOGrUqOs3btwY1rapM7AhcCkGKNu2betx4MCBN6Kjoy+KioqKRBsRGUDol9Z7IeaUNEYzYyrqEszCxrGvX3Xp0mXhoUOHdrRUwZP4+Pgkq9X6VseOHa9HKdTQ5DhKioyKivIfPXr0t+PRmxXdu3f/YMOGDZWZmZm+Q4cOSR944IGInTt39tZoNI/L5fJrYmNjlVQAhqqxUZJjeXm5GTkbNptt25ly/avrEWXas2ePKiYmRjNq1KgIt9uN8q7OGTNmOIcPH26/6KKL3C08KGpOc/hebZAAC3obdAo3qc0SwOEsC1G3G7XcIQiUnU5bkuj/amtrMUPca7fbDykUCg9CxQqFoo/RaOyj0WjU2M1E2fpIqqNkvmDVM3djY+Nzx4XGJJVKW2SdWqPRXOP3+19A8huEhs5rp61ztHaOWTmdFAevhO4kIC/h/+rq6izdu3e/Z8mSJZuysrKavc3Bg3uGS6XSD9PS0vB5gbwDKk9LORVYCkF76+vrD7hcLmSoN0ZEREC8O3u93sEGg0EZEREhpbPQaTCA99EsvaSk5P28vLz7cnJyWiV3oc32dm5YuyPAgt7uXMYNPo8EpDExMb0cDsc7CQkJF6HICYWhka2MGR7NtoOHf/iR+HT85DRpsB69H9XsKFOfEuCoAAkGBVFRUb6CgoKDM2fOvGPRokVnlGEdDpfgenTXyMjIdVqttqtcLtfI5fLA4ITyAjArh1hSmVzaN03VyygzG+vNoRXzqqurD2dkZEwPztRP1K8Pp13hXNO/f/+Iffv24SzwLJyoRiWA6UhUyg4HX9qJALtoNwRtS6OlBNhHxVuC28X8NTU1jr59+/73nj17vm6paEM4tvI1TOBsCLCgnw01fo9oCSDr3mQyTTkeon4uMTFRg5kezcppqxwJNdUax+8puQzf04EglBgFgSThKSsrw+9zRo8evXHdunXNfnTq5MmTk1977bW3cUynSqWSUWldtAWCSGvIJH74GYMSmrGHiiNj6tuYAAARf0lEQVRV64OgBo+A9Vmt1h+NRuNIs9ncZH38s+xEN8TGxr6WlpaWWFFRIQ+tIog2o31UkIWSFskfZBN4004FtIGu93q9rqqqqmV5eXmzW2C55izN5bcxgfAJsKCHz4qvZAIQXpRej1Kr1c/GxMRMcrlcStp+hBlfyGEcARGn2S6tP5PIU0Y+RAfvw/qv0+l0WiyW9+bMmfMPk8mErW/NPsuNjo7G4TLzIyIi9DAEAkh1x6mcKgSQ2imTyXzB8LSMQtwQb7QfyWP4StnaWP91OBx+pVK5ctasWTNbKDs/UqlU3iGVSpd27NhRgygJuiW1gaoD0mwdYo0ljerq6sBWN7DGNYguUFSCZudms3lnbm7upMcff7zJevD8p8AE2iIBFvS26BVuU5snkJ2dHXs8A/qxlJSUf0gkEjUJMwlJiMidEPZQkaEwMUQS10okEp9arV6m1Wrn3XzzzbXNneWMvdcPPvhgYlVV1ZcGg6EzPpAK9FB4He0IRgv8FoulwO12/+b1eo+p1WqZ1+tN8Hg8mQkJCd00Go3C6XQGMsRhE0UXgmVLfRaLpeT4+fL3+v3+bc2d5IVkPolEgi2MMyUSyYOxsbHxWMaggQUGGRBtDEgwC4c9aBdFQfA7Ok8d78H3uM7hcHxz8803j37jjTfKm7vNbb4zcwMFQ4AFXTCuZEPOAwGjTCabLZPJpmVmZiqxVo4KY5ix07o4xA6haYgfhJOO64TAUHi4vr7e2tDQsHrHjh1PDh48+Kz3Pf+V/TiW9ngN+9vMZjNqjSuoLC7tf0fbIHBms9kul8s/0Ol0ywcNGvRrt27dGi+88ELJ/PnzI3/77bcuNpvtJp1O95DBYFDBXqqChtA97hHMkMcxoUt27979aEskyMFOvV5vqK2tReW4JQaDQU9JipQkR0mKuBYRBviE1vvpONKEhAS00+1yudb6fL6FLpfr5/PQh/gjmUCzEWBBbzaUfCMxEsjOzlatW7fuaqlUOttoNF6mUChQgCYg4nR4CM0QwQdiQifB2Ww2lPY8kJKS8sikSZN+MJlMp9w73RxcN27caBw9evR7PXr0uM5utwfOX6da6BBhbAVzOBzYNjWvoaEBZ4rbTvW52dnZ8k2bNt2tVqvnGY3GeDrtjGb5lGRWVVX1m8PhGCCRSEqbo/2nu0dERMR/2e32qVFRUcN1Ol2gNDDVTsd7KKGPjrrF74I5D57i4uLvoqKiXlmwYEHe9OnTA2ESfjGB9kyABb09e4/b3lYI4O8oXSKRDFCpVLf4fL4hKE8LYaftYBAaiCbEXKFQOGpraz/Hme/33nvvZ8uXLy8Ors03+5o5Aerfv//F+/fvR1Gci6lcLc6Kx4v2mRcXF2/H/muTyVTaRMjfIJFIHoqLi3sMa9GISiDUjdk+ZsII3eNfQkLC5fn5+d+2pJMwwNi+fXtMfX09Bg/DDAbDmLq6ughU7qNjVoPnm9OaPyqyoU2bhgwZsv7yyy8/2tzLGy1pL9+bCfwVARZ07h9MoBkJ4KjPQ4cOoe77BT/99NMFv/76a6bP50MiV6Pb7S6Sy+U/e71ehHYrkfjWimJyc0RExMqkpKRYhJ6pOAyFps1ms1mhUNzucDg+byoZD4OPlJSUdIvF8q1Op0vEejWFsWlpAWfGd+nSZdyBAwdQirU1XtK8vDzZ6tWrU4uKitIOHTp0sUwmA3ujXC53azSaw8OGDfvleBnWX2+88cajEyZMOOfqga1hFH8GEzgTAizoZ0KLr2UCZ0DgwgsvVOXn5yuDAonZN/1z+/+ckrfYjPwUzZyenJy8jJL3KHpAZ8uXlJQcHDNmzPXvvPNOWCHyvLw81e233/5aSkrKOAwQIOR0KA5m62azGTP2uY8//vj8Vhy0nDAbyXPXXnutrLKyEkl0kpycHBS7+fOAcn4xAYESYEEXqGPZLCZwEoHpRqNxGcQW6/uhZ8VD1Kurqz9/+umnh82aNasxHHLIms/JyVmQlJQ0C2vxWJNHxjjtxUcYvqGhYZHJZJptMpmavXJcOG3ka5iA2AiwoIvN42yvWAlMT0pKWkZb5zCr1ul0gTV+JI5Zrda9ixYtGjp9+vQ/F9abeAUFfWFycvJDoaVrqbocQvrV1dXLnnjiiYdY0Juiyb9nAs1DgAW9eTjyXZhAmyYgl8uRmf6q0WgMhKAh7FTpDbP2X3/99efc3Nyh4RZVwdGgI0aMWN+pU6ehNOOnQ2ow+6+oqECC3ENVVVXImOcXE2ACrUCABb0VIPNHMIE2QGBYVFTUGyjEQrNoiDqVPW1sbKy5+OKLp3711VfvNZUUB1sGDRrU67vvvvtCr9frMRtHqJ1OLcNXi8UiycrKyv7oo4/WtwHbuQlMQBQEWNBF4WY2kglIMlUq1XudOnXqB7FFUhydc47v7Xa7v7S09Ksnn3xynMlkOvJXvB566KGEFStWLFar1WMRbscrWD71RAlWm83m6tOnT7+dO3f+xOyZABNoHQIs6K3DmT+FCZxvAjFSqfS1hISEm+l0NTr3HDP26Ohov9fr9Xs8nrUdO3Z8+JtvvjGfaqY+ZcoUw2uvvTZbo9HcazAYtJjloxIbvlIteAwQ/vjjj31ZWVnX7dy5s0Uq351vmPz5TKAtEmBBb4te4TYxgWYmENxCN9RoNK5HLXY6PQ0zazooBoLu8/k8drv9Xw6H45WUlJRvfT5fTbDojUYqlfayWCyTlUrlf+t0OjUORsH+czpHHAMDFJpxOByuioqKXLfbPV8qlTb7iXHNjIZvxwQEQ4AFXTCuZEOYwOkJYF+2yWTSyeXyT9PS0voh3E5r3vieqsfhJDK8fD4fTn77QSKRlAdn9LFqtbq30WiMxu+DJ7AFBgMIu9P9YmJiJAUFBYdGjhx5+wcffPAj+4QJMIHWI8CC3nqs+ZOYwHknIJfLx6lUqheTkpK0EHQIOELkmKlDpJHxDnHHtjbMtunkMvwfzerpDHI6aY1OW0MIv7y83N/Y2PhgXl7eipycnBarTX/eQXIDmEAbJMCC3gadwk1iAi1FYPz48TGrV69+LDExcYbP51OgzjkJM8Q7VKQRSsfMm4rQUOIbnSNOQk7V5/R6vf/IkSNfdOnSZXR+fr6lpWzg+zIBJnBqAizo3DOYgMgIDB48OOXzzz9/w2g0DlSgTJxEEpiRo9AM7SnHf2P2TuF0XAPhxqwes3V8j8EARB3Jc5idFxYWfpWamjq9pKTk3yJDyuYygTZBgAW9TbiBG8EEWpWALDs7u8e6devmJycnD1cqlXI6Fx2twCwdL4g6wvB4QbzxM66DqNOsHdc2NDT4bDbbgQsuuGDcDz/88HMr16hvVXD8YUygLRNgQW/L3uG2MYEWIoDM9bFjx6bm5eXNkkqld6alpekcDkfgeYBENwg3Qu4UZqc1dIg6zcxxTWNjY2NkZOQXjY2Nc2w2G2bmrXngTAvR4dsygfZJgAW9ffqNW80EmotAlEqlGurz+e7VarVXKRQKNcLnVEUOQg4Bh7DTyWwNDQ04293j8/m+czqd765evfrt22+/vZ5n5s3lEr4PEzg7AizoZ8eN38UEBEPA7/fLLr744lSLxXKl1Wodgcqux/eQq5RKpUIqlcp9Pp/U6/V6lEqlRyqVOn0+378yMjK2X3rppVvvueee0qysLD5NTTC9gQ1pzwRY0Nuz97jtTKCZCWRnZ8vXrVuXcOutt3YsKiqK//777+O8Xq8sIiKiesqUKaU2m61MqVSWLl++3NnMH823YwJM4BwJsKCfI0B+OxMQMgEUpHnyySf9HE4XspfZNqEQYEEXiifZDibABJgAExA1ARZ0UbufjWcCTIAJMAGhEGBBF4on2Q4mwASYABMQNQEWdFG7n41nAkyACTABoRBgQReKJ9kOJsAEmAATEDUBFnRRu5+NZwJMgAkwAaEQYEEXiifZDibABJgAExA1ARZ0UbufjWcCTIAJMAGhEGBBF4on2Q4mwASYABMQNQEWdFG7n41nAkyACTABoRBgQReKJ9kOJsAEmAATEDUBFnRRu5+NZwJMgAkwAaEQYEEXiifZDibABJgAExA1ARZ0UbufjWcCTIAJMAGhEGBBF4on2Q4mwASYABMQNQEWdFG7n41nAkyACTABoRBgQReKJ9kOJsAEmAATEDUBFnRRu5+NZwJMgAkwAaEQYEEXiifZDibABJgAExA1ARZ0UbufjWcCTIAJMAGhEGBBF4on2Q4mwASYABMQNQEWdFG7n41nAkyACTABoRBgQReKJ9kOJsAEmAATEDUBFnRRu5+NZwJMgAkwAaEQYEEXiifZDibABJgAExA1ARZ0UbufjWcCTIAJMAGhEGBBF4on2Q4mwASYABMQNQEWdFG7n41nAkyACTABoRBgQReKJ9kOJsAEmAATEDUBFnRRu5+NZwJMgAkwAaEQYEEXiifZDibABJgAExA1ARZ0UbufjWcCTIAJMAGhEGBBF4on2Q4mwASYABMQNQEWdFG7n41nAkyACTABoRBgQReKJ9kOJsAEmAATEDUBFnRRu5+NZwJMgAkwAaEQYEEXiifZDibABJgAExA1ARZ0UbufjWcCTIAJMAGhEGBBF4on2Q4mwASYABMQNQEWdFG7n41nAkyACTABoRBgQReKJ9kOJsAEmAATEDUBFnRRu5+NZwJMgAkwAaEQYEEXiifZDibABJgAExA1ARZ0UbufjWcCTIAJMAGhEGBBF4on2Q4mwASYABMQNQEWdFG7n41nAkyACTABoRBgQReKJ9kOJsAEmAATEDUBFnRRu5+NZwJMgAkwAaEQYEEXiifZDibABJgAExA1ARZ0UbufjWcCTIAJMAGhEGBBF4on2Q4mwASYABMQNQEWdFG7n41nAkyACTABoRBgQReKJ9kOJsAEmAATEDUBFnRRu5+NZwJMgAkwAaEQYEEXiifZDibABJgAExA1ARZ0UbufjWcCTIAJMAGhEGBBF4on2Q4mwASYABMQNQEWdFG7n41nAkyACTABoRBgQReKJ9kOJsAEmAATEDUBFnRRu5+NZwJMgAkwAaEQYEEXiifZDibABJgAExA1ARZ0UbufjWcCTIAJMAGhEGBBF4on2Q4mwASYABMQNQEWdFG7n41nAkyACTABoRBgQReKJ9kOJsAEmAATEDUBFnRRu5+NZwJMgAkwAaEQYEEXiifZDibABJgAExA1ARZ0UbufjWcCTIAJMAGhEGBBF4on2Q4mwASYABMQNQEWdFG7n41nAkyACTABoRBgQReKJ9kOJsAEmAATEDUBFnRRu5+NZwJMgAkwAaEQYEEXiifZDibABJgAExA1ARZ0UbufjWcCTIAJMAGhEGBBF4on2Q4mwASYABMQNQEWdFG7n41nAkyACTABoRBgQReKJ9kOJsAEmAATEDUBFnRRu5+NZwJMgAkwAaEQYEEXiifZDibABJgAExA1ARZ0UbufjWcCTIAJMAGhEGBBF4on2Q4mwASYABMQNQEWdFG7n41nAkyACTABoRBgQReKJ9kOJsAEmAATEDUBFnRRu5+NZwJMgAkwAaEQYEEXiifZDibABJgAExA1ARZ0UbufjWcCTIAJMAGhEGBBF4on2Q4mwASYABMQNQEWdFG7n41nAkyACTABoRBgQReKJ9kOJsAEmAATEDUBFnRRu5+NZwJMgAkwAaEQYEEXiifZDibABJgAExA1ARZ0UbufjWcCTIAJMAGhEGBBF4on2Q4mwASYABMQNQEWdFG7n41nAkyACTABoRBgQReKJ9kOJsAEmAATEDUBFnRRu5+NZwJMgAkwAaEQYEEXiifZDibABJgAExA1ARZ0UbufjWcCTIAJMAGhEGBBF4on2Q4mwASYABMQNQEWdFG7n41nAkyACTABoRBgQReKJ9kOJsAEmAATEDUBFnRRu5+NZwJMgAkwAaEQYEEXiifZDibABJgAExA1ARZ0UbufjWcCTIAJMAGhEGBBF4on2Q4mwASYABMQNQEWdFG7n41nAkyACTABoRD4/7yhYPx7Lq18AAAAAElFTkSuQmCC;" vertex="1" parent="rL32pli-Os964ZMdKdvh-8">
          <mxGeometry x="90" y="10" width="200" height="200" as="geometry" />
        </mxCell>
        <mxCell id="rL32pli-Os964ZMdKdvh-28" value="" style="edgeStyle=orthogonalEdgeStyle;rounded=0;orthogonalLoop=1;jettySize=auto;html=1;" edge="1" parent="rL32pli-Os964ZMdKdvh-8" source="rL32pli-Os964ZMdKdvh-23" target="rL32pli-Os964ZMdKdvh-2">
          <mxGeometry relative="1" as="geometry" />
        </mxCell>
        <mxCell id="rL32pli-Os964ZMdKdvh-9" value="User" style="shape=umlActor;verticalLabelPosition=bottom;verticalAlign=top;html=1;outlineConnect=0;" vertex="1" parent="1">
          <mxGeometry x="140" y="100" width="40" height="80" as="geometry" />
        </mxCell>
        <mxCell id="rL32pli-Os964ZMdKdvh-15" value="" style="group" vertex="1" connectable="0" parent="1">
          <mxGeometry x="200" y="90" width="70" height="30" as="geometry" />
        </mxCell>
        <mxCell id="rL32pli-Os964ZMdKdvh-13" value="Request" style="text;html=1;align=center;verticalAlign=middle;whiteSpace=wrap;rounded=0;" vertex="1" parent="rL32pli-Os964ZMdKdvh-15">
          <mxGeometry x="10" width="60" height="30" as="geometry" />
        </mxCell>
        <mxCell id="rL32pli-Os964ZMdKdvh-14" value="" style="endArrow=classic;html=1;rounded=0;entryX=1;entryY=1;entryDx=0;entryDy=0;" edge="1" parent="rL32pli-Os964ZMdKdvh-15" target="rL32pli-Os964ZMdKdvh-13">
          <mxGeometry width="50" height="50" relative="1" as="geometry">
            <mxPoint y="30" as="sourcePoint" />
            <mxPoint x="70" y="-10" as="targetPoint" />
          </mxGeometry>
        </mxCell>
        <mxCell id="rL32pli-Os964ZMdKdvh-18" value="" style="group" vertex="1" connectable="0" parent="1">
          <mxGeometry x="200" y="160" width="70" height="40" as="geometry" />
        </mxCell>
        <mxCell id="rL32pli-Os964ZMdKdvh-16" value="Response" style="text;html=1;align=center;verticalAlign=middle;whiteSpace=wrap;rounded=0;" vertex="1" parent="rL32pli-Os964ZMdKdvh-18">
          <mxGeometry x="10" y="10" width="60" height="30" as="geometry" />
        </mxCell>
        <mxCell id="rL32pli-Os964ZMdKdvh-17" value="" style="endArrow=classic;html=1;rounded=0;" edge="1" parent="rL32pli-Os964ZMdKdvh-18">
          <mxGeometry width="50" height="50" relative="1" as="geometry">
            <mxPoint x="60" as="sourcePoint" />
            <mxPoint as="targetPoint" />
          </mxGeometry>
        </mxCell>
        <mxCell id="rL32pli-Os964ZMdKdvh-24" value="" style="edgeStyle=orthogonalEdgeStyle;rounded=0;orthogonalLoop=1;jettySize=auto;html=1;" edge="1" parent="1" source="rL32pli-Os964ZMdKdvh-1" target="rL32pli-Os964ZMdKdvh-23">
          <mxGeometry relative="1" as="geometry" />
        </mxCell>
        <mxCell id="rL32pli-Os964ZMdKdvh-26" value="" style="edgeStyle=orthogonalEdgeStyle;rounded=0;orthogonalLoop=1;jettySize=auto;html=1;" edge="1" parent="1" source="rL32pli-Os964ZMdKdvh-23" target="rL32pli-Os964ZMdKdvh-3">
          <mxGeometry relative="1" as="geometry" />
        </mxCell>
      </root>
    </mxGraphModel>
  </diagram>
</mxfile>
